<?xml version="1.0" encoding="UTF-8" standalone="no"?><svg xmlns="http://www.w3.org/2000/svg" xmlns:xlink="http://www.w3.org/1999/xlink" contentScriptType="application/ecmascript" contentStyleType="text/css" height="846px" preserveAspectRatio="none" style="width:900px;height:846px;" version="1.1" viewBox="0 0 900 846" width="900px" zoomAndPan="magnify"><defs><filter height="300%" id="fck8av4wmqd3g" width="300%" x="-1" y="-1"><feGaussianBlur result="blurOut" stdDeviation="2.0"/><feColorMatrix in="blurOut" result="blurOut2" type="matrix" values="0 0 0 0 0 0 0 0 0 0 0 0 0 0 0 0 0 0 .4 0"/><feOffset dx="4.0" dy="4.0" in="blurOut2" result="blurOut3"/><feBlend in="SourceGraphic" in2="blurOut3" mode="normal"/></filter></defs><g><rect fill="#FFFFFF" filter="url(#fck8av4wmqd3g)" height="710.5234" style="stroke: #A80036; stroke-width: 1.0;" width="10" x="122" y="69.4297"/><rect fill="#FFFFFF" filter="url(#fck8av4wmqd3g)" height="514.8594" style="stroke: #000000; stroke-width: 2.0;" width="809" x="72" y="236.9609"/><rect fill="#FFFFFF" filter="url(#fck8av4wmqd3g)" height="269.9297" style="stroke: #000000; stroke-width: 2.0;" width="584" x="82" y="261.0938"/><line style="stroke: #A80036; stroke-width: 1.0; stroke-dasharray: 5.0,5.0;" x1="33" x2="33" y1="38.2969" y2="797.9531"/><line style="stroke: #A80036; stroke-width: 1.0; stroke-dasharray: 5.0,5.0;" x1="127" x2="127" y1="38.2969" y2="797.9531"/><line style="stroke: #A80036; stroke-width: 1.0; stroke-dasharray: 5.0,5.0;" x1="394" x2="394" y1="38.2969" y2="797.9531"/><line style="stroke: #A80036; stroke-width: 1.0; stroke-dasharray: 5.0,5.0;" x1="512" x2="512" y1="38.2969" y2="797.9531"/><line style="stroke: #A80036; stroke-width: 1.0; stroke-dasharray: 5.0,5.0;" x1="647" x2="647" y1="38.2969" y2="797.9531"/><line style="stroke: #A80036; stroke-width: 1.0; stroke-dasharray: 5.0,5.0;" x1="800" x2="800" y1="38.2969" y2="797.9531"/><rect fill="#FEFECE" filter="url(#fck8av4wmqd3g)" height="30.2969" style="stroke: #A80036; stroke-width: 1.5;" width="46" x="8" y="3"/><text fill="#000000" font-family="sans-serif" font-size="14" lengthAdjust="spacingAndGlyphs" textLength="32" x="15" y="22.9951">User</text><rect fill="#FEFECE" filter="url(#fck8av4wmqd3g)" height="30.2969" style="stroke: #A80036; stroke-width: 1.5;" width="46" x="8" y="796.9531"/><text fill="#000000" font-family="sans-serif" font-size="14" lengthAdjust="spacingAndGlyphs" textLength="32" x="15" y="816.9482">User</text><rect fill="#FEFECE" filter="url(#fck8av4wmqd3g)" height="30.2969" style="stroke: #A80036; stroke-width: 1.5;" width="66" x="92" y="3"/><text fill="#000000" font-family="sans-serif" font-size="14" lengthAdjust="spacingAndGlyphs" textLength="52" x="99" y="22.9951">TestNG</text><rect fill="#FEFECE" filter="url(#fck8av4wmqd3g)" height="30.2969" style="stroke: #A80036; stroke-width: 1.5;" width="66" x="92" y="796.9531"/><text fill="#000000" font-family="sans-serif" font-size="14" lengthAdjust="spacingAndGlyphs" textLength="52" x="99" y="816.9482">TestNG</text><rect fill="#FEFECE" filter="url(#fck8av4wmqd3g)" height="30.2969" style="stroke: #A80036; stroke-width: 1.5;" width="106" x="339" y="3"/><text fill="#000000" font-family="sans-serif" font-size="14" lengthAdjust="spacingAndGlyphs" textLength="92" x="346" y="22.9951">Configuration</text><rect fill="#FEFECE" filter="url(#fck8av4wmqd3g)" height="30.2969" style="stroke: #A80036; stroke-width: 1.5;" width="106" x="339" y="796.9531"/><text fill="#000000" font-family="sans-serif" font-size="14" lengthAdjust="spacingAndGlyphs" textLength="92" x="346" y="816.9482">Configuration</text><rect fill="#FEFECE" filter="url(#fck8av4wmqd3g)" height="30.2969" style="stroke: #A80036; stroke-width: 1.5;" width="102" x="459" y="3"/><text fill="#000000" font-family="sans-serif" font-size="14" lengthAdjust="spacingAndGlyphs" textLength="88" x="466" y="22.9951">JCommander</text><rect fill="#FEFECE" filter="url(#fck8av4wmqd3g)" height="30.2969" style="stroke: #A80036; stroke-width: 1.5;" width="102" x="459" y="796.9531"/><text fill="#000000" font-family="sans-serif" font-size="14" lengthAdjust="spacingAndGlyphs" textLength="88" x="466" y="816.9482">JCommander</text><rect fill="#FEFECE" filter="url(#fck8av4wmqd3g)" height="30.2969" style="stroke: #A80036; stroke-width: 1.5;" width="140" x="575" y="3"/><text fill="#000000" font-family="sans-serif" font-size="14" lengthAdjust="spacingAndGlyphs" textLength="126" x="582" y="22.9951">IExecutionListener</text><rect fill="#FEFECE" filter="url(#fck8av4wmqd3g)" height="30.2969" style="stroke: #A80036; stroke-width: 1.5;" width="140" x="575" y="796.9531"/><text fill="#000000" font-family="sans-serif" font-size="14" lengthAdjust="spacingAndGlyphs" textLength="126" x="582" y="816.9482">IExecutionListener</text><rect fill="#FEFECE" filter="url(#fck8av4wmqd3g)" height="30.2969" style="stroke: #A80036; stroke-width: 1.5;" width="138" x="729" y="3"/><text fill="#000000" font-family="sans-serif" font-size="14" lengthAdjust="spacingAndGlyphs" textLength="124" x="736" y="22.9951">IAlterSuiteListener</text><rect fill="#FEFECE" filter="url(#fck8av4wmqd3g)" height="30.2969" style="stroke: #A80036; stroke-width: 1.5;" width="138" x="729" y="796.9531"/><text fill="#000000" font-family="sans-serif" font-size="14" lengthAdjust="spacingAndGlyphs" textLength="124" x="736" y="816.9482">IAlterSuiteListener</text><rect fill="#FFFFFF" filter="url(#fck8av4wmqd3g)" height="710.5234" style="stroke: #A80036; stroke-width: 1.0;" width="10" x="122" y="69.4297"/><polygon fill="#A80036" points="110,65.4297,120,69.4297,110,73.4297,114,69.4297" style="stroke: #A80036; stroke-width: 1.0;"/><line style="stroke: #A80036; stroke-width: 1.0;" x1="33" x2="116" y1="69.4297" y2="69.4297"/><text fill="#000000" font-family="sans-serif" font-size="13" lengthAdjust="spacingAndGlyphs" textLength="70" x="40" y="64.3638">main(argv)</text><polygon fill="#A80036" points="382,94.5625,392,98.5625,382,102.5625,386,98.5625" style="stroke: #A80036; stroke-width: 1.0;"/><line style="stroke: #A80036; stroke-width: 1.0;" x1="132" x2="388" y1="98.5625" y2="98.5625"/><text fill="#000000" font-family="sans-serif" font-size="13" lengthAdjust="spacingAndGlyphs" textLength="124" x="139" y="93.4966">new Configuration()</text><polygon fill="#A80036" points="500,128.6953,510,132.6953,500,136.6953,504,132.6953" style="stroke: #A80036; stroke-width: 1.0;"/><line style="stroke: #A80036; stroke-width: 1.0;" x1="132" x2="506" y1="132.6953" y2="132.6953"/><text fill="#000000" font-family="sans-serif" font-size="13" lengthAdjust="spacingAndGlyphs" textLength="74" x="139" y="127.6294">parse(argv)</text><path d="M517,111.5625 L517,136.5625 L629,136.5625 L629,121.5625 L619,111.5625 L517,111.5625 " fill="#FBFB77" filter="url(#fck8av4wmqd3g)" style="stroke: #A80036; stroke-width: 1.0;"/><path d="M619,111.5625 L619,121.5625 L629,121.5625 L619,111.5625 " fill="#FBFB77" style="stroke: #A80036; stroke-width: 1.0;"/><text fill="#000000" font-family="sans-serif" font-size="13" lengthAdjust="spacingAndGlyphs" textLength="91" x="523" y="128.6294">解析命令行参数</text><line style="stroke: #A80036; stroke-width: 1.0;" x1="132" x2="174" y1="166.8281" y2="166.8281"/><line style="stroke: #A80036; stroke-width: 1.0;" x1="174" x2="174" y1="166.8281" y2="179.8281"/><line style="stroke: #A80036; stroke-width: 1.0;" x1="133" x2="174" y1="179.8281" y2="179.8281"/><polygon fill="#A80036" points="143,175.8281,133,179.8281,143,183.8281,139,179.8281" style="stroke: #A80036; stroke-width: 1.0;"/><text fill="#000000" font-family="sans-serif" font-size="13" lengthAdjust="spacingAndGlyphs" textLength="228" x="139" y="161.7622">validateCommandLineParameters()</text><line style="stroke: #A80036; stroke-width: 1.0;" x1="132" x2="174" y1="208.9609" y2="208.9609"/><line style="stroke: #A80036; stroke-width: 1.0;" x1="174" x2="174" y1="208.9609" y2="221.9609"/><line style="stroke: #A80036; stroke-width: 1.0;" x1="133" x2="174" y1="221.9609" y2="221.9609"/><polygon fill="#A80036" points="143,217.9609,133,221.9609,143,225.9609,139,221.9609" style="stroke: #A80036; stroke-width: 1.0;"/><text fill="#000000" font-family="sans-serif" font-size="13" lengthAdjust="spacingAndGlyphs" textLength="191" x="139" y="203.895">configure(CommandLineArgs)</text><path d="M72,236.9609 L153,236.9609 L153,243.9609 L143,253.9609 L72,253.9609 L72,236.9609 " fill="#EEEEEE" style="stroke: #000000; stroke-width: 1.0;"/><rect fill="none" height="514.8594" style="stroke: #000000; stroke-width: 2.0;" width="809" x="72" y="236.9609"/><text fill="#000000" font-family="sans-serif" font-size="13" font-weight="bold" lengthAdjust="spacingAndGlyphs" textLength="36" x="87" y="250.0278">run()</text><path d="M82,261.0938 L278,261.0938 L278,268.0938 L268,278.0938 L82,278.0938 L82,261.0938 " fill="#EEEEEE" style="stroke: #000000; stroke-width: 1.0;"/><rect fill="none" height="269.9297" style="stroke: #000000; stroke-width: 2.0;" width="584" x="82" y="261.0938"/><text fill="#000000" font-family="sans-serif" font-size="13" font-weight="bold" lengthAdjust="spacingAndGlyphs" textLength="151" x="97" y="274.1606">initializeEverything()</text><line style="stroke: #A80036; stroke-width: 1.0;" x1="132" x2="174" y1="299.3594" y2="299.3594"/><line style="stroke: #A80036; stroke-width: 1.0;" x1="174" x2="174" y1="299.3594" y2="312.3594"/><line style="stroke: #A80036; stroke-width: 1.0;" x1="133" x2="174" y1="312.3594" y2="312.3594"/><polygon fill="#A80036" points="143,308.3594,133,312.3594,143,316.3594,139,312.3594" style="stroke: #A80036; stroke-width: 1.0;"/><text fill="#000000" font-family="sans-serif" font-size="13" lengthAdjust="spacingAndGlyphs" textLength="163" x="139" y="294.2935">initializeSuitesAndJarFile()</text><path d="M314,284.7266 L314,309.7266 L642,309.7266 L642,294.7266 L632,284.7266 L314,284.7266 " fill="#FBFB77" filter="url(#fck8av4wmqd3g)" style="stroke: #A80036; stroke-width: 1.0;"/><path d="M632,284.7266 L632,294.7266 L642,294.7266 L632,284.7266 " fill="#FBFB77" style="stroke: #A80036; stroke-width: 1.0;"/><text fill="#000000" font-family="sans-serif" font-size="13" lengthAdjust="spacingAndGlyphs" textLength="307" x="320" y="301.7935">解析testng.xml配置文件并初始化XmlSuite到集合里</text><line style="stroke: #A80036; stroke-width: 1.0;" x1="132" x2="174" y1="341.4922" y2="341.4922"/><line style="stroke: #A80036; stroke-width: 1.0;" x1="174" x2="174" y1="341.4922" y2="354.4922"/><line style="stroke: #A80036; stroke-width: 1.0;" x1="133" x2="174" y1="354.4922" y2="354.4922"/><polygon fill="#A80036" points="143,350.4922,133,354.4922,143,358.4922,139,354.4922" style="stroke: #A80036; stroke-width: 1.0;"/><text fill="#000000" font-family="sans-serif" font-size="13" lengthAdjust="spacingAndGlyphs" textLength="146" x="139" y="336.4263">initializeConfiguration()</text><line style="stroke: #A80036; stroke-width: 1.0;" x1="132" x2="174" y1="383.625" y2="383.625"/><line style="stroke: #A80036; stroke-width: 1.0;" x1="174" x2="174" y1="383.625" y2="396.625"/><line style="stroke: #A80036; stroke-width: 1.0;" x1="133" x2="174" y1="396.625" y2="396.625"/><polygon fill="#A80036" points="143,392.625,133,396.625,143,400.625,139,396.625" style="stroke: #A80036; stroke-width: 1.0;"/><text fill="#000000" font-family="sans-serif" font-size="13" lengthAdjust="spacingAndGlyphs" textLength="165" x="139" y="378.5591">initializeDefaultListeners()</text><line style="stroke: #A80036; stroke-width: 1.0;" x1="132" x2="174" y1="425.7578" y2="425.7578"/><line style="stroke: #A80036; stroke-width: 1.0;" x1="174" x2="174" y1="425.7578" y2="438.7578"/><line style="stroke: #A80036; stroke-width: 1.0;" x1="133" x2="174" y1="438.7578" y2="438.7578"/><polygon fill="#A80036" points="143,434.7578,133,438.7578,143,442.7578,139,438.7578" style="stroke: #A80036; stroke-width: 1.0;"/><text fill="#000000" font-family="sans-serif" font-size="13" lengthAdjust="spacingAndGlyphs" textLength="194" x="139" y="420.6919">initializeCommandLineSuites()</text><path d="M345,411.125 L345,436.125 L618,436.125 L618,421.125 L608,411.125 L345,411.125 " fill="#FBFB77" filter="url(#fck8av4wmqd3g)" style="stroke: #A80036; stroke-width: 1.0;"/><path d="M608,411.125 L608,421.125 L618,421.125 L608,411.125 " fill="#FBFB77" style="stroke: #A80036; stroke-width: 1.0;"/><text fill="#000000" font-family="sans-serif" font-size="13" lengthAdjust="spacingAndGlyphs" textLength="252" x="351" y="428.1919">解析命令行参数并初始化XmlSuite到集合里</text><line style="stroke: #A80036; stroke-width: 1.0;" x1="132" x2="174" y1="467.8906" y2="467.8906"/><line style="stroke: #A80036; stroke-width: 1.0;" x1="174" x2="174" y1="467.8906" y2="480.8906"/><line style="stroke: #A80036; stroke-width: 1.0;" x1="133" x2="174" y1="480.8906" y2="480.8906"/><polygon fill="#A80036" points="143,476.8906,133,480.8906,143,484.8906,139,480.8906" style="stroke: #A80036; stroke-width: 1.0;"/><text fill="#000000" font-family="sans-serif" font-size="13" lengthAdjust="spacingAndGlyphs" textLength="243" x="139" y="462.8247">initializeCommandLineSuitesParams()</text><line style="stroke: #A80036; stroke-width: 1.0;" x1="132" x2="174" y1="510.0234" y2="510.0234"/><line style="stroke: #A80036; stroke-width: 1.0;" x1="174" x2="174" y1="510.0234" y2="523.0234"/><line style="stroke: #A80036; stroke-width: 1.0;" x1="133" x2="174" y1="523.0234" y2="523.0234"/><polygon fill="#A80036" points="143,519.0234,133,523.0234,143,527.0234,139,523.0234" style="stroke: #A80036; stroke-width: 1.0;"/><text fill="#000000" font-family="sans-serif" font-size="13" lengthAdjust="spacingAndGlyphs" textLength="240" x="139" y="504.9575">initializeCommandLineSuitesGroups()</text><line style="stroke: #A80036; stroke-width: 1.0;" x1="132" x2="174" y1="559.1563" y2="559.1563"/><line style="stroke: #A80036; stroke-width: 1.0;" x1="174" x2="174" y1="559.1563" y2="572.1563"/><line style="stroke: #A80036; stroke-width: 1.0;" x1="133" x2="174" y1="572.1563" y2="572.1563"/><polygon fill="#A80036" points="143,568.1563,133,572.1563,143,576.1563,139,572.1563" style="stroke: #A80036; stroke-width: 1.0;"/><text fill="#000000" font-family="sans-serif" font-size="13" lengthAdjust="spacingAndGlyphs" textLength="87" x="139" y="554.0903">sanityCheck()</text><polygon fill="#A80036" points="635,597.2891,645,601.2891,635,605.2891,639,601.2891" style="stroke: #A80036; stroke-width: 1.0;"/><line style="stroke: #A80036; stroke-width: 1.0;" x1="132" x2="641" y1="601.2891" y2="601.2891"/><text fill="#000000" font-family="sans-serif" font-size="13" lengthAdjust="spacingAndGlyphs" textLength="120" x="139" y="596.2231">onExecutionStart()</text><polygon fill="#A80036" points="788,626.4219,798,630.4219,788,634.4219,792,630.4219" style="stroke: #A80036; stroke-width: 1.0;"/><line style="stroke: #A80036; stroke-width: 1.0;" x1="132" x2="794" y1="630.4219" y2="630.4219"/><text fill="#000000" font-family="sans-serif" font-size="13" lengthAdjust="spacingAndGlyphs" textLength="39" x="139" y="625.356">alter()</text><line style="stroke: #A80036; stroke-width: 1.0;" x1="132" x2="174" y1="659.5547" y2="659.5547"/><line style="stroke: #A80036; stroke-width: 1.0;" x1="174" x2="174" y1="659.5547" y2="672.5547"/><line style="stroke: #A80036; stroke-width: 1.0;" x1="133" x2="174" y1="672.5547" y2="672.5547"/><polygon fill="#A80036" points="143,668.5547,133,672.5547,143,676.5547,139,672.5547" style="stroke: #A80036; stroke-width: 1.0;"/><text fill="#000000" font-family="sans-serif" font-size="13" lengthAdjust="spacingAndGlyphs" textLength="114" x="139" y="654.4888">runSuitesLocally()</text><path d="M265,644.9219 L265,669.9219 L364,669.9219 L364,654.9219 L354,644.9219 L265,644.9219 " fill="#FBFB77" filter="url(#fck8av4wmqd3g)" style="stroke: #A80036; stroke-width: 1.0;"/><path d="M354,644.9219 L354,654.9219 L364,654.9219 L354,644.9219 " fill="#FBFB77" style="stroke: #A80036; stroke-width: 1.0;"/><text fill="#000000" font-family="sans-serif" font-size="13" lengthAdjust="spacingAndGlyphs" textLength="78" x="271" y="661.9888">框架执行细节</text><polygon fill="#A80036" points="635,697.6875,645,701.6875,635,705.6875,639,701.6875" style="stroke: #A80036; stroke-width: 1.0;"/><line style="stroke: #A80036; stroke-width: 1.0;" x1="132" x2="641" y1="701.6875" y2="701.6875"/><text fill="#000000" font-family="sans-serif" font-size="13" lengthAdjust="spacingAndGlyphs" textLength="124" x="139" y="696.6216">onExecutionFinish()</text><line style="stroke: #A80036; stroke-width: 1.0;" x1="132" x2="174" y1="730.8203" y2="730.8203"/><line style="stroke: #A80036; stroke-width: 1.0;" x1="174" x2="174" y1="730.8203" y2="743.8203"/><line style="stroke: #A80036; stroke-width: 1.0;" x1="133" x2="174" y1="743.8203" y2="743.8203"/><polygon fill="#A80036" points="143,739.8203,133,743.8203,143,747.8203,139,743.8203" style="stroke: #A80036; stroke-width: 1.0;"/><text fill="#000000" font-family="sans-serif" font-size="13" lengthAdjust="spacingAndGlyphs" textLength="117" x="139" y="725.7544">generateReports()</text><polygon fill="#A80036" points="44,775.9531,34,779.9531,44,783.9531,40,779.9531" style="stroke: #A80036; stroke-width: 1.0;"/><line style="stroke: #A80036; stroke-width: 1.0; stroke-dasharray: 2.0,2.0;" x1="38" x2="126" y1="779.9531" y2="779.9531"/><text fill="#000000" font-family="sans-serif" font-size="13" lengthAdjust="spacingAndGlyphs" textLength="26" x="50" y="774.8872">void</text></g></svg>