<?xml version="1.0" encoding="UTF-8" standalone="no"?><svg xmlns="http://www.w3.org/2000/svg" xmlns:xlink="http://www.w3.org/1999/xlink" contentScriptType="application/ecmascript" contentStyleType="text/css" height="836px" preserveAspectRatio="none" style="width:900px;height:836px;" version="1.1" viewBox="0 0 900 836" width="900px" zoomAndPan="magnify"><defs><filter height="300%" id="fts5suzh0o5fd" width="300%" x="-1" y="-1"><feGaussianBlur result="blurOut" stdDeviation="2.0"/><feColorMatrix in="blurOut" result="blurOut2" type="matrix" values="0 0 0 0 0 0 0 0 0 0 0 0 0 0 0 0 0 0 .4 0"/><feOffset dx="4.0" dy="4.0" in="blurOut2" result="blurOut3"/><feBlend in="SourceGraphic" in2="blurOut3" mode="normal"/></filter></defs><g><rect fill="#FFFFFF" filter="url(#fts5suzh0o5fd)" height="700.5234" style="stroke: #A80036; stroke-width: 1.0;" width="10" x="122" y="69.4297"/><rect fill="#FFFFFF" filter="url(#fts5suzh0o5fd)" height="514.8594" style="stroke: #000000; stroke-width: 2.0;" width="809" x="72" y="226.9609"/><rect fill="#FFFFFF" filter="url(#fts5suzh0o5fd)" height="269.9297" style="stroke: #000000; stroke-width: 2.0;" width="546" x="82" y="251.0938"/><line style="stroke: #A80036; stroke-width: 1.0; stroke-dasharray: 5.0,5.0;" x1="33" x2="33" y1="38.2969" y2="787.9531"/><line style="stroke: #A80036; stroke-width: 1.0; stroke-dasharray: 5.0,5.0;" x1="127" x2="127" y1="38.2969" y2="787.9531"/><line style="stroke: #A80036; stroke-width: 1.0; stroke-dasharray: 5.0,5.0;" x1="394" x2="394" y1="38.2969" y2="787.9531"/><line style="stroke: #A80036; stroke-width: 1.0; stroke-dasharray: 5.0,5.0;" x1="512" x2="512" y1="38.2969" y2="787.9531"/><line style="stroke: #A80036; stroke-width: 1.0; stroke-dasharray: 5.0,5.0;" x1="647" x2="647" y1="38.2969" y2="787.9531"/><line style="stroke: #A80036; stroke-width: 1.0; stroke-dasharray: 5.0,5.0;" x1="800" x2="800" y1="38.2969" y2="787.9531"/><rect fill="#FEFECE" filter="url(#fts5suzh0o5fd)" height="30.2969" style="stroke: #A80036; stroke-width: 1.5;" width="46" x="8" y="3"/><text fill="#000000" font-family="sans-serif" font-size="14" lengthAdjust="spacingAndGlyphs" textLength="32" x="15" y="22.9951">User</text><rect fill="#FEFECE" filter="url(#fts5suzh0o5fd)" height="30.2969" style="stroke: #A80036; stroke-width: 1.5;" width="46" x="8" y="786.9531"/><text fill="#000000" font-family="sans-serif" font-size="14" lengthAdjust="spacingAndGlyphs" textLength="32" x="15" y="806.9482">User</text><rect fill="#FEFECE" filter="url(#fts5suzh0o5fd)" height="30.2969" style="stroke: #A80036; stroke-width: 1.5;" width="66" x="92" y="3"/><text fill="#000000" font-family="sans-serif" font-size="14" lengthAdjust="spacingAndGlyphs" textLength="52" x="99" y="22.9951">TestNG</text><rect fill="#FEFECE" filter="url(#fts5suzh0o5fd)" height="30.2969" style="stroke: #A80036; stroke-width: 1.5;" width="66" x="92" y="786.9531"/><text fill="#000000" font-family="sans-serif" font-size="14" lengthAdjust="spacingAndGlyphs" textLength="52" x="99" y="806.9482">TestNG</text><rect fill="#FEFECE" filter="url(#fts5suzh0o5fd)" height="30.2969" style="stroke: #A80036; stroke-width: 1.5;" width="106" x="339" y="3"/><text fill="#000000" font-family="sans-serif" font-size="14" lengthAdjust="spacingAndGlyphs" textLength="92" x="346" y="22.9951">Configuration</text><rect fill="#FEFECE" filter="url(#fts5suzh0o5fd)" height="30.2969" style="stroke: #A80036; stroke-width: 1.5;" width="106" x="339" y="786.9531"/><text fill="#000000" font-family="sans-serif" font-size="14" lengthAdjust="spacingAndGlyphs" textLength="92" x="346" y="806.9482">Configuration</text><rect fill="#FEFECE" filter="url(#fts5suzh0o5fd)" height="30.2969" style="stroke: #A80036; stroke-width: 1.5;" width="102" x="459" y="3"/><text fill="#000000" font-family="sans-serif" font-size="14" lengthAdjust="spacingAndGlyphs" textLength="88" x="466" y="22.9951">JCommander</text><rect fill="#FEFECE" filter="url(#fts5suzh0o5fd)" height="30.2969" style="stroke: #A80036; stroke-width: 1.5;" width="102" x="459" y="786.9531"/><text fill="#000000" font-family="sans-serif" font-size="14" lengthAdjust="spacingAndGlyphs" textLength="88" x="466" y="806.9482">JCommander</text><rect fill="#FEFECE" filter="url(#fts5suzh0o5fd)" height="30.2969" style="stroke: #A80036; stroke-width: 1.5;" width="140" x="575" y="3"/><text fill="#000000" font-family="sans-serif" font-size="14" lengthAdjust="spacingAndGlyphs" textLength="126" x="582" y="22.9951">IExecutionListener</text><rect fill="#FEFECE" filter="url(#fts5suzh0o5fd)" height="30.2969" style="stroke: #A80036; stroke-width: 1.5;" width="140" x="575" y="786.9531"/><text fill="#000000" font-family="sans-serif" font-size="14" lengthAdjust="spacingAndGlyphs" textLength="126" x="582" y="806.9482">IExecutionListener</text><rect fill="#FEFECE" filter="url(#fts5suzh0o5fd)" height="30.2969" style="stroke: #A80036; stroke-width: 1.5;" width="138" x="729" y="3"/><text fill="#000000" font-family="sans-serif" font-size="14" lengthAdjust="spacingAndGlyphs" textLength="124" x="736" y="22.9951">IAlterSuiteListener</text><rect fill="#FEFECE" filter="url(#fts5suzh0o5fd)" height="30.2969" style="stroke: #A80036; stroke-width: 1.5;" width="138" x="729" y="786.9531"/><text fill="#000000" font-family="sans-serif" font-size="14" lengthAdjust="spacingAndGlyphs" textLength="124" x="736" y="806.9482">IAlterSuiteListener</text><rect fill="#FFFFFF" filter="url(#fts5suzh0o5fd)" height="700.5234" style="stroke: #A80036; stroke-width: 1.0;" width="10" x="122" y="69.4297"/><polygon fill="#A80036" points="110,65.4297,120,69.4297,110,73.4297,114,69.4297" style="stroke: #A80036; stroke-width: 1.0;"/><line style="stroke: #A80036; stroke-width: 1.0;" x1="33" x2="116" y1="69.4297" y2="69.4297"/><text fill="#000000" font-family="sans-serif" font-size="13" lengthAdjust="spacingAndGlyphs" textLength="70" x="40" y="64.3638">main(argv)</text><polygon fill="#A80036" points="382,94.5625,392,98.5625,382,102.5625,386,98.5625" style="stroke: #A80036; stroke-width: 1.0;"/><line style="stroke: #A80036; stroke-width: 1.0;" x1="132" x2="388" y1="98.5625" y2="98.5625"/><text fill="#000000" font-family="sans-serif" font-size="13" lengthAdjust="spacingAndGlyphs" textLength="124" x="139" y="93.4966">new Configuration()</text><polygon fill="#A80036" points="500,123.6953,510,127.6953,500,131.6953,504,127.6953" style="stroke: #A80036; stroke-width: 1.0;"/><line style="stroke: #A80036; stroke-width: 1.0;" x1="132" x2="506" y1="127.6953" y2="127.6953"/><text fill="#000000" font-family="sans-serif" font-size="13" lengthAdjust="spacingAndGlyphs" textLength="74" x="139" y="122.6294">parse(argv)</text><line style="stroke: #A80036; stroke-width: 1.0;" x1="132" x2="174" y1="156.8281" y2="156.8281"/><line style="stroke: #A80036; stroke-width: 1.0;" x1="174" x2="174" y1="156.8281" y2="169.8281"/><line style="stroke: #A80036; stroke-width: 1.0;" x1="133" x2="174" y1="169.8281" y2="169.8281"/><polygon fill="#A80036" points="143,165.8281,133,169.8281,143,173.8281,139,169.8281" style="stroke: #A80036; stroke-width: 1.0;"/><text fill="#000000" font-family="sans-serif" font-size="13" lengthAdjust="spacingAndGlyphs" textLength="228" x="139" y="151.7622">validateCommandLineParameters()</text><line style="stroke: #A80036; stroke-width: 1.0;" x1="132" x2="174" y1="198.9609" y2="198.9609"/><line style="stroke: #A80036; stroke-width: 1.0;" x1="174" x2="174" y1="198.9609" y2="211.9609"/><line style="stroke: #A80036; stroke-width: 1.0;" x1="133" x2="174" y1="211.9609" y2="211.9609"/><polygon fill="#A80036" points="143,207.9609,133,211.9609,143,215.9609,139,211.9609" style="stroke: #A80036; stroke-width: 1.0;"/><text fill="#000000" font-family="sans-serif" font-size="13" lengthAdjust="spacingAndGlyphs" textLength="191" x="139" y="193.895">configure(CommandLineArgs)</text><path d="M72,226.9609 L153,226.9609 L153,233.9609 L143,243.9609 L72,243.9609 L72,226.9609 " fill="#EEEEEE" style="stroke: #000000; stroke-width: 1.0;"/><rect fill="none" height="514.8594" style="stroke: #000000; stroke-width: 2.0;" width="809" x="72" y="226.9609"/><text fill="#000000" font-family="sans-serif" font-size="13" font-weight="bold" lengthAdjust="spacingAndGlyphs" textLength="36" x="87" y="240.0278">run()</text><path d="M82,251.0938 L278,251.0938 L278,258.0938 L268,268.0938 L82,268.0938 L82,251.0938 " fill="#EEEEEE" style="stroke: #000000; stroke-width: 1.0;"/><rect fill="none" height="269.9297" style="stroke: #000000; stroke-width: 2.0;" width="546" x="82" y="251.0938"/><text fill="#000000" font-family="sans-serif" font-size="13" font-weight="bold" lengthAdjust="spacingAndGlyphs" textLength="151" x="97" y="264.1606">initializeEverything()</text><line style="stroke: #A80036; stroke-width: 1.0;" x1="132" x2="174" y1="289.3594" y2="289.3594"/><line style="stroke: #A80036; stroke-width: 1.0;" x1="174" x2="174" y1="289.3594" y2="302.3594"/><line style="stroke: #A80036; stroke-width: 1.0;" x1="133" x2="174" y1="302.3594" y2="302.3594"/><polygon fill="#A80036" points="143,298.3594,133,302.3594,143,306.3594,139,302.3594" style="stroke: #A80036; stroke-width: 1.0;"/><text fill="#000000" font-family="sans-serif" font-size="13" lengthAdjust="spacingAndGlyphs" textLength="163" x="139" y="284.2935">initializeSuitesAndJarFile()</text><line style="stroke: #A80036; stroke-width: 1.0;" x1="132" x2="174" y1="331.4922" y2="331.4922"/><line style="stroke: #A80036; stroke-width: 1.0;" x1="174" x2="174" y1="331.4922" y2="344.4922"/><line style="stroke: #A80036; stroke-width: 1.0;" x1="133" x2="174" y1="344.4922" y2="344.4922"/><polygon fill="#A80036" points="143,340.4922,133,344.4922,143,348.4922,139,344.4922" style="stroke: #A80036; stroke-width: 1.0;"/><text fill="#000000" font-family="sans-serif" font-size="13" lengthAdjust="spacingAndGlyphs" textLength="146" x="139" y="326.4263">initializeConfiguration()</text><line style="stroke: #A80036; stroke-width: 1.0;" x1="132" x2="174" y1="373.625" y2="373.625"/><line style="stroke: #A80036; stroke-width: 1.0;" x1="174" x2="174" y1="373.625" y2="386.625"/><line style="stroke: #A80036; stroke-width: 1.0;" x1="133" x2="174" y1="386.625" y2="386.625"/><polygon fill="#A80036" points="143,382.625,133,386.625,143,390.625,139,386.625" style="stroke: #A80036; stroke-width: 1.0;"/><text fill="#000000" font-family="sans-serif" font-size="13" lengthAdjust="spacingAndGlyphs" textLength="165" x="139" y="368.5591">initializeDefaultListeners()</text><line style="stroke: #A80036; stroke-width: 1.0;" x1="132" x2="174" y1="415.7578" y2="415.7578"/><line style="stroke: #A80036; stroke-width: 1.0;" x1="174" x2="174" y1="415.7578" y2="428.7578"/><line style="stroke: #A80036; stroke-width: 1.0;" x1="133" x2="174" y1="428.7578" y2="428.7578"/><polygon fill="#A80036" points="143,424.7578,133,428.7578,143,432.7578,139,428.7578" style="stroke: #A80036; stroke-width: 1.0;"/><text fill="#000000" font-family="sans-serif" font-size="13" lengthAdjust="spacingAndGlyphs" textLength="194" x="139" y="410.6919">initializeCommandLineSuites()</text><line style="stroke: #A80036; stroke-width: 1.0;" x1="132" x2="174" y1="457.8906" y2="457.8906"/><line style="stroke: #A80036; stroke-width: 1.0;" x1="174" x2="174" y1="457.8906" y2="470.8906"/><line style="stroke: #A80036; stroke-width: 1.0;" x1="133" x2="174" y1="470.8906" y2="470.8906"/><polygon fill="#A80036" points="143,466.8906,133,470.8906,143,474.8906,139,470.8906" style="stroke: #A80036; stroke-width: 1.0;"/><text fill="#000000" font-family="sans-serif" font-size="13" lengthAdjust="spacingAndGlyphs" textLength="243" x="139" y="452.8247">initializeCommandLineSuitesParams()</text><line style="stroke: #A80036; stroke-width: 1.0;" x1="132" x2="174" y1="500.0234" y2="500.0234"/><line style="stroke: #A80036; stroke-width: 1.0;" x1="174" x2="174" y1="500.0234" y2="513.0234"/><line style="stroke: #A80036; stroke-width: 1.0;" x1="133" x2="174" y1="513.0234" y2="513.0234"/><polygon fill="#A80036" points="143,509.0234,133,513.0234,143,517.0234,139,513.0234" style="stroke: #A80036; stroke-width: 1.0;"/><text fill="#000000" font-family="sans-serif" font-size="13" lengthAdjust="spacingAndGlyphs" textLength="240" x="139" y="494.9575">initializeCommandLineSuitesGroups()</text><path d="M391,485.3906 L391,510.3906 L604,510.3906 L604,495.3906 L594,485.3906 L391,485.3906 " fill="#FBFB77" filter="url(#fts5suzh0o5fd)" style="stroke: #A80036; stroke-width: 1.0;"/><path d="M594,485.3906 L594,495.3906 L604,495.3906 L594,485.3906 " fill="#FBFB77" style="stroke: #A80036; stroke-width: 1.0;"/><text fill="#000000" font-family="sans-serif" font-size="13" lengthAdjust="spacingAndGlyphs" textLength="192" x="397" y="502.4575">主要是在初始化List&lt;XmlSuite&gt;</text><line style="stroke: #A80036; stroke-width: 1.0;" x1="132" x2="174" y1="549.1563" y2="549.1563"/><line style="stroke: #A80036; stroke-width: 1.0;" x1="174" x2="174" y1="549.1563" y2="562.1563"/><line style="stroke: #A80036; stroke-width: 1.0;" x1="133" x2="174" y1="562.1563" y2="562.1563"/><polygon fill="#A80036" points="143,558.1563,133,562.1563,143,566.1563,139,562.1563" style="stroke: #A80036; stroke-width: 1.0;"/><text fill="#000000" font-family="sans-serif" font-size="13" lengthAdjust="spacingAndGlyphs" textLength="87" x="139" y="544.0903">sanityCheck()</text><polygon fill="#A80036" points="635,587.2891,645,591.2891,635,595.2891,639,591.2891" style="stroke: #A80036; stroke-width: 1.0;"/><line style="stroke: #A80036; stroke-width: 1.0;" x1="132" x2="641" y1="591.2891" y2="591.2891"/><text fill="#000000" font-family="sans-serif" font-size="13" lengthAdjust="spacingAndGlyphs" textLength="120" x="139" y="586.2231">onExecutionStart()</text><polygon fill="#A80036" points="788,616.4219,798,620.4219,788,624.4219,792,620.4219" style="stroke: #A80036; stroke-width: 1.0;"/><line style="stroke: #A80036; stroke-width: 1.0;" x1="132" x2="794" y1="620.4219" y2="620.4219"/><text fill="#000000" font-family="sans-serif" font-size="13" lengthAdjust="spacingAndGlyphs" textLength="39" x="139" y="615.356">alter()</text><line style="stroke: #A80036; stroke-width: 1.0;" x1="132" x2="174" y1="649.5547" y2="649.5547"/><line style="stroke: #A80036; stroke-width: 1.0;" x1="174" x2="174" y1="649.5547" y2="662.5547"/><line style="stroke: #A80036; stroke-width: 1.0;" x1="133" x2="174" y1="662.5547" y2="662.5547"/><polygon fill="#A80036" points="143,658.5547,133,662.5547,143,666.5547,139,662.5547" style="stroke: #A80036; stroke-width: 1.0;"/><text fill="#000000" font-family="sans-serif" font-size="13" lengthAdjust="spacingAndGlyphs" textLength="71" x="139" y="644.4888">runSuites()</text><path d="M222,634.9219 L222,659.9219 L321,659.9219 L321,644.9219 L311,634.9219 L222,634.9219 " fill="#FBFB77" filter="url(#fts5suzh0o5fd)" style="stroke: #A80036; stroke-width: 1.0;"/><path d="M311,634.9219 L311,644.9219 L321,644.9219 L311,634.9219 " fill="#FBFB77" style="stroke: #A80036; stroke-width: 1.0;"/><text fill="#000000" font-family="sans-serif" font-size="13" lengthAdjust="spacingAndGlyphs" textLength="78" x="228" y="651.9888">框架执行细节</text><line style="stroke: #A80036; stroke-width: 1.0;" x1="132" x2="174" y1="691.6875" y2="691.6875"/><line style="stroke: #A80036; stroke-width: 1.0;" x1="174" x2="174" y1="691.6875" y2="704.6875"/><line style="stroke: #A80036; stroke-width: 1.0;" x1="133" x2="174" y1="704.6875" y2="704.6875"/><polygon fill="#A80036" points="143,700.6875,133,704.6875,143,708.6875,139,704.6875" style="stroke: #A80036; stroke-width: 1.0;"/><text fill="#000000" font-family="sans-serif" font-size="13" lengthAdjust="spacingAndGlyphs" textLength="117" x="139" y="686.6216">generateReports()</text><polygon fill="#A80036" points="635,729.8203,645,733.8203,635,737.8203,639,733.8203" style="stroke: #A80036; stroke-width: 1.0;"/><line style="stroke: #A80036; stroke-width: 1.0;" x1="132" x2="641" y1="733.8203" y2="733.8203"/><text fill="#000000" font-family="sans-serif" font-size="13" lengthAdjust="spacingAndGlyphs" textLength="124" x="139" y="728.7544">onExecutionFinish()</text><polygon fill="#A80036" points="44,765.9531,34,769.9531,44,773.9531,40,769.9531" style="stroke: #A80036; stroke-width: 1.0;"/><line style="stroke: #A80036; stroke-width: 1.0; stroke-dasharray: 2.0,2.0;" x1="38" x2="126" y1="769.9531" y2="769.9531"/><text fill="#000000" font-family="sans-serif" font-size="13" lengthAdjust="spacingAndGlyphs" textLength="26" x="50" y="764.8872">void</text></g></svg>