<?xml version="1.0" encoding="UTF-8" standalone="no"?><svg xmlns="http://www.w3.org/2000/svg" xmlns:xlink="http://www.w3.org/1999/xlink" contentScriptType="application/ecmascript" contentStyleType="text/css" height="924px" preserveAspectRatio="none" style="width:1281px;height:924px;" version="1.1" viewBox="0 0 1281 924" width="1281px" zoomAndPan="magnify"><defs><filter height="300%" id="fz0je8v3pfaej" width="300%" x="-1" y="-1"><feGaussianBlur result="blurOut" stdDeviation="2.0"/><feColorMatrix in="blurOut" result="blurOut2" type="matrix" values="0 0 0 0 0 0 0 0 0 0 0 0 0 0 0 0 0 0 .4 0"/><feOffset dx="4.0" dy="4.0" in="blurOut2" result="blurOut3"/><feBlend in="SourceGraphic" in2="blurOut3" mode="normal"/></filter></defs><g><rect fill="#FFFFFF" filter="url(#fz0je8v3pfaej)" height="789.0547" style="stroke: #A80036; stroke-width: 1.0;" width="10" x="102" y="69.4297"/><rect fill="#FFFFFF" filter="url(#fz0je8v3pfaej)" height="688.6563" style="stroke: #A80036; stroke-width: 1.0;" width="10" x="331" y="140.6953"/><rect fill="#FFFFFF" filter="url(#fz0je8v3pfaej)" height="630.3906" style="stroke: #A80036; stroke-width: 1.0;" width="10" x="469.5" y="169.8281"/><rect fill="#FFFFFF" filter="url(#fz0je8v3pfaej)" height="387.4609" style="stroke: #A80036; stroke-width: 1.0;" width="10" x="790" y="270.2266"/><rect fill="#FFFFFF" filter="url(#fz0je8v3pfaej)" height="201.7969" style="stroke: #000000; stroke-width: 2.0;" width="527.5" x="735" y="356.4922"/><line style="stroke: #A80036; stroke-width: 1.0; stroke-dasharray: 5.0,5.0;" x1="107" x2="107" y1="38.2969" y2="876.4844"/><line style="stroke: #A80036; stroke-width: 1.0; stroke-dasharray: 5.0,5.0;" x1="335.5" x2="335.5" y1="38.2969" y2="876.4844"/><line style="stroke: #A80036; stroke-width: 1.0; stroke-dasharray: 5.0,5.0;" x1="474.5" x2="474.5" y1="38.2969" y2="876.4844"/><line style="stroke: #A80036; stroke-width: 1.0; stroke-dasharray: 5.0,5.0;" x1="679" x2="679" y1="38.2969" y2="876.4844"/><line style="stroke: #A80036; stroke-width: 1.0; stroke-dasharray: 5.0,5.0;" x1="795" x2="795" y1="38.2969" y2="876.4844"/><line style="stroke: #A80036; stroke-width: 1.0; stroke-dasharray: 5.0,5.0;" x1="986.5" x2="986.5" y1="38.2969" y2="876.4844"/><line style="stroke: #A80036; stroke-width: 1.0; stroke-dasharray: 5.0,5.0;" x1="1111.5" x2="1111.5" y1="38.2969" y2="876.4844"/><line style="stroke: #A80036; stroke-width: 1.0; stroke-dasharray: 5.0,5.0;" x1="1217.5" x2="1217.5" y1="38.2969" y2="876.4844"/><rect fill="#FEFECE" filter="url(#fz0je8v3pfaej)" height="30.2969" style="stroke: #A80036; stroke-width: 1.5;" width="66" x="72" y="3"/><text fill="#000000" font-family="sans-serif" font-size="14" lengthAdjust="spacingAndGlyphs" textLength="52" x="79" y="22.9951">TestNG</text><rect fill="#FEFECE" filter="url(#fz0je8v3pfaej)" height="30.2969" style="stroke: #A80036; stroke-width: 1.5;" width="66" x="72" y="875.4844"/><text fill="#000000" font-family="sans-serif" font-size="14" lengthAdjust="spacingAndGlyphs" textLength="52" x="79" y="895.4795">TestNG</text><rect fill="#FEFECE" filter="url(#fz0je8v3pfaej)" height="30.2969" style="stroke: #A80036; stroke-width: 1.5;" width="149" x="259.5" y="3"/><text fill="#000000" font-family="sans-serif" font-size="14" lengthAdjust="spacingAndGlyphs" textLength="135" x="266.5" y="22.9951">SuiteRunnerWorker</text><rect fill="#FEFECE" filter="url(#fz0je8v3pfaej)" height="30.2969" style="stroke: #A80036; stroke-width: 1.5;" width="149" x="259.5" y="875.4844"/><text fill="#000000" font-family="sans-serif" font-size="14" lengthAdjust="spacingAndGlyphs" textLength="135" x="266.5" y="895.4795">SuiteRunnerWorker</text><rect fill="#FEFECE" filter="url(#fz0je8v3pfaej)" height="30.2969" style="stroke: #A80036; stroke-width: 1.5;" width="100" x="422.5" y="3"/><text fill="#000000" font-family="sans-serif" font-size="14" lengthAdjust="spacingAndGlyphs" textLength="86" x="429.5" y="22.9951">SuiteRunner</text><rect fill="#FEFECE" filter="url(#fz0je8v3pfaej)" height="30.2969" style="stroke: #A80036; stroke-width: 1.5;" width="100" x="422.5" y="875.4844"/><text fill="#000000" font-family="sans-serif" font-size="14" lengthAdjust="spacingAndGlyphs" textLength="86" x="429.5" y="895.4795">SuiteRunner</text><rect fill="#FEFECE" filter="url(#fz0je8v3pfaej)" height="30.2969" style="stroke: #A80036; stroke-width: 1.5;" width="107" x="624" y="3"/><text fill="#000000" font-family="sans-serif" font-size="14" lengthAdjust="spacingAndGlyphs" textLength="93" x="631" y="22.9951">ISuiteListener</text><rect fill="#FEFECE" filter="url(#fz0je8v3pfaej)" height="30.2969" style="stroke: #A80036; stroke-width: 1.5;" width="107" x="624" y="875.4844"/><text fill="#000000" font-family="sans-serif" font-size="14" lengthAdjust="spacingAndGlyphs" textLength="93" x="631" y="895.4795">ISuiteListener</text><rect fill="#FEFECE" filter="url(#fz0je8v3pfaej)" height="30.2969" style="stroke: #A80036; stroke-width: 1.5;" width="96" x="745" y="3"/><text fill="#000000" font-family="sans-serif" font-size="14" lengthAdjust="spacingAndGlyphs" textLength="82" x="752" y="22.9951">TestRunner</text><rect fill="#FEFECE" filter="url(#fz0je8v3pfaej)" height="30.2969" style="stroke: #A80036; stroke-width: 1.5;" width="96" x="745" y="875.4844"/><text fill="#000000" font-family="sans-serif" font-size="14" lengthAdjust="spacingAndGlyphs" textLength="82" x="752" y="895.4795">TestRunner</text><rect fill="#FEFECE" filter="url(#fz0je8v3pfaej)" height="30.2969" style="stroke: #A80036; stroke-width: 1.5;" width="103" x="933.5" y="3"/><text fill="#000000" font-family="sans-serif" font-size="14" lengthAdjust="spacingAndGlyphs" textLength="89" x="940.5" y="22.9951">ITestListener</text><rect fill="#FEFECE" filter="url(#fz0je8v3pfaej)" height="30.2969" style="stroke: #A80036; stroke-width: 1.5;" width="103" x="933.5" y="875.4844"/><text fill="#000000" font-family="sans-serif" font-size="14" lengthAdjust="spacingAndGlyphs" textLength="89" x="940.5" y="895.4795">ITestListener</text><rect fill="#FEFECE" filter="url(#fz0je8v3pfaej)" height="30.2969" style="stroke: #A80036; stroke-width: 1.5;" width="118" x="1050.5" y="3"/><text fill="#000000" font-family="sans-serif" font-size="14" lengthAdjust="spacingAndGlyphs" textLength="104" x="1057.5" y="22.9951">IDynamicGraph</text><rect fill="#FEFECE" filter="url(#fz0je8v3pfaej)" height="30.2969" style="stroke: #A80036; stroke-width: 1.5;" width="118" x="1050.5" y="875.4844"/><text fill="#000000" font-family="sans-serif" font-size="14" lengthAdjust="spacingAndGlyphs" textLength="104" x="1057.5" y="895.4795">IDynamicGraph</text><rect fill="#FEFECE" filter="url(#fz0je8v3pfaej)" height="30.2969" style="stroke: #A80036; stroke-width: 1.5;" width="66" x="1182.5" y="3"/><text fill="#000000" font-family="sans-serif" font-size="14" lengthAdjust="spacingAndGlyphs" textLength="52" x="1189.5" y="22.9951">IWorker</text><rect fill="#FEFECE" filter="url(#fz0je8v3pfaej)" height="30.2969" style="stroke: #A80036; stroke-width: 1.5;" width="66" x="1182.5" y="875.4844"/><text fill="#000000" font-family="sans-serif" font-size="14" lengthAdjust="spacingAndGlyphs" textLength="52" x="1189.5" y="895.4795">IWorker</text><rect fill="#FFFFFF" filter="url(#fz0je8v3pfaej)" height="789.0547" style="stroke: #A80036; stroke-width: 1.0;" width="10" x="102" y="69.4297"/><rect fill="#FFFFFF" filter="url(#fz0je8v3pfaej)" height="688.6563" style="stroke: #A80036; stroke-width: 1.0;" width="10" x="331" y="140.6953"/><rect fill="#FFFFFF" filter="url(#fz0je8v3pfaej)" height="630.3906" style="stroke: #A80036; stroke-width: 1.0;" width="10" x="469.5" y="169.8281"/><rect fill="#FFFFFF" filter="url(#fz0je8v3pfaej)" height="387.4609" style="stroke: #A80036; stroke-width: 1.0;" width="10" x="790" y="270.2266"/><polygon fill="#A80036" points="90,65.4297,100,69.4297,90,73.4297,94,69.4297" style="stroke: #A80036; stroke-width: 1.0;"/><line style="stroke: #A80036; stroke-width: 1.0;" x1="3" x2="96" y1="69.4297" y2="69.4297"/><text fill="#000000" font-family="sans-serif" font-size="13" lengthAdjust="spacingAndGlyphs" textLength="71" x="10" y="64.3638">runSuites()</text><line style="stroke: #A80036; stroke-width: 1.0;" x1="112" x2="154" y1="98.5625" y2="98.5625"/><line style="stroke: #A80036; stroke-width: 1.0;" x1="154" x2="154" y1="98.5625" y2="111.5625"/><line style="stroke: #A80036; stroke-width: 1.0;" x1="113" x2="154" y1="111.5625" y2="111.5625"/><polygon fill="#A80036" points="123,107.5625,113,111.5625,123,115.5625,119,111.5625" style="stroke: #A80036; stroke-width: 1.0;"/><text fill="#000000" font-family="sans-serif" font-size="13" lengthAdjust="spacingAndGlyphs" textLength="205" x="119" y="93.4966">createSuiteRunnerAndWorkers()</text><polygon fill="#A80036" points="319,136.6953,329,140.6953,319,144.6953,323,140.6953" style="stroke: #A80036; stroke-width: 1.0;"/><line style="stroke: #A80036; stroke-width: 1.0;" x1="112" x2="325" y1="140.6953" y2="140.6953"/><text fill="#000000" font-family="sans-serif" font-size="13" lengthAdjust="spacingAndGlyphs" textLength="31" x="119" y="135.6294">run()</text><polygon fill="#A80036" points="457.5,165.8281,467.5,169.8281,457.5,173.8281,461.5,169.8281" style="stroke: #A80036; stroke-width: 1.0;"/><line style="stroke: #A80036; stroke-width: 1.0;" x1="341" x2="463.5" y1="169.8281" y2="169.8281"/><text fill="#000000" font-family="sans-serif" font-size="13" lengthAdjust="spacingAndGlyphs" textLength="31" x="348" y="164.7622">run()</text><polygon fill="#A80036" points="667.5,194.9609,677.5,198.9609,667.5,202.9609,671.5,198.9609" style="stroke: #A80036; stroke-width: 1.0;"/><line style="stroke: #A80036; stroke-width: 1.0;" x1="479.5" x2="673.5" y1="198.9609" y2="198.9609"/><text fill="#000000" font-family="sans-serif" font-size="13" lengthAdjust="spacingAndGlyphs" textLength="58" x="486.5" y="193.895">onStart()</text><line style="stroke: #A80036; stroke-width: 1.0;" x1="479.5" x2="521.5" y1="228.0938" y2="228.0938"/><line style="stroke: #A80036; stroke-width: 1.0;" x1="521.5" x2="521.5" y1="228.0938" y2="241.0938"/><line style="stroke: #A80036; stroke-width: 1.0;" x1="480.5" x2="521.5" y1="241.0938" y2="241.0938"/><polygon fill="#A80036" points="490.5,237.0938,480.5,241.0938,490.5,245.0938,486.5,241.0938" style="stroke: #A80036; stroke-width: 1.0;"/><text fill="#000000" font-family="sans-serif" font-size="13" lengthAdjust="spacingAndGlyphs" textLength="181" x="486.5" y="223.0278">invokeBeforeSuiteMethods()</text><polygon fill="#A80036" points="778,266.2266,788,270.2266,778,274.2266,782,270.2266" style="stroke: #A80036; stroke-width: 1.0;"/><line style="stroke: #A80036; stroke-width: 1.0;" x1="479.5" x2="784" y1="270.2266" y2="270.2266"/><text fill="#000000" font-family="sans-serif" font-size="13" lengthAdjust="spacingAndGlyphs" textLength="31" x="486.5" y="265.1606">run()</text><polygon fill="#A80036" points="975,295.3594,985,299.3594,975,303.3594,979,299.3594" style="stroke: #A80036; stroke-width: 1.0;"/><line style="stroke: #A80036; stroke-width: 1.0;" x1="800" x2="981" y1="299.3594" y2="299.3594"/><text fill="#000000" font-family="sans-serif" font-size="13" lengthAdjust="spacingAndGlyphs" textLength="58" x="807" y="294.2935">onStart()</text><line style="stroke: #A80036; stroke-width: 1.0;" x1="800" x2="842" y1="328.4922" y2="328.4922"/><line style="stroke: #A80036; stroke-width: 1.0;" x1="842" x2="842" y1="328.4922" y2="341.4922"/><line style="stroke: #A80036; stroke-width: 1.0;" x1="801" x2="842" y1="341.4922" y2="341.4922"/><polygon fill="#A80036" points="811,337.4922,801,341.4922,811,345.4922,807,341.4922" style="stroke: #A80036; stroke-width: 1.0;"/><text fill="#000000" font-family="sans-serif" font-size="13" lengthAdjust="spacingAndGlyphs" textLength="168" x="807" y="323.4263">invokeBeforeTestMethod()</text><path d="M735,356.4922 L960,356.4922 L960,363.4922 L950,373.4922 L735,373.4922 L735,356.4922 " fill="#EEEEEE" style="stroke: #000000; stroke-width: 1.0;"/><rect fill="none" height="201.7969" style="stroke: #000000; stroke-width: 2.0;" width="527.5" x="735" y="356.4922"/><text fill="#000000" font-family="sans-serif" font-size="13" font-weight="bold" lengthAdjust="spacingAndGlyphs" textLength="180" x="750" y="369.5591">TestRunner.privateRun()</text><line style="stroke: #A80036; stroke-width: 1.0;" x1="800" x2="842" y1="394.7578" y2="394.7578"/><line style="stroke: #A80036; stroke-width: 1.0;" x1="842" x2="842" y1="394.7578" y2="407.7578"/><line style="stroke: #A80036; stroke-width: 1.0;" x1="801" x2="842" y1="407.7578" y2="407.7578"/><polygon fill="#A80036" points="811,403.7578,801,407.7578,811,411.7578,807,407.7578" style="stroke: #A80036; stroke-width: 1.0;"/><text fill="#000000" font-family="sans-serif" font-size="13" lengthAdjust="spacingAndGlyphs" textLength="67" x="807" y="389.6919">intercept()</text><path d="M886,380.125 L886,405.125 L1076,405.125 L1076,390.125 L1066,380.125 L886,380.125 " fill="#FBFB77" filter="url(#fz0je8v3pfaej)" style="stroke: #A80036; stroke-width: 1.0;"/><path d="M1066,380.125 L1066,390.125 L1076,390.125 L1066,380.125 " fill="#FBFB77" style="stroke: #A80036; stroke-width: 1.0;"/><text fill="#000000" font-family="sans-serif" font-size="13" lengthAdjust="spacingAndGlyphs" textLength="169" x="892" y="397.1919">对被测方法集合执行拦截处理</text><line style="stroke: #A80036; stroke-width: 1.0;" x1="800" x2="842" y1="436.8906" y2="436.8906"/><line style="stroke: #A80036; stroke-width: 1.0;" x1="842" x2="842" y1="436.8906" y2="449.8906"/><line style="stroke: #A80036; stroke-width: 1.0;" x1="801" x2="842" y1="449.8906" y2="449.8906"/><polygon fill="#A80036" points="811,445.8906,801,449.8906,811,453.8906,807,449.8906" style="stroke: #A80036; stroke-width: 1.0;"/><text fill="#000000" font-family="sans-serif" font-size="13" lengthAdjust="spacingAndGlyphs" textLength="163" x="807" y="431.8247">generateDynamicGraph()</text><path d="M982,422.2578 L982,447.2578 L1198,447.2578 L1198,432.2578 L1188,422.2578 L982,422.2578 " fill="#FBFB77" filter="url(#fz0je8v3pfaej)" style="stroke: #A80036; stroke-width: 1.0;"/><path d="M1188,422.2578 L1188,432.2578 L1198,432.2578 L1188,422.2578 " fill="#FBFB77" style="stroke: #A80036; stroke-width: 1.0;"/><text fill="#000000" font-family="sans-serif" font-size="13" lengthAdjust="spacingAndGlyphs" textLength="195" x="988" y="439.3247">构建图的数据结构去执行被测方法</text><polygon fill="#A80036" points="1099.5,475.0234,1109.5,479.0234,1099.5,483.0234,1103.5,479.0234" style="stroke: #A80036; stroke-width: 1.0;"/><line style="stroke: #A80036; stroke-width: 1.0;" x1="800" x2="1105.5" y1="479.0234" y2="479.0234"/><text fill="#000000" font-family="sans-serif" font-size="13" lengthAdjust="spacingAndGlyphs" textLength="220" x="807" y="473.9575">getFreeNodes&lt;ITestNGMethod&gt;()</text><line style="stroke: #A80036; stroke-width: 1.0;" x1="800" x2="842" y1="508.1563" y2="508.1563"/><line style="stroke: #A80036; stroke-width: 1.0;" x1="842" x2="842" y1="508.1563" y2="521.1563"/><line style="stroke: #A80036; stroke-width: 1.0;" x1="801" x2="842" y1="521.1563" y2="521.1563"/><polygon fill="#A80036" points="811,517.1563,801,521.1563,811,525.1563,807,521.1563" style="stroke: #A80036; stroke-width: 1.0;"/><text fill="#000000" font-family="sans-serif" font-size="13" lengthAdjust="spacingAndGlyphs" textLength="102" x="807" y="503.0903">createWorkers()</text><polygon fill="#A80036" points="1205.5,546.2891,1215.5,550.2891,1205.5,554.2891,1209.5,550.2891" style="stroke: #A80036; stroke-width: 1.0;"/><line style="stroke: #A80036; stroke-width: 1.0;" x1="800" x2="1211.5" y1="550.2891" y2="550.2891"/><text fill="#000000" font-family="sans-serif" font-size="13" lengthAdjust="spacingAndGlyphs" textLength="31" x="807" y="545.2231">run()</text><line style="stroke: #A80036; stroke-width: 1.0;" x1="800" x2="842" y1="586.4219" y2="586.4219"/><line style="stroke: #A80036; stroke-width: 1.0;" x1="842" x2="842" y1="586.4219" y2="599.4219"/><line style="stroke: #A80036; stroke-width: 1.0;" x1="801" x2="842" y1="599.4219" y2="599.4219"/><polygon fill="#A80036" points="811,595.4219,801,599.4219,811,603.4219,807,599.4219" style="stroke: #A80036; stroke-width: 1.0;"/><text fill="#000000" font-family="sans-serif" font-size="13" lengthAdjust="spacingAndGlyphs" textLength="157" x="807" y="581.356">invokeAfterTestMethod()</text><polygon fill="#A80036" points="975,624.5547,985,628.5547,975,632.5547,979,628.5547" style="stroke: #A80036; stroke-width: 1.0;"/><line style="stroke: #A80036; stroke-width: 1.0;" x1="800" x2="981" y1="628.5547" y2="628.5547"/><text fill="#000000" font-family="sans-serif" font-size="13" lengthAdjust="spacingAndGlyphs" textLength="62" x="807" y="623.4888">onFinish()</text><polygon fill="#A80036" points="490.5,653.6875,480.5,657.6875,490.5,661.6875,486.5,657.6875" style="stroke: #A80036; stroke-width: 1.0;"/><line style="stroke: #A80036; stroke-width: 1.0; stroke-dasharray: 2.0,2.0;" x1="484.5" x2="794" y1="657.6875" y2="657.6875"/><text fill="#000000" font-family="sans-serif" font-size="13" lengthAdjust="spacingAndGlyphs" textLength="26" x="496.5" y="652.6216">void</text><line style="stroke: #A80036; stroke-width: 1.0;" x1="479.5" x2="521.5" y1="686.8203" y2="686.8203"/><line style="stroke: #A80036; stroke-width: 1.0;" x1="521.5" x2="521.5" y1="686.8203" y2="699.8203"/><line style="stroke: #A80036; stroke-width: 1.0;" x1="480.5" x2="521.5" y1="699.8203" y2="699.8203"/><polygon fill="#A80036" points="490.5,695.8203,480.5,699.8203,490.5,703.8203,486.5,699.8203" style="stroke: #A80036; stroke-width: 1.0;"/><text fill="#000000" font-family="sans-serif" font-size="13" lengthAdjust="spacingAndGlyphs" textLength="107" x="486.5" y="681.7544">generateResult()</text><line style="stroke: #A80036; stroke-width: 1.0;" x1="479.5" x2="521.5" y1="728.9531" y2="728.9531"/><line style="stroke: #A80036; stroke-width: 1.0;" x1="521.5" x2="521.5" y1="728.9531" y2="741.9531"/><line style="stroke: #A80036; stroke-width: 1.0;" x1="480.5" x2="521.5" y1="741.9531" y2="741.9531"/><polygon fill="#A80036" points="490.5,737.9531,480.5,741.9531,490.5,745.9531,486.5,741.9531" style="stroke: #A80036; stroke-width: 1.0;"/><text fill="#000000" font-family="sans-serif" font-size="13" lengthAdjust="spacingAndGlyphs" textLength="170" x="486.5" y="723.8872">invokeAfterSuiteMethods()</text><polygon fill="#A80036" points="667.5,767.0859,677.5,771.0859,667.5,775.0859,671.5,771.0859" style="stroke: #A80036; stroke-width: 1.0;"/><line style="stroke: #A80036; stroke-width: 1.0;" x1="479.5" x2="673.5" y1="771.0859" y2="771.0859"/><text fill="#000000" font-family="sans-serif" font-size="13" lengthAdjust="spacingAndGlyphs" textLength="62" x="486.5" y="766.02">onFinish()</text><polygon fill="#A80036" points="352,796.2188,342,800.2188,352,804.2188,348,800.2188" style="stroke: #A80036; stroke-width: 1.0;"/><line style="stroke: #A80036; stroke-width: 1.0; stroke-dasharray: 2.0,2.0;" x1="346" x2="473.5" y1="800.2188" y2="800.2188"/><text fill="#000000" font-family="sans-serif" font-size="13" lengthAdjust="spacingAndGlyphs" textLength="26" x="358" y="795.1528">void</text><polygon fill="#A80036" points="123,825.3516,113,829.3516,123,833.3516,119,829.3516" style="stroke: #A80036; stroke-width: 1.0;"/><line style="stroke: #A80036; stroke-width: 1.0; stroke-dasharray: 2.0,2.0;" x1="117" x2="335" y1="829.3516" y2="829.3516"/><text fill="#000000" font-family="sans-serif" font-size="13" lengthAdjust="spacingAndGlyphs" textLength="26" x="129" y="824.2856">void</text><polygon fill="#A80036" points="14,854.4844,4,858.4844,14,862.4844,10,858.4844" style="stroke: #A80036; stroke-width: 1.0;"/><line style="stroke: #A80036; stroke-width: 1.0; stroke-dasharray: 2.0,2.0;" x1="8" x2="106" y1="858.4844" y2="858.4844"/><text fill="#000000" font-family="sans-serif" font-size="13" lengthAdjust="spacingAndGlyphs" textLength="80" x="20" y="853.4185">List&lt;ISuite&gt;</text></g></svg>