<?xml version="1.0" encoding="UTF-8" standalone="no"?><svg xmlns="http://www.w3.org/2000/svg" xmlns:xlink="http://www.w3.org/1999/xlink" contentScriptType="application/ecmascript" contentStyleType="text/css" height="968px" preserveAspectRatio="none" style="width:1171px;height:968px;" version="1.1" viewBox="0 0 1171 968" width="1171px" zoomAndPan="magnify"><defs><filter height="300%" id="f67xr2fi6ksoi" width="300%" x="-1" y="-1"><feGaussianBlur result="blurOut" stdDeviation="2.0"/><feColorMatrix in="blurOut" result="blurOut2" type="matrix" values="0 0 0 0 0 0 0 0 0 0 0 0 0 0 0 0 0 0 .4 0"/><feOffset dx="4.0" dy="4.0" in="blurOut2" result="blurOut3"/><feBlend in="SourceGraphic" in2="blurOut3" mode="normal"/></filter></defs><g><rect fill="#FFFFFF" filter="url(#f67xr2fi6ksoi)" height="833.1875" style="stroke: #A80036; stroke-width: 1.0;" width="10" x="136" y="69.4297"/><rect fill="#FFFFFF" filter="url(#f67xr2fi6ksoi)" height="57.1328" style="stroke: #A80036; stroke-width: 1.0;" width="10" x="294" y="98.5625"/><rect fill="#FFFFFF" filter="url(#f67xr2fi6ksoi)" height="601.2578" style="stroke: #A80036; stroke-width: 1.0;" width="10" x="294" y="243.0938"/><rect fill="#FFFFFF" filter="url(#f67xr2fi6ksoi)" height="14" style="stroke: #A80036; stroke-width: 1.0;" width="10" x="499" y="127.6953"/><rect fill="#FFFFFF" filter="url(#f67xr2fi6ksoi)" height="358.3281" style="stroke: #A80036; stroke-width: 1.0;" width="10" x="499" y="343.4922"/><rect fill="#FFFFFF" filter="url(#f67xr2fi6ksoi)" height="688.6563" style="stroke: #A80036; stroke-width: 1.0;" width="10" x="691" y="184.8281"/><rect fill="#FFFFFF" filter="url(#f67xr2fi6ksoi)" height="172.6641" style="stroke: #000000; stroke-width: 2.0;" width="708.5" x="444" y="429.7578"/><line style="stroke: #A80036; stroke-width: 1.0; stroke-dasharray: 5.0,5.0;" x1="141" x2="141" y1="38.2969" y2="920.6172"/><line style="stroke: #A80036; stroke-width: 1.0; stroke-dasharray: 5.0,5.0;" x1="299" x2="299" y1="38.2969" y2="920.6172"/><line style="stroke: #A80036; stroke-width: 1.0; stroke-dasharray: 5.0,5.0;" x1="504" x2="504" y1="38.2969" y2="920.6172"/><line style="stroke: #A80036; stroke-width: 1.0; stroke-dasharray: 5.0,5.0;" x1="695.5" x2="695.5" y1="38.2969" y2="920.6172"/><line style="stroke: #A80036; stroke-width: 1.0; stroke-dasharray: 5.0,5.0;" x1="837.5" x2="837.5" y1="38.2969" y2="920.6172"/><line style="stroke: #A80036; stroke-width: 1.0; stroke-dasharray: 5.0,5.0;" x1="956.5" x2="956.5" y1="38.2969" y2="920.6172"/><line style="stroke: #A80036; stroke-width: 1.0; stroke-dasharray: 5.0,5.0;" x1="1081.5" x2="1081.5" y1="38.2969" y2="920.6172"/><rect fill="#FEFECE" filter="url(#f67xr2fi6ksoi)" height="30.2969" style="stroke: #A80036; stroke-width: 1.5;" width="66" x="106" y="3"/><text fill="#000000" font-family="sans-serif" font-size="14" lengthAdjust="spacingAndGlyphs" textLength="52" x="113" y="22.9951">TestNG</text><rect fill="#FEFECE" filter="url(#f67xr2fi6ksoi)" height="30.2969" style="stroke: #A80036; stroke-width: 1.5;" width="66" x="106" y="919.6172"/><text fill="#000000" font-family="sans-serif" font-size="14" lengthAdjust="spacingAndGlyphs" textLength="52" x="113" y="939.6123">TestNG</text><rect fill="#FEFECE" filter="url(#f67xr2fi6ksoi)" height="30.2969" style="stroke: #A80036; stroke-width: 1.5;" width="100" x="247" y="3"/><text fill="#000000" font-family="sans-serif" font-size="14" lengthAdjust="spacingAndGlyphs" textLength="86" x="254" y="22.9951">SuiteRunner</text><rect fill="#FEFECE" filter="url(#f67xr2fi6ksoi)" height="30.2969" style="stroke: #A80036; stroke-width: 1.5;" width="100" x="247" y="919.6172"/><text fill="#000000" font-family="sans-serif" font-size="14" lengthAdjust="spacingAndGlyphs" textLength="86" x="254" y="939.6123">SuiteRunner</text><rect fill="#FEFECE" filter="url(#f67xr2fi6ksoi)" height="30.2969" style="stroke: #A80036; stroke-width: 1.5;" width="96" x="454" y="3"/><text fill="#000000" font-family="sans-serif" font-size="14" lengthAdjust="spacingAndGlyphs" textLength="82" x="461" y="22.9951">TestRunner</text><rect fill="#FEFECE" filter="url(#f67xr2fi6ksoi)" height="30.2969" style="stroke: #A80036; stroke-width: 1.5;" width="96" x="454" y="919.6172"/><text fill="#000000" font-family="sans-serif" font-size="14" lengthAdjust="spacingAndGlyphs" textLength="82" x="461" y="939.6123">TestRunner</text><rect fill="#FEFECE" filter="url(#f67xr2fi6ksoi)" height="30.2969" style="stroke: #A80036; stroke-width: 1.5;" width="149" x="619.5" y="3"/><text fill="#000000" font-family="sans-serif" font-size="14" lengthAdjust="spacingAndGlyphs" textLength="135" x="626.5" y="22.9951">SuiteRunnerWorker</text><rect fill="#FEFECE" filter="url(#f67xr2fi6ksoi)" height="30.2969" style="stroke: #A80036; stroke-width: 1.5;" width="149" x="619.5" y="919.6172"/><text fill="#000000" font-family="sans-serif" font-size="14" lengthAdjust="spacingAndGlyphs" textLength="135" x="626.5" y="939.6123">SuiteRunnerWorker</text><rect fill="#FEFECE" filter="url(#f67xr2fi6ksoi)" height="30.2969" style="stroke: #A80036; stroke-width: 1.5;" width="107" x="782.5" y="3"/><text fill="#000000" font-family="sans-serif" font-size="14" lengthAdjust="spacingAndGlyphs" textLength="93" x="789.5" y="22.9951">ISuiteListener</text><rect fill="#FEFECE" filter="url(#f67xr2fi6ksoi)" height="30.2969" style="stroke: #A80036; stroke-width: 1.5;" width="107" x="782.5" y="919.6172"/><text fill="#000000" font-family="sans-serif" font-size="14" lengthAdjust="spacingAndGlyphs" textLength="93" x="789.5" y="939.6123">ISuiteListener</text><rect fill="#FEFECE" filter="url(#f67xr2fi6ksoi)" height="30.2969" style="stroke: #A80036; stroke-width: 1.5;" width="103" x="903.5" y="3"/><text fill="#000000" font-family="sans-serif" font-size="14" lengthAdjust="spacingAndGlyphs" textLength="89" x="910.5" y="22.9951">ITestListener</text><rect fill="#FEFECE" filter="url(#f67xr2fi6ksoi)" height="30.2969" style="stroke: #A80036; stroke-width: 1.5;" width="103" x="903.5" y="919.6172"/><text fill="#000000" font-family="sans-serif" font-size="14" lengthAdjust="spacingAndGlyphs" textLength="89" x="910.5" y="939.6123">ITestListener</text><rect fill="#FEFECE" filter="url(#f67xr2fi6ksoi)" height="30.2969" style="stroke: #A80036; stroke-width: 1.5;" width="118" x="1020.5" y="3"/><text fill="#000000" font-family="sans-serif" font-size="14" lengthAdjust="spacingAndGlyphs" textLength="104" x="1027.5" y="22.9951">IDynamicGraph</text><rect fill="#FEFECE" filter="url(#f67xr2fi6ksoi)" height="30.2969" style="stroke: #A80036; stroke-width: 1.5;" width="118" x="1020.5" y="919.6172"/><text fill="#000000" font-family="sans-serif" font-size="14" lengthAdjust="spacingAndGlyphs" textLength="104" x="1027.5" y="939.6123">IDynamicGraph</text><rect fill="#FFFFFF" filter="url(#f67xr2fi6ksoi)" height="833.1875" style="stroke: #A80036; stroke-width: 1.0;" width="10" x="136" y="69.4297"/><rect fill="#FFFFFF" filter="url(#f67xr2fi6ksoi)" height="57.1328" style="stroke: #A80036; stroke-width: 1.0;" width="10" x="294" y="98.5625"/><rect fill="#FFFFFF" filter="url(#f67xr2fi6ksoi)" height="601.2578" style="stroke: #A80036; stroke-width: 1.0;" width="10" x="294" y="243.0938"/><rect fill="#FFFFFF" filter="url(#f67xr2fi6ksoi)" height="14" style="stroke: #A80036; stroke-width: 1.0;" width="10" x="499" y="127.6953"/><rect fill="#FFFFFF" filter="url(#f67xr2fi6ksoi)" height="358.3281" style="stroke: #A80036; stroke-width: 1.0;" width="10" x="499" y="343.4922"/><rect fill="#FFFFFF" filter="url(#f67xr2fi6ksoi)" height="688.6563" style="stroke: #A80036; stroke-width: 1.0;" width="10" x="691" y="184.8281"/><polygon fill="#A80036" points="124,65.4297,134,69.4297,124,73.4297,128,69.4297" style="stroke: #A80036; stroke-width: 1.0;"/><line style="stroke: #A80036; stroke-width: 1.0;" x1="3" x2="130" y1="69.4297" y2="69.4297"/><text fill="#000000" font-family="sans-serif" font-size="13" lengthAdjust="spacingAndGlyphs" textLength="114" x="10" y="64.3638">runSuitesLocally()</text><polygon fill="#A80036" points="282,94.5625,292,98.5625,282,102.5625,286,98.5625" style="stroke: #A80036; stroke-width: 1.0;"/><line style="stroke: #A80036; stroke-width: 1.0;" x1="146" x2="288" y1="98.5625" y2="98.5625"/><text fill="#000000" font-family="sans-serif" font-size="13" lengthAdjust="spacingAndGlyphs" textLength="129" x="153" y="93.4966">createSuiteRunner()</text><polygon fill="#A80036" points="487,123.6953,497,127.6953,487,131.6953,491,127.6953" style="stroke: #A80036; stroke-width: 1.0;"/><line style="stroke: #A80036; stroke-width: 1.0;" x1="304" x2="493" y1="127.6953" y2="127.6953"/><text fill="#000000" font-family="sans-serif" font-size="13" lengthAdjust="spacingAndGlyphs" textLength="123" x="311" y="122.6294">createTestRunner()</text><polygon fill="#A80036" points="315,137.6953,305,141.6953,315,145.6953,311,141.6953" style="stroke: #A80036; stroke-width: 1.0;"/><line style="stroke: #A80036; stroke-width: 1.0; stroke-dasharray: 2.0,2.0;" x1="309" x2="503" y1="141.6953" y2="141.6953"/><polygon fill="#A80036" points="157,151.6953,147,155.6953,157,159.6953,153,155.6953" style="stroke: #A80036; stroke-width: 1.0;"/><line style="stroke: #A80036; stroke-width: 1.0; stroke-dasharray: 2.0,2.0;" x1="151" x2="298" y1="155.6953" y2="155.6953"/><polygon fill="#A80036" points="679,180.8281,689,184.8281,679,188.8281,683,184.8281" style="stroke: #A80036; stroke-width: 1.0;"/><line style="stroke: #A80036; stroke-width: 1.0;" x1="146" x2="685" y1="184.8281" y2="184.8281"/><text fill="#000000" font-family="sans-serif" font-size="13" lengthAdjust="spacingAndGlyphs" textLength="258" x="153" y="179.7622">createSuiteRunnerWorkers(SuiteRunner)</text><polygon fill="#A80036" points="679,209.9609,689,213.9609,679,217.9609,683,213.9609" style="stroke: #A80036; stroke-width: 1.0;"/><line style="stroke: #A80036; stroke-width: 1.0;" x1="146" x2="685" y1="213.9609" y2="213.9609"/><text fill="#000000" font-family="sans-serif" font-size="13" lengthAdjust="spacingAndGlyphs" textLength="31" x="153" y="208.895">run()</text><polygon fill="#A80036" points="315,239.0938,305,243.0938,315,247.0938,311,243.0938" style="stroke: #A80036; stroke-width: 1.0;"/><line style="stroke: #A80036; stroke-width: 1.0;" x1="309" x2="690" y1="243.0938" y2="243.0938"/><text fill="#000000" font-family="sans-serif" font-size="13" lengthAdjust="spacingAndGlyphs" textLength="31" x="321" y="238.0278">run()</text><polygon fill="#A80036" points="826,268.2266,836,272.2266,826,276.2266,830,272.2266" style="stroke: #A80036; stroke-width: 1.0;"/><line style="stroke: #A80036; stroke-width: 1.0;" x1="304" x2="832" y1="272.2266" y2="272.2266"/><text fill="#000000" font-family="sans-serif" font-size="13" lengthAdjust="spacingAndGlyphs" textLength="58" x="311" y="267.1606">onStart()</text><line style="stroke: #A80036; stroke-width: 1.0;" x1="304" x2="346" y1="301.3594" y2="301.3594"/><line style="stroke: #A80036; stroke-width: 1.0;" x1="346" x2="346" y1="301.3594" y2="314.3594"/><line style="stroke: #A80036; stroke-width: 1.0;" x1="305" x2="346" y1="314.3594" y2="314.3594"/><polygon fill="#A80036" points="315,310.3594,305,314.3594,315,318.3594,311,314.3594" style="stroke: #A80036; stroke-width: 1.0;"/><text fill="#000000" font-family="sans-serif" font-size="13" lengthAdjust="spacingAndGlyphs" textLength="181" x="311" y="296.2935">invokeBeforeSuiteMethods()</text><polygon fill="#A80036" points="487,339.4922,497,343.4922,487,347.4922,491,343.4922" style="stroke: #A80036; stroke-width: 1.0;"/><line style="stroke: #A80036; stroke-width: 1.0;" x1="304" x2="493" y1="343.4922" y2="343.4922"/><text fill="#000000" font-family="sans-serif" font-size="13" lengthAdjust="spacingAndGlyphs" textLength="31" x="311" y="338.4263">run()</text><polygon fill="#A80036" points="945,368.625,955,372.625,945,376.625,949,372.625" style="stroke: #A80036; stroke-width: 1.0;"/><line style="stroke: #A80036; stroke-width: 1.0;" x1="509" x2="951" y1="372.625" y2="372.625"/><text fill="#000000" font-family="sans-serif" font-size="13" lengthAdjust="spacingAndGlyphs" textLength="58" x="516" y="367.5591">onStart()</text><line style="stroke: #A80036; stroke-width: 1.0;" x1="509" x2="551" y1="401.7578" y2="401.7578"/><line style="stroke: #A80036; stroke-width: 1.0;" x1="551" x2="551" y1="401.7578" y2="414.7578"/><line style="stroke: #A80036; stroke-width: 1.0;" x1="510" x2="551" y1="414.7578" y2="414.7578"/><polygon fill="#A80036" points="520,410.7578,510,414.7578,520,418.7578,516,414.7578" style="stroke: #A80036; stroke-width: 1.0;"/><text fill="#000000" font-family="sans-serif" font-size="13" lengthAdjust="spacingAndGlyphs" textLength="168" x="516" y="396.6919">invokeBeforeTestMethod()</text><path d="M444,429.7578 L669,429.7578 L669,436.7578 L659,446.7578 L444,446.7578 L444,429.7578 " fill="#EEEEEE" style="stroke: #000000; stroke-width: 1.0;"/><rect fill="none" height="172.6641" style="stroke: #000000; stroke-width: 2.0;" width="708.5" x="444" y="429.7578"/><text fill="#000000" font-family="sans-serif" font-size="13" font-weight="bold" lengthAdjust="spacingAndGlyphs" textLength="180" x="459" y="442.8247">TestRunner.privateRun()</text><line style="stroke: #A80036; stroke-width: 1.0;" x1="509" x2="551" y1="468.0234" y2="468.0234"/><line style="stroke: #A80036; stroke-width: 1.0;" x1="551" x2="551" y1="468.0234" y2="481.0234"/><line style="stroke: #A80036; stroke-width: 1.0;" x1="510" x2="551" y1="481.0234" y2="481.0234"/><polygon fill="#A80036" points="520,477.0234,510,481.0234,520,485.0234,516,481.0234" style="stroke: #A80036; stroke-width: 1.0;"/><text fill="#000000" font-family="sans-serif" font-size="13" lengthAdjust="spacingAndGlyphs" textLength="67" x="516" y="462.9575">intercept()</text><path d="M595,453.3906 L595,478.3906 L785,478.3906 L785,463.3906 L775,453.3906 L595,453.3906 " fill="#FBFB77" filter="url(#f67xr2fi6ksoi)" style="stroke: #A80036; stroke-width: 1.0;"/><path d="M775,453.3906 L775,463.3906 L785,463.3906 L775,453.3906 " fill="#FBFB77" style="stroke: #A80036; stroke-width: 1.0;"/><text fill="#000000" font-family="sans-serif" font-size="13" lengthAdjust="spacingAndGlyphs" textLength="169" x="601" y="470.4575">对被测方法集合执行拦截处理</text><line style="stroke: #A80036; stroke-width: 1.0;" x1="509" x2="551" y1="510.1563" y2="510.1563"/><line style="stroke: #A80036; stroke-width: 1.0;" x1="551" x2="551" y1="510.1563" y2="523.1563"/><line style="stroke: #A80036; stroke-width: 1.0;" x1="510" x2="551" y1="523.1563" y2="523.1563"/><polygon fill="#A80036" points="520,519.1563,510,523.1563,520,527.1563,516,523.1563" style="stroke: #A80036; stroke-width: 1.0;"/><text fill="#000000" font-family="sans-serif" font-size="13" lengthAdjust="spacingAndGlyphs" textLength="163" x="516" y="505.0903">generateDynamicGraph()</text><path d="M691,495.5234 L691,520.5234 L907,520.5234 L907,505.5234 L897,495.5234 L691,495.5234 " fill="#FBFB77" filter="url(#f67xr2fi6ksoi)" style="stroke: #A80036; stroke-width: 1.0;"/><path d="M897,495.5234 L897,505.5234 L907,505.5234 L897,495.5234 " fill="#FBFB77" style="stroke: #A80036; stroke-width: 1.0;"/><text fill="#000000" font-family="sans-serif" font-size="13" lengthAdjust="spacingAndGlyphs" textLength="195" x="697" y="512.5903">对被测方法集合构建图的数据结构</text><polygon fill="#A80036" points="1069.5,548.2891,1079.5,552.2891,1069.5,556.2891,1073.5,552.2891" style="stroke: #A80036; stroke-width: 1.0;"/><line style="stroke: #A80036; stroke-width: 1.0;" x1="509" x2="1075.5" y1="552.2891" y2="552.2891"/><text fill="#000000" font-family="sans-serif" font-size="13" lengthAdjust="spacingAndGlyphs" textLength="220" x="516" y="547.2231">getFreeNodes&lt;ITestNGMethod&gt;()</text><line style="stroke: #A80036; stroke-width: 1.0;" x1="509" x2="551" y1="581.4219" y2="581.4219"/><line style="stroke: #A80036; stroke-width: 1.0;" x1="551" x2="551" y1="581.4219" y2="594.4219"/><line style="stroke: #A80036; stroke-width: 1.0;" x1="510" x2="551" y1="594.4219" y2="594.4219"/><polygon fill="#A80036" points="520,590.4219,510,594.4219,520,598.4219,516,594.4219" style="stroke: #A80036; stroke-width: 1.0;"/><text fill="#000000" font-family="sans-serif" font-size="13" lengthAdjust="spacingAndGlyphs" textLength="151" x="516" y="576.356">createWorkersAndRun()</text><path d="M679,566.7891 L679,591.7891 L778,591.7891 L778,576.7891 L768,566.7891 L679,566.7891 " fill="#FBFB77" filter="url(#f67xr2fi6ksoi)" style="stroke: #A80036; stroke-width: 1.0;"/><path d="M768,566.7891 L768,576.7891 L778,576.7891 L768,566.7891 " fill="#FBFB77" style="stroke: #A80036; stroke-width: 1.0;"/><text fill="#000000" font-family="sans-serif" font-size="13" lengthAdjust="spacingAndGlyphs" textLength="78" x="685" y="583.856">执行被测方法</text><line style="stroke: #A80036; stroke-width: 1.0;" x1="509" x2="551" y1="630.5547" y2="630.5547"/><line style="stroke: #A80036; stroke-width: 1.0;" x1="551" x2="551" y1="630.5547" y2="643.5547"/><line style="stroke: #A80036; stroke-width: 1.0;" x1="510" x2="551" y1="643.5547" y2="643.5547"/><polygon fill="#A80036" points="520,639.5547,510,643.5547,520,647.5547,516,643.5547" style="stroke: #A80036; stroke-width: 1.0;"/><text fill="#000000" font-family="sans-serif" font-size="13" lengthAdjust="spacingAndGlyphs" textLength="157" x="516" y="625.4888">invokeAfterTestMethod()</text><polygon fill="#A80036" points="945,668.6875,955,672.6875,945,676.6875,949,672.6875" style="stroke: #A80036; stroke-width: 1.0;"/><line style="stroke: #A80036; stroke-width: 1.0;" x1="509" x2="951" y1="672.6875" y2="672.6875"/><text fill="#000000" font-family="sans-serif" font-size="13" lengthAdjust="spacingAndGlyphs" textLength="62" x="516" y="667.6216">onFinish()</text><polygon fill="#A80036" points="315,697.8203,305,701.8203,315,705.8203,311,701.8203" style="stroke: #A80036; stroke-width: 1.0;"/><line style="stroke: #A80036; stroke-width: 1.0; stroke-dasharray: 2.0,2.0;" x1="309" x2="503" y1="701.8203" y2="701.8203"/><text fill="#000000" font-family="sans-serif" font-size="13" lengthAdjust="spacingAndGlyphs" textLength="26" x="321" y="696.7544">void</text><line style="stroke: #A80036; stroke-width: 1.0;" x1="304" x2="346" y1="730.9531" y2="730.9531"/><line style="stroke: #A80036; stroke-width: 1.0;" x1="346" x2="346" y1="730.9531" y2="743.9531"/><line style="stroke: #A80036; stroke-width: 1.0;" x1="305" x2="346" y1="743.9531" y2="743.9531"/><polygon fill="#A80036" points="315,739.9531,305,743.9531,315,747.9531,311,743.9531" style="stroke: #A80036; stroke-width: 1.0;"/><text fill="#000000" font-family="sans-serif" font-size="13" lengthAdjust="spacingAndGlyphs" textLength="107" x="311" y="725.8872">generateResult()</text><line style="stroke: #A80036; stroke-width: 1.0;" x1="304" x2="346" y1="773.0859" y2="773.0859"/><line style="stroke: #A80036; stroke-width: 1.0;" x1="346" x2="346" y1="773.0859" y2="786.0859"/><line style="stroke: #A80036; stroke-width: 1.0;" x1="305" x2="346" y1="786.0859" y2="786.0859"/><polygon fill="#A80036" points="315,782.0859,305,786.0859,315,790.0859,311,786.0859" style="stroke: #A80036; stroke-width: 1.0;"/><text fill="#000000" font-family="sans-serif" font-size="13" lengthAdjust="spacingAndGlyphs" textLength="170" x="311" y="768.02">invokeAfterSuiteMethods()</text><polygon fill="#A80036" points="826,811.2188,836,815.2188,826,819.2188,830,815.2188" style="stroke: #A80036; stroke-width: 1.0;"/><line style="stroke: #A80036; stroke-width: 1.0;" x1="304" x2="832" y1="815.2188" y2="815.2188"/><text fill="#000000" font-family="sans-serif" font-size="13" lengthAdjust="spacingAndGlyphs" textLength="62" x="311" y="810.1528">onFinish()</text><polygon fill="#A80036" points="679,840.3516,689,844.3516,679,848.3516,683,844.3516" style="stroke: #A80036; stroke-width: 1.0;"/><line style="stroke: #A80036; stroke-width: 1.0; stroke-dasharray: 2.0,2.0;" x1="299" x2="685" y1="844.3516" y2="844.3516"/><text fill="#000000" font-family="sans-serif" font-size="13" lengthAdjust="spacingAndGlyphs" textLength="26" x="306" y="839.2856">void</text><polygon fill="#A80036" points="157,869.4844,147,873.4844,157,877.4844,153,873.4844" style="stroke: #A80036; stroke-width: 1.0;"/><line style="stroke: #A80036; stroke-width: 1.0; stroke-dasharray: 2.0,2.0;" x1="151" x2="695" y1="873.4844" y2="873.4844"/><text fill="#000000" font-family="sans-serif" font-size="13" lengthAdjust="spacingAndGlyphs" textLength="26" x="163" y="868.4185">void</text><polygon fill="#A80036" points="14,898.6172,4,902.6172,14,906.6172,10,902.6172" style="stroke: #A80036; stroke-width: 1.0;"/><line style="stroke: #A80036; stroke-width: 1.0; stroke-dasharray: 2.0,2.0;" x1="8" x2="140" y1="902.6172" y2="902.6172"/><text fill="#000000" font-family="sans-serif" font-size="13" lengthAdjust="spacingAndGlyphs" textLength="80" x="20" y="897.5513">List&lt;ISuite&gt;</text></g></svg>