<?xml version="1.0" encoding="UTF-8" standalone="no"?><svg xmlns="http://www.w3.org/2000/svg" xmlns:xlink="http://www.w3.org/1999/xlink" contentScriptType="application/ecmascript" contentStyleType="text/css" height="859px" preserveAspectRatio="none" style="width:1546px;height:859px;" version="1.1" viewBox="0 0 1546 859" width="1546px" zoomAndPan="magnify"><defs><filter height="300%" id="f3ni6tgio4rmn" width="300%" x="-1" y="-1"><feGaussianBlur result="blurOut" stdDeviation="2.0"/><feColorMatrix in="blurOut" result="blurOut2" type="matrix" values="0 0 0 0 0 0 0 0 0 0 0 0 0 0 0 0 0 0 .4 0"/><feOffset dx="4.0" dy="4.0" in="blurOut2" result="blurOut3"/><feBlend in="SourceGraphic" in2="blurOut3" mode="normal"/></filter></defs><g><rect fill="#FFFFFF" filter="url(#f3ni6tgio4rmn)" height="29.1328" style="stroke: #A80036; stroke-width: 1.0;" width="10" x="211" y="69.4297"/><rect fill="#FFFFFF" filter="url(#f3ni6tgio4rmn)" height="665.3906" style="stroke: #A80036; stroke-width: 1.0;" width="10" x="394.5" y="127.6953"/><rect fill="#FFFFFF" filter="url(#f3ni6tgio4rmn)" height="522.8594" style="stroke: #A80036; stroke-width: 1.0;" width="10" x="600.5" y="198.9609"/><rect fill="#FFFFFF" filter="url(#f3ni6tgio4rmn)" height="464.5938" style="stroke: #A80036; stroke-width: 1.0;" width="10" x="895.5" y="228.0938"/><rect fill="#FFFFFF" filter="url(#f3ni6tgio4rmn)" height="392.3281" style="stroke: #A80036; stroke-width: 1.0;" width="10" x="1209.5" y="286.3594"/><line style="stroke: #A80036; stroke-width: 1.0; stroke-dasharray: 5.0,5.0;" x1="58" x2="58" y1="38.2969" y2="811.0859"/><line style="stroke: #A80036; stroke-width: 1.0; stroke-dasharray: 5.0,5.0;" x1="216" x2="216" y1="38.2969" y2="811.0859"/><line style="stroke: #A80036; stroke-width: 1.0; stroke-dasharray: 5.0,5.0;" x1="399" x2="399" y1="38.2969" y2="811.0859"/><line style="stroke: #A80036; stroke-width: 1.0; stroke-dasharray: 5.0,5.0;" x1="605" x2="605" y1="38.2969" y2="811.0859"/><line style="stroke: #A80036; stroke-width: 1.0; stroke-dasharray: 5.0,5.0;" x1="900.5" x2="900.5" y1="38.2969" y2="811.0859"/><line style="stroke: #A80036; stroke-width: 1.0; stroke-dasharray: 5.0,5.0;" x1="1072.5" x2="1072.5" y1="38.2969" y2="811.0859"/><line style="stroke: #A80036; stroke-width: 1.0; stroke-dasharray: 5.0,5.0;" x1="1214.5" x2="1214.5" y1="38.2969" y2="811.0859"/><line style="stroke: #A80036; stroke-width: 1.0; stroke-dasharray: 5.0,5.0;" x1="1378.5" x2="1378.5" y1="38.2969" y2="811.0859"/><rect fill="#FEFECE" filter="url(#f3ni6tgio4rmn)" height="30.2969" style="stroke: #A80036; stroke-width: 1.5;" width="96" x="8" y="3"/><text fill="#000000" font-family="sans-serif" font-size="14" lengthAdjust="spacingAndGlyphs" textLength="82" x="15" y="22.9951">TestRunner</text><rect fill="#FEFECE" filter="url(#f3ni6tgio4rmn)" height="30.2969" style="stroke: #A80036; stroke-width: 1.5;" width="96" x="8" y="810.0859"/><text fill="#000000" font-family="sans-serif" font-size="14" lengthAdjust="spacingAndGlyphs" textLength="82" x="15" y="830.0811">TestRunner</text><rect fill="#FEFECE" filter="url(#f3ni6tgio4rmn)" height="30.2969" style="stroke: #A80036; stroke-width: 1.5;" width="192" x="118" y="3"/><text fill="#000000" font-family="sans-serif" font-size="14" lengthAdjust="spacingAndGlyphs" textLength="178" x="125" y="22.9951">ClassBasedParallelWorker</text><rect fill="#FEFECE" filter="url(#f3ni6tgio4rmn)" height="30.2969" style="stroke: #A80036; stroke-width: 1.5;" width="192" x="118" y="810.0859"/><text fill="#000000" font-family="sans-serif" font-size="14" lengthAdjust="spacingAndGlyphs" textLength="178" x="125" y="830.0811">ClassBasedParallelWorker</text><rect fill="#FEFECE" filter="url(#f3ni6tgio4rmn)" height="30.2969" style="stroke: #A80036; stroke-width: 1.5;" width="147" x="324" y="3"/><text fill="#000000" font-family="sans-serif" font-size="14" lengthAdjust="spacingAndGlyphs" textLength="133" x="331" y="22.9951">TestMethodWorker</text><rect fill="#FEFECE" filter="url(#f3ni6tgio4rmn)" height="30.2969" style="stroke: #A80036; stroke-width: 1.5;" width="147" x="324" y="810.0859"/><text fill="#000000" font-family="sans-serif" font-size="14" lengthAdjust="spacingAndGlyphs" textLength="133" x="331" y="830.0811">TestMethodWorker</text><rect fill="#FEFECE" filter="url(#f3ni6tgio4rmn)" height="30.2969" style="stroke: #A80036; stroke-width: 1.5;" width="95" x="556" y="3"/><text fill="#000000" font-family="sans-serif" font-size="14" lengthAdjust="spacingAndGlyphs" textLength="81" x="563" y="22.9951">TestInvoker</text><rect fill="#FEFECE" filter="url(#f3ni6tgio4rmn)" height="30.2969" style="stroke: #A80036; stroke-width: 1.5;" width="95" x="556" y="810.0859"/><text fill="#000000" font-family="sans-serif" font-size="14" lengthAdjust="spacingAndGlyphs" textLength="81" x="563" y="830.0811">TestInvoker</text><rect fill="#FEFECE" filter="url(#f3ni6tgio4rmn)" height="30.2969" style="stroke: #A80036; stroke-width: 1.5;" width="178" x="809.5" y="3"/><text fill="#000000" font-family="sans-serif" font-size="14" lengthAdjust="spacingAndGlyphs" textLength="164" x="816.5" y="22.9951">MethodInvocationAgent</text><rect fill="#FEFECE" filter="url(#f3ni6tgio4rmn)" height="30.2969" style="stroke: #A80036; stroke-width: 1.5;" width="178" x="809.5" y="810.0859"/><text fill="#000000" font-family="sans-serif" font-size="14" lengthAdjust="spacingAndGlyphs" textLength="164" x="816.5" y="830.0811">MethodInvocationAgent</text><rect fill="#FEFECE" filter="url(#f3ni6tgio4rmn)" height="30.2969" style="stroke: #A80036; stroke-width: 1.5;" width="138" x="1001.5" y="3"/><text fill="#000000" font-family="sans-serif" font-size="14" lengthAdjust="spacingAndGlyphs" textLength="124" x="1008.5" y="22.9951">ParameterHandler</text><rect fill="#FEFECE" filter="url(#f3ni6tgio4rmn)" height="30.2969" style="stroke: #A80036; stroke-width: 1.5;" width="138" x="1001.5" y="810.0859"/><text fill="#000000" font-family="sans-serif" font-size="14" lengthAdjust="spacingAndGlyphs" textLength="124" x="1008.5" y="830.0811">ParameterHandler</text><rect fill="#FEFECE" filter="url(#f3ni6tgio4rmn)" height="30.2969" style="stroke: #A80036; stroke-width: 1.5;" width="118" x="1153.5" y="3"/><text fill="#000000" font-family="sans-serif" font-size="14" lengthAdjust="spacingAndGlyphs" textLength="104" x="1160.5" y="22.9951">MethodRunner</text><rect fill="#FEFECE" filter="url(#f3ni6tgio4rmn)" height="30.2969" style="stroke: #A80036; stroke-width: 1.5;" width="118" x="1153.5" y="810.0859"/><text fill="#000000" font-family="sans-serif" font-size="14" lengthAdjust="spacingAndGlyphs" textLength="104" x="1160.5" y="830.0811">MethodRunner</text><rect fill="#FEFECE" filter="url(#f3ni6tgio4rmn)" height="30.2969" style="stroke: #A80036; stroke-width: 1.5;" width="182" x="1285.5" y="3"/><text fill="#000000" font-family="sans-serif" font-size="14" lengthAdjust="spacingAndGlyphs" textLength="168" x="1292.5" y="22.9951">MethodInvocationHelper</text><rect fill="#FEFECE" filter="url(#f3ni6tgio4rmn)" height="30.2969" style="stroke: #A80036; stroke-width: 1.5;" width="182" x="1285.5" y="810.0859"/><text fill="#000000" font-family="sans-serif" font-size="14" lengthAdjust="spacingAndGlyphs" textLength="168" x="1292.5" y="830.0811">MethodInvocationHelper</text><rect fill="#FFFFFF" filter="url(#f3ni6tgio4rmn)" height="29.1328" style="stroke: #A80036; stroke-width: 1.0;" width="10" x="211" y="69.4297"/><rect fill="#FFFFFF" filter="url(#f3ni6tgio4rmn)" height="665.3906" style="stroke: #A80036; stroke-width: 1.0;" width="10" x="394.5" y="127.6953"/><rect fill="#FFFFFF" filter="url(#f3ni6tgio4rmn)" height="522.8594" style="stroke: #A80036; stroke-width: 1.0;" width="10" x="600.5" y="198.9609"/><rect fill="#FFFFFF" filter="url(#f3ni6tgio4rmn)" height="464.5938" style="stroke: #A80036; stroke-width: 1.0;" width="10" x="895.5" y="228.0938"/><rect fill="#FFFFFF" filter="url(#f3ni6tgio4rmn)" height="392.3281" style="stroke: #A80036; stroke-width: 1.0;" width="10" x="1209.5" y="286.3594"/><polygon fill="#A80036" points="199,65.4297,209,69.4297,199,73.4297,203,69.4297" style="stroke: #A80036; stroke-width: 1.0;"/><line style="stroke: #A80036; stroke-width: 1.0;" x1="58" x2="205" y1="69.4297" y2="69.4297"/><text fill="#000000" font-family="sans-serif" font-size="13" lengthAdjust="spacingAndGlyphs" textLength="102" x="65" y="64.3638">createWorkers()</text><polygon fill="#A80036" points="69,94.5625,59,98.5625,69,102.5625,65,98.5625" style="stroke: #A80036; stroke-width: 1.0;"/><line style="stroke: #A80036; stroke-width: 1.0;" x1="63" x2="215" y1="98.5625" y2="98.5625"/><text fill="#000000" font-family="sans-serif" font-size="13" lengthAdjust="spacingAndGlyphs" textLength="91" x="75" y="93.4966">List&lt;IWorker&gt;</text><polygon fill="#A80036" points="382.5,123.6953,392.5,127.6953,382.5,131.6953,386.5,127.6953" style="stroke: #A80036; stroke-width: 1.0;"/><line style="stroke: #A80036; stroke-width: 1.0;" x1="58" x2="388.5" y1="127.6953" y2="127.6953"/><text fill="#000000" font-family="sans-serif" font-size="13" lengthAdjust="spacingAndGlyphs" textLength="31" x="65" y="122.6294">run()</text><line style="stroke: #A80036; stroke-width: 1.0;" x1="404.5" x2="446.5" y1="156.8281" y2="156.8281"/><line style="stroke: #A80036; stroke-width: 1.0;" x1="446.5" x2="446.5" y1="156.8281" y2="169.8281"/><line style="stroke: #A80036; stroke-width: 1.0;" x1="405.5" x2="446.5" y1="169.8281" y2="169.8281"/><polygon fill="#A80036" points="415.5,165.8281,405.5,169.8281,415.5,173.8281,411.5,169.8281" style="stroke: #A80036; stroke-width: 1.0;"/><text fill="#000000" font-family="sans-serif" font-size="13" lengthAdjust="spacingAndGlyphs" textLength="182" x="411.5" y="151.7622">invokeBeforeClassMethods()</text><polygon fill="#A80036" points="588.5,194.9609,598.5,198.9609,588.5,202.9609,592.5,198.9609" style="stroke: #A80036; stroke-width: 1.0;"/><line style="stroke: #A80036; stroke-width: 1.0;" x1="404.5" x2="594.5" y1="198.9609" y2="198.9609"/><text fill="#000000" font-family="sans-serif" font-size="13" lengthAdjust="spacingAndGlyphs" textLength="133" x="411.5" y="193.895">invokeTestMethods()</text><polygon fill="#A80036" points="883.5,224.0938,893.5,228.0938,883.5,232.0938,887.5,228.0938" style="stroke: #A80036; stroke-width: 1.0;"/><line style="stroke: #A80036; stroke-width: 1.0;" x1="610.5" x2="889.5" y1="228.0938" y2="228.0938"/><text fill="#000000" font-family="sans-serif" font-size="13" lengthAdjust="spacingAndGlyphs" textLength="51" x="617.5" y="223.0278">invoke()</text><polygon fill="#A80036" points="1060.5,253.2266,1070.5,257.2266,1060.5,261.2266,1064.5,257.2266" style="stroke: #A80036; stroke-width: 1.0;"/><line style="stroke: #A80036; stroke-width: 1.0;" x1="905.5" x2="1066.5" y1="257.2266" y2="257.2266"/><text fill="#000000" font-family="sans-serif" font-size="13" lengthAdjust="spacingAndGlyphs" textLength="126" x="912.5" y="252.1606">createParameters()</text><polygon fill="#A80036" points="1197.5,282.3594,1207.5,286.3594,1197.5,290.3594,1201.5,286.3594" style="stroke: #A80036; stroke-width: 1.0;"/><line style="stroke: #A80036; stroke-width: 1.0;" x1="905.5" x2="1203.5" y1="286.3594" y2="286.3594"/><text fill="#000000" font-family="sans-serif" font-size="13" lengthAdjust="spacingAndGlyphs" textLength="106" x="912.5" y="281.2935">runInSequence()</text><polygon fill="#A80036" points="621.5,311.4922,611.5,315.4922,621.5,319.4922,617.5,315.4922" style="stroke: #A80036; stroke-width: 1.0;"/><line style="stroke: #A80036; stroke-width: 1.0;" x1="615.5" x2="1208.5" y1="315.4922" y2="315.4922"/><text fill="#000000" font-family="sans-serif" font-size="13" lengthAdjust="spacingAndGlyphs" textLength="126" x="627.5" y="310.4263">invokeTestMethod()</text><line style="stroke: #A80036; stroke-width: 1.0;" x1="610.5" x2="652.5" y1="344.625" y2="344.625"/><line style="stroke: #A80036; stroke-width: 1.0;" x1="652.5" x2="652.5" y1="344.625" y2="357.625"/><line style="stroke: #A80036; stroke-width: 1.0;" x1="611.5" x2="652.5" y1="357.625" y2="357.625"/><polygon fill="#A80036" points="621.5,353.625,611.5,357.625,621.5,361.625,617.5,357.625" style="stroke: #A80036; stroke-width: 1.0;"/><text fill="#000000" font-family="sans-serif" font-size="13" lengthAdjust="spacingAndGlyphs" textLength="231" x="617.5" y="339.5591">invokeBeforeGroupsConfigurations()</text><line style="stroke: #A80036; stroke-width: 1.0;" x1="610.5" x2="652.5" y1="386.7578" y2="386.7578"/><line style="stroke: #A80036; stroke-width: 1.0;" x1="652.5" x2="652.5" y1="386.7578" y2="399.7578"/><line style="stroke: #A80036; stroke-width: 1.0;" x1="611.5" x2="652.5" y1="399.7578" y2="399.7578"/><polygon fill="#A80036" points="621.5,395.7578,611.5,399.7578,621.5,403.7578,617.5,399.7578" style="stroke: #A80036; stroke-width: 1.0;"/><text fill="#000000" font-family="sans-serif" font-size="13" lengthAdjust="spacingAndGlyphs" textLength="143" x="617.5" y="381.6919">invokeConfigurations()</text><line style="stroke: #A80036; stroke-width: 1.0;" x1="610.5" x2="652.5" y1="428.8906" y2="428.8906"/><line style="stroke: #A80036; stroke-width: 1.0;" x1="652.5" x2="652.5" y1="428.8906" y2="441.8906"/><line style="stroke: #A80036; stroke-width: 1.0;" x1="611.5" x2="652.5" y1="441.8906" y2="441.8906"/><polygon fill="#A80036" points="621.5,437.8906,611.5,441.8906,621.5,445.8906,617.5,441.8906" style="stroke: #A80036; stroke-width: 1.0;"/><text fill="#000000" font-family="sans-serif" font-size="13" lengthAdjust="spacingAndGlyphs" textLength="162" x="617.5" y="423.8247">ITestListener.onTestXXX()</text><line style="stroke: #A80036; stroke-width: 1.0;" x1="610.5" x2="652.5" y1="471.0234" y2="471.0234"/><line style="stroke: #A80036; stroke-width: 1.0;" x1="652.5" x2="652.5" y1="471.0234" y2="484.0234"/><line style="stroke: #A80036; stroke-width: 1.0;" x1="611.5" x2="652.5" y1="484.0234" y2="484.0234"/><polygon fill="#A80036" points="621.5,480.0234,611.5,484.0234,621.5,488.0234,617.5,484.0234" style="stroke: #A80036; stroke-width: 1.0;"/><text fill="#000000" font-family="sans-serif" font-size="13" lengthAdjust="spacingAndGlyphs" textLength="271" x="617.5" y="465.9575">IInvokedMethodListener.beforeInvocation()</text><polygon fill="#A80036" points="1366.5,514.1563,1376.5,518.1563,1366.5,522.1563,1370.5,518.1563" style="stroke: #A80036; stroke-width: 1.0;"/><line style="stroke: #A80036; stroke-width: 1.0;" x1="610.5" x2="1372.5" y1="518.1563" y2="518.1563"/><text fill="#000000" font-family="sans-serif" font-size="13" lengthAdjust="spacingAndGlyphs" textLength="99" x="617.5" y="513.0903">invokeMethod()</text><path d="M1383,497.0234 L1383,522.0234 L1534,522.0234 L1534,507.0234 L1524,497.0234 L1383,497.0234 " fill="#FBFB77" filter="url(#f3ni6tgio4rmn)" style="stroke: #A80036; stroke-width: 1.0;"/><path d="M1524,497.0234 L1524,507.0234 L1534,507.0234 L1524,497.0234 " fill="#FBFB77" style="stroke: #A80036; stroke-width: 1.0;"/><text fill="#000000" font-family="sans-serif" font-size="13" lengthAdjust="spacingAndGlyphs" textLength="130" x="1389" y="514.0903">此处真正调用被测方法</text><line style="stroke: #A80036; stroke-width: 1.0;" x1="610.5" x2="652.5" y1="552.2891" y2="552.2891"/><line style="stroke: #A80036; stroke-width: 1.0;" x1="652.5" x2="652.5" y1="552.2891" y2="565.2891"/><line style="stroke: #A80036; stroke-width: 1.0;" x1="611.5" x2="652.5" y1="565.2891" y2="565.2891"/><polygon fill="#A80036" points="621.5,561.2891,611.5,565.2891,621.5,569.2891,617.5,565.2891" style="stroke: #A80036; stroke-width: 1.0;"/><text fill="#000000" font-family="sans-serif" font-size="13" lengthAdjust="spacingAndGlyphs" textLength="260" x="617.5" y="547.2231">IInvokedMethodListener.afterInvocation()</text><line style="stroke: #A80036; stroke-width: 1.0;" x1="610.5" x2="652.5" y1="594.4219" y2="594.4219"/><line style="stroke: #A80036; stroke-width: 1.0;" x1="652.5" x2="652.5" y1="594.4219" y2="607.4219"/><line style="stroke: #A80036; stroke-width: 1.0;" x1="611.5" x2="652.5" y1="607.4219" y2="607.4219"/><polygon fill="#A80036" points="621.5,603.4219,611.5,607.4219,621.5,611.4219,617.5,607.4219" style="stroke: #A80036; stroke-width: 1.0;"/><text fill="#000000" font-family="sans-serif" font-size="13" lengthAdjust="spacingAndGlyphs" textLength="162" x="617.5" y="589.356">ITestListener.onTestXXX()</text><line style="stroke: #A80036; stroke-width: 1.0;" x1="610.5" x2="652.5" y1="636.5547" y2="636.5547"/><line style="stroke: #A80036; stroke-width: 1.0;" x1="652.5" x2="652.5" y1="636.5547" y2="649.5547"/><line style="stroke: #A80036; stroke-width: 1.0;" x1="611.5" x2="652.5" y1="649.5547" y2="649.5547"/><polygon fill="#A80036" points="621.5,645.5547,611.5,649.5547,621.5,653.5547,617.5,649.5547" style="stroke: #A80036; stroke-width: 1.0;"/><text fill="#000000" font-family="sans-serif" font-size="13" lengthAdjust="spacingAndGlyphs" textLength="220" x="617.5" y="631.4888">invokeAfterGroupsConfigurations()</text><polygon fill="#A80036" points="1202.5,674.6875,1212.5,678.6875,1202.5,682.6875,1206.5,678.6875" style="stroke: #A80036; stroke-width: 1.0;"/><line style="stroke: #A80036; stroke-width: 1.0; stroke-dasharray: 2.0,2.0;" x1="610.5" x2="1208.5" y1="678.6875" y2="678.6875"/><text fill="#000000" font-family="sans-serif" font-size="13" lengthAdjust="spacingAndGlyphs" textLength="69" x="617.5" y="673.6216">ITestResult</text><polygon fill="#A80036" points="621.5,688.6875,611.5,692.6875,621.5,696.6875,617.5,692.6875" style="stroke: #A80036; stroke-width: 1.0;"/><line style="stroke: #A80036; stroke-width: 1.0; stroke-dasharray: 2.0,2.0;" x1="615.5" x2="899.5" y1="692.6875" y2="692.6875"/><polygon fill="#A80036" points="415.5,717.8203,405.5,721.8203,415.5,725.8203,411.5,721.8203" style="stroke: #A80036; stroke-width: 1.0;"/><line style="stroke: #A80036; stroke-width: 1.0;" x1="409.5" x2="604.5" y1="721.8203" y2="721.8203"/><text fill="#000000" font-family="sans-serif" font-size="13" lengthAdjust="spacingAndGlyphs" textLength="113" x="421.5" y="716.7544">List&lt;ITestResult&gt;</text><line style="stroke: #A80036; stroke-width: 1.0;" x1="404.5" x2="446.5" y1="750.9531" y2="750.9531"/><line style="stroke: #A80036; stroke-width: 1.0;" x1="446.5" x2="446.5" y1="750.9531" y2="763.9531"/><line style="stroke: #A80036; stroke-width: 1.0;" x1="405.5" x2="446.5" y1="763.9531" y2="763.9531"/><polygon fill="#A80036" points="415.5,759.9531,405.5,763.9531,415.5,767.9531,411.5,763.9531" style="stroke: #A80036; stroke-width: 1.0;"/><text fill="#000000" font-family="sans-serif" font-size="13" lengthAdjust="spacingAndGlyphs" textLength="171" x="411.5" y="745.8872">invokeAfterClassMethods()</text><polygon fill="#A80036" points="69,789.0859,59,793.0859,69,797.0859,65,793.0859" style="stroke: #A80036; stroke-width: 1.0;"/><line style="stroke: #A80036; stroke-width: 1.0; stroke-dasharray: 2.0,2.0;" x1="63" x2="398.5" y1="793.0859" y2="793.0859"/><text fill="#000000" font-family="sans-serif" font-size="13" lengthAdjust="spacingAndGlyphs" textLength="26" x="75" y="788.02">void</text></g></svg>