<?xml version="1.0" encoding="UTF-8" standalone="no"?><svg xmlns="http://www.w3.org/2000/svg" xmlns:xlink="http://www.w3.org/1999/xlink" contentScriptType="application/ecmascript" contentStyleType="text/css" height="1094px" preserveAspectRatio="none" style="width:1043px;height:1094px;" version="1.1" viewBox="0 0 1043 1094" width="1043px" zoomAndPan="magnify"><defs><filter height="300%" id="ff0mt3nnjwef1" width="300%" x="-1" y="-1"><feGaussianBlur result="blurOut" stdDeviation="2.0"/><feColorMatrix in="blurOut" result="blurOut2" type="matrix" values="0 0 0 0 0 0 0 0 0 0 0 0 0 0 0 0 0 0 .4 0"/><feOffset dx="4.0" dy="4.0" in="blurOut2" result="blurOut3"/><feBlend in="SourceGraphic" in2="blurOut3" mode="normal"/></filter></defs><g><rect fill="#FFFFFF" filter="url(#ff0mt3nnjwef1)" height="919.1875" style="stroke:#A80036;stroke-width:1.0;" width="10" x="185.5" y="113.5625"/><rect fill="#FFFFFF" filter="url(#ff0mt3nnjwef1)" height="776.6563" style="stroke:#A80036;stroke-width:1.0;" width="10" x="391.5" y="184.8281"/><rect fill="#FFFFFF" filter="url(#ff0mt3nnjwef1)" height="142.5313" style="stroke:#A80036;stroke-width:1.0;" width="10" x="686.5" y="256.0938"/><rect fill="#FFFFFF" filter="url(#ff0mt3nnjwef1)" height="393.3281" style="stroke:#000000;stroke-width:2.0;" width="678.5" x="351" y="455.7578"/><line style="stroke:#A80036;stroke-width:1.0;stroke-dasharray:5.0,5.0;" x1="55" x2="55" y1="40.2969" y2="1050.75"/><line style="stroke:#A80036;stroke-width:1.0;stroke-dasharray:5.0,5.0;" x1="190" x2="190" y1="40.2969" y2="1050.75"/><line style="stroke:#A80036;stroke-width:1.0;stroke-dasharray:5.0,5.0;" x1="396" x2="396" y1="40.2969" y2="1050.75"/><line style="stroke:#A80036;stroke-width:1.0;stroke-dasharray:5.0,5.0;" x1="691" x2="691" y1="40.2969" y2="1050.75"/><line style="stroke:#A80036;stroke-width:1.0;stroke-dasharray:5.0,5.0;" x1="854.5" x2="854.5" y1="40.2969" y2="1050.75"/><rect fill="#FEFECE" filter="url(#ff0mt3nnjwef1)" height="30.2969" style="stroke:#A80036;stroke-width:1.5;" width="96" x="5" y="5"/><text fill="#000000" font-family="sans-serif" font-size="14" lengthAdjust="spacing" textLength="82" x="12" y="24.9951">TestRunner</text><rect fill="#FEFECE" filter="url(#ff0mt3nnjwef1)" height="30.2969" style="stroke:#A80036;stroke-width:1.5;" width="96" x="5" y="1049.75"/><text fill="#000000" font-family="sans-serif" font-size="14" lengthAdjust="spacing" textLength="82" x="12" y="1069.7451">TestRunner</text><rect fill="#FEFECE" filter="url(#ff0mt3nnjwef1)" height="30.2969" style="stroke:#A80036;stroke-width:1.5;" width="147" x="115" y="5"/><text fill="#000000" font-family="sans-serif" font-size="14" lengthAdjust="spacing" textLength="133" x="122" y="24.9951">TestMethodWorker</text><rect fill="#FEFECE" filter="url(#ff0mt3nnjwef1)" height="30.2969" style="stroke:#A80036;stroke-width:1.5;" width="147" x="115" y="1049.75"/><text fill="#000000" font-family="sans-serif" font-size="14" lengthAdjust="spacing" textLength="133" x="122" y="1069.7451">TestMethodWorker</text><rect fill="#FEFECE" filter="url(#ff0mt3nnjwef1)" height="30.2969" style="stroke:#A80036;stroke-width:1.5;" width="67" x="361" y="5"/><text fill="#000000" font-family="sans-serif" font-size="14" lengthAdjust="spacing" textLength="53" x="368" y="24.9951">IInvoker</text><rect fill="#FEFECE" filter="url(#ff0mt3nnjwef1)" height="30.2969" style="stroke:#A80036;stroke-width:1.5;" width="67" x="361" y="1049.75"/><text fill="#000000" font-family="sans-serif" font-size="14" lengthAdjust="spacing" textLength="53" x="368" y="1069.7451">IInvoker</text><rect fill="#FEFECE" filter="url(#ff0mt3nnjwef1)" height="30.2969" style="stroke:#A80036;stroke-width:1.5;" width="93" x="643" y="5"/><text fill="#000000" font-family="sans-serif" font-size="14" lengthAdjust="spacing" textLength="79" x="650" y="24.9951">Parameters</text><rect fill="#FEFECE" filter="url(#ff0mt3nnjwef1)" height="30.2969" style="stroke:#A80036;stroke-width:1.5;" width="93" x="643" y="1049.75"/><text fill="#000000" font-family="sans-serif" font-size="14" lengthAdjust="spacing" textLength="79" x="650" y="1069.7451">Parameters</text><rect fill="#FEFECE" filter="url(#ff0mt3nnjwef1)" height="30.2969" style="stroke:#A80036;stroke-width:1.5;" width="182" x="761.5" y="5"/><text fill="#000000" font-family="sans-serif" font-size="14" lengthAdjust="spacing" textLength="168" x="768.5" y="24.9951">MethodInvocationHelper</text><rect fill="#FEFECE" filter="url(#ff0mt3nnjwef1)" height="30.2969" style="stroke:#A80036;stroke-width:1.5;" width="182" x="761.5" y="1049.75"/><text fill="#000000" font-family="sans-serif" font-size="14" lengthAdjust="spacing" textLength="168" x="768.5" y="1069.7451">MethodInvocationHelper</text><rect fill="#FFFFFF" filter="url(#ff0mt3nnjwef1)" height="919.1875" style="stroke:#A80036;stroke-width:1.0;" width="10" x="185.5" y="113.5625"/><rect fill="#FFFFFF" filter="url(#ff0mt3nnjwef1)" height="776.6563" style="stroke:#A80036;stroke-width:1.0;" width="10" x="391.5" y="184.8281"/><rect fill="#FFFFFF" filter="url(#ff0mt3nnjwef1)" height="142.5313" style="stroke:#A80036;stroke-width:1.0;" width="10" x="686.5" y="256.0938"/><line style="stroke:#A80036;stroke-width:1.0;" x1="55" x2="97" y1="71.4297" y2="71.4297"/><line style="stroke:#A80036;stroke-width:1.0;" x1="97" x2="97" y1="71.4297" y2="84.4297"/><line style="stroke:#A80036;stroke-width:1.0;" x1="56" x2="97" y1="84.4297" y2="84.4297"/><polygon fill="#A80036" points="66,80.4297,56,84.4297,66,88.4297,62,84.4297" style="stroke:#A80036;stroke-width:1.0;"/><text fill="#000000" font-family="sans-serif" font-size="13" lengthAdjust="spacing" textLength="102" x="62" y="66.3638">createWorkers()</text><polygon fill="#A80036" points="173.5,109.5625,183.5,113.5625,173.5,117.5625,177.5,113.5625" style="stroke:#A80036;stroke-width:1.0;"/><line style="stroke:#A80036;stroke-width:1.0;" x1="55" x2="179.5" y1="113.5625" y2="113.5625"/><text fill="#000000" font-family="sans-serif" font-size="13" lengthAdjust="spacing" textLength="31" x="62" y="108.4966">run()</text><line style="stroke:#A80036;stroke-width:1.0;" x1="195.5" x2="237.5" y1="142.6953" y2="142.6953"/><line style="stroke:#A80036;stroke-width:1.0;" x1="237.5" x2="237.5" y1="142.6953" y2="155.6953"/><line style="stroke:#A80036;stroke-width:1.0;" x1="196.5" x2="237.5" y1="155.6953" y2="155.6953"/><polygon fill="#A80036" points="206.5,151.6953,196.5,155.6953,206.5,159.6953,202.5,155.6953" style="stroke:#A80036;stroke-width:1.0;"/><text fill="#000000" font-family="sans-serif" font-size="13" lengthAdjust="spacing" textLength="182" x="202.5" y="137.6294">invokeBeforeClassMethods()</text><polygon fill="#A80036" points="379.5,180.8281,389.5,184.8281,379.5,188.8281,383.5,184.8281" style="stroke:#A80036;stroke-width:1.0;"/><line style="stroke:#A80036;stroke-width:1.0;" x1="195.5" x2="385.5" y1="184.8281" y2="184.8281"/><text fill="#000000" font-family="sans-serif" font-size="13" lengthAdjust="spacing" textLength="133" x="202.5" y="179.7622">invokeTestMethods()</text><line style="stroke:#A80036;stroke-width:1.0;" x1="401.5" x2="443.5" y1="213.9609" y2="213.9609"/><line style="stroke:#A80036;stroke-width:1.0;" x1="443.5" x2="443.5" y1="213.9609" y2="226.9609"/><line style="stroke:#A80036;stroke-width:1.0;" x1="402.5" x2="443.5" y1="226.9609" y2="226.9609"/><polygon fill="#A80036" points="412.5,222.9609,402.5,226.9609,412.5,230.9609,408.5,226.9609" style="stroke:#A80036;stroke-width:1.0;"/><text fill="#000000" font-family="sans-serif" font-size="13" lengthAdjust="spacing" textLength="138" x="408.5" y="208.895">checkDependencies()</text><polygon fill="#A80036" points="674.5,252.0938,684.5,256.0938,674.5,260.0938,678.5,256.0938" style="stroke:#A80036;stroke-width:1.0;"/><line style="stroke:#A80036;stroke-width:1.0;" x1="401.5" x2="680.5" y1="256.0938" y2="256.0938"/><text fill="#000000" font-family="sans-serif" font-size="13" lengthAdjust="spacing" textLength="126" x="408.5" y="251.0278">createParameters()</text><line style="stroke:#A80036;stroke-width:1.0;" x1="696.5" x2="738.5" y1="285.2266" y2="285.2266"/><line style="stroke:#A80036;stroke-width:1.0;" x1="738.5" x2="738.5" y1="285.2266" y2="298.2266"/><line style="stroke:#A80036;stroke-width:1.0;" x1="697.5" x2="738.5" y1="298.2266" y2="298.2266"/><polygon fill="#A80036" points="707.5,294.2266,697.5,298.2266,707.5,302.2266,703.5,298.2266" style="stroke:#A80036;stroke-width:1.0;"/><text fill="#000000" font-family="sans-serif" font-size="13" lengthAdjust="spacing" textLength="116" x="703.5" y="280.1606">findDataProvider()</text><polygon fill="#A80036" points="842.5,323.3594,852.5,327.3594,842.5,331.3594,846.5,327.3594" style="stroke:#A80036;stroke-width:1.0;"/><line style="stroke:#A80036;stroke-width:1.0;" x1="696.5" x2="848.5" y1="327.3594" y2="327.3594"/><text fill="#000000" font-family="sans-serif" font-size="13" lengthAdjust="spacing" textLength="134" x="703.5" y="322.2935">invokeDataProvider()</text><line style="stroke:#A80036;stroke-width:1.0;" x1="696.5" x2="738.5" y1="356.4922" y2="356.4922"/><line style="stroke:#A80036;stroke-width:1.0;" x1="738.5" x2="738.5" y1="356.4922" y2="369.4922"/><line style="stroke:#A80036;stroke-width:1.0;" x1="697.5" x2="738.5" y1="369.4922" y2="369.4922"/><polygon fill="#A80036" points="707.5,365.4922,697.5,369.4922,707.5,373.4922,703.5,369.4922" style="stroke:#A80036;stroke-width:1.0;"/><text fill="#000000" font-family="sans-serif" font-size="13" lengthAdjust="spacing" textLength="132" x="703.5" y="351.4263">findXmlParameters()</text><polygon fill="#A80036" points="412.5,394.625,402.5,398.625,412.5,402.625,408.5,398.625" style="stroke:#A80036;stroke-width:1.0;"/><line style="stroke:#A80036;stroke-width:1.0;stroke-dasharray:2.0,2.0;" x1="406.5" x2="690.5" y1="398.625" y2="398.625"/><text fill="#000000" font-family="sans-serif" font-size="13" lengthAdjust="spacing" textLength="61" x="418.5" y="393.5591">Object[][]</text><line style="stroke:#A80036;stroke-width:1.0;" x1="401.5" x2="443.5" y1="427.7578" y2="427.7578"/><line style="stroke:#A80036;stroke-width:1.0;" x1="443.5" x2="443.5" y1="427.7578" y2="440.7578"/><line style="stroke:#A80036;stroke-width:1.0;" x1="402.5" x2="443.5" y1="440.7578" y2="440.7578"/><polygon fill="#A80036" points="412.5,436.7578,402.5,440.7578,412.5,444.7578,408.5,440.7578" style="stroke:#A80036;stroke-width:1.0;"/><text fill="#000000" font-family="sans-serif" font-size="13" lengthAdjust="spacing" textLength="119" x="408.5" y="422.6919">injectParameters()</text><path d="M351,455.7578 L606,455.7578 L606,462.7578 L596,472.7578 L351,472.7578 L351,455.7578 " fill="#EEEEEE" style="stroke:#000000;stroke-width:1.0;"/><rect fill="none" height="393.3281" style="stroke:#000000;stroke-width:2.0;" width="678.5" x="351" y="455.7578"/><text fill="#000000" font-family="sans-serif" font-size="13" font-weight="bold" lengthAdjust="spacing" textLength="210" x="366" y="468.8247">IInvoker.invokeTestMethod()</text><line style="stroke:#A80036;stroke-width:1.0;" x1="401.5" x2="443.5" y1="494.0234" y2="494.0234"/><line style="stroke:#A80036;stroke-width:1.0;" x1="443.5" x2="443.5" y1="494.0234" y2="507.0234"/><line style="stroke:#A80036;stroke-width:1.0;" x1="402.5" x2="443.5" y1="507.0234" y2="507.0234"/><polygon fill="#A80036" points="412.5,503.0234,402.5,507.0234,412.5,511.0234,408.5,507.0234" style="stroke:#A80036;stroke-width:1.0;"/><text fill="#000000" font-family="sans-serif" font-size="13" lengthAdjust="spacing" textLength="231" x="408.5" y="488.9575">invokeBeforeGroupsConfigurations()</text><line style="stroke:#A80036;stroke-width:1.0;" x1="401.5" x2="443.5" y1="536.1563" y2="536.1563"/><line style="stroke:#A80036;stroke-width:1.0;" x1="443.5" x2="443.5" y1="536.1563" y2="549.1563"/><line style="stroke:#A80036;stroke-width:1.0;" x1="402.5" x2="443.5" y1="549.1563" y2="549.1563"/><polygon fill="#A80036" points="412.5,545.1563,402.5,549.1563,412.5,553.1563,408.5,549.1563" style="stroke:#A80036;stroke-width:1.0;"/><text fill="#000000" font-family="sans-serif" font-size="13" lengthAdjust="spacing" textLength="240" x="408.5" y="531.0903">invokeBeforeMethodsConfigurations()</text><line style="stroke:#A80036;stroke-width:1.0;" x1="401.5" x2="443.5" y1="578.2891" y2="578.2891"/><line style="stroke:#A80036;stroke-width:1.0;" x1="443.5" x2="443.5" y1="578.2891" y2="591.2891"/><line style="stroke:#A80036;stroke-width:1.0;" x1="402.5" x2="443.5" y1="591.2891" y2="591.2891"/><polygon fill="#A80036" points="412.5,587.2891,402.5,591.2891,412.5,595.2891,408.5,591.2891" style="stroke:#A80036;stroke-width:1.0;"/><text fill="#000000" font-family="sans-serif" font-size="13" lengthAdjust="spacing" textLength="162" x="408.5" y="573.2231">ITestListener.onTestXXX()</text><line style="stroke:#A80036;stroke-width:1.0;" x1="401.5" x2="443.5" y1="620.4219" y2="620.4219"/><line style="stroke:#A80036;stroke-width:1.0;" x1="443.5" x2="443.5" y1="620.4219" y2="633.4219"/><line style="stroke:#A80036;stroke-width:1.0;" x1="402.5" x2="443.5" y1="633.4219" y2="633.4219"/><polygon fill="#A80036" points="412.5,629.4219,402.5,633.4219,412.5,637.4219,408.5,633.4219" style="stroke:#A80036;stroke-width:1.0;"/><text fill="#000000" font-family="sans-serif" font-size="13" lengthAdjust="spacing" textLength="271" x="408.5" y="615.356">IInvokedMethodListener.beforeInvocation()</text><polygon fill="#A80036" points="842.5,663.5547,852.5,667.5547,842.5,671.5547,846.5,667.5547" style="stroke:#A80036;stroke-width:1.0;"/><line style="stroke:#A80036;stroke-width:1.0;" x1="401.5" x2="848.5" y1="667.5547" y2="667.5547"/><text fill="#000000" font-family="sans-serif" font-size="13" lengthAdjust="spacing" textLength="99" x="408.5" y="662.4888">invokeMethod()</text><path d="M859,646.4219 L859,671.4219 L1010,671.4219 L1010,656.4219 L1000,646.4219 L859,646.4219 " fill="#FBFB77" filter="url(#ff0mt3nnjwef1)" style="stroke:#A80036;stroke-width:1.0;"/><path d="M1000,646.4219 L1000,656.4219 L1010,656.4219 L1000,646.4219 " fill="#FBFB77" style="stroke:#A80036;stroke-width:1.0;"/><text fill="#000000" font-family="sans-serif" font-size="13" lengthAdjust="spacing" textLength="130" x="865" y="663.4888">此处真正调用被测方法</text><line style="stroke:#A80036;stroke-width:1.0;" x1="401.5" x2="443.5" y1="701.6875" y2="701.6875"/><line style="stroke:#A80036;stroke-width:1.0;" x1="443.5" x2="443.5" y1="701.6875" y2="714.6875"/><line style="stroke:#A80036;stroke-width:1.0;" x1="402.5" x2="443.5" y1="714.6875" y2="714.6875"/><polygon fill="#A80036" points="412.5,710.6875,402.5,714.6875,412.5,718.6875,408.5,714.6875" style="stroke:#A80036;stroke-width:1.0;"/><text fill="#000000" font-family="sans-serif" font-size="13" lengthAdjust="spacing" textLength="260" x="408.5" y="696.6216">IInvokedMethodListener.afterInvocation()</text><line style="stroke:#A80036;stroke-width:1.0;" x1="401.5" x2="443.5" y1="743.8203" y2="743.8203"/><line style="stroke:#A80036;stroke-width:1.0;" x1="443.5" x2="443.5" y1="743.8203" y2="756.8203"/><line style="stroke:#A80036;stroke-width:1.0;" x1="402.5" x2="443.5" y1="756.8203" y2="756.8203"/><polygon fill="#A80036" points="412.5,752.8203,402.5,756.8203,412.5,760.8203,408.5,756.8203" style="stroke:#A80036;stroke-width:1.0;"/><text fill="#000000" font-family="sans-serif" font-size="13" lengthAdjust="spacing" textLength="162" x="408.5" y="738.7544">ITestListener.onTestXXX()</text><line style="stroke:#A80036;stroke-width:1.0;" x1="401.5" x2="443.5" y1="785.9531" y2="785.9531"/><line style="stroke:#A80036;stroke-width:1.0;" x1="443.5" x2="443.5" y1="785.9531" y2="798.9531"/><line style="stroke:#A80036;stroke-width:1.0;" x1="402.5" x2="443.5" y1="798.9531" y2="798.9531"/><polygon fill="#A80036" points="412.5,794.9531,402.5,798.9531,412.5,802.9531,408.5,798.9531" style="stroke:#A80036;stroke-width:1.0;"/><text fill="#000000" font-family="sans-serif" font-size="13" lengthAdjust="spacing" textLength="229" x="408.5" y="780.8872">invokeAfterMethodsConfigurations()</text><line style="stroke:#A80036;stroke-width:1.0;" x1="401.5" x2="443.5" y1="828.0859" y2="828.0859"/><line style="stroke:#A80036;stroke-width:1.0;" x1="443.5" x2="443.5" y1="828.0859" y2="841.0859"/><line style="stroke:#A80036;stroke-width:1.0;" x1="402.5" x2="443.5" y1="841.0859" y2="841.0859"/><polygon fill="#A80036" points="412.5,837.0859,402.5,841.0859,412.5,845.0859,408.5,841.0859" style="stroke:#A80036;stroke-width:1.0;"/><text fill="#000000" font-family="sans-serif" font-size="13" lengthAdjust="spacing" textLength="220" x="408.5" y="823.02">invokeAfterGroupsConfigurations()</text><line style="stroke:#A80036;stroke-width:1.0;" x1="401.5" x2="443.5" y1="877.2188" y2="877.2188"/><line style="stroke:#A80036;stroke-width:1.0;" x1="443.5" x2="443.5" y1="877.2188" y2="890.2188"/><line style="stroke:#A80036;stroke-width:1.0;" x1="402.5" x2="443.5" y1="890.2188" y2="890.2188"/><polygon fill="#A80036" points="412.5,886.2188,402.5,890.2188,412.5,894.2188,408.5,890.2188" style="stroke:#A80036;stroke-width:1.0;"/><text fill="#000000" font-family="sans-serif" font-size="13" lengthAdjust="spacing" textLength="164" x="408.5" y="872.1528">handleInvocationResults()</text><line style="stroke:#A80036;stroke-width:1.0;" x1="401.5" x2="443.5" y1="919.3516" y2="919.3516"/><line style="stroke:#A80036;stroke-width:1.0;" x1="443.5" x2="443.5" y1="919.3516" y2="932.3516"/><line style="stroke:#A80036;stroke-width:1.0;" x1="402.5" x2="443.5" y1="932.3516" y2="932.3516"/><polygon fill="#A80036" points="412.5,928.3516,402.5,932.3516,412.5,936.3516,408.5,932.3516" style="stroke:#A80036;stroke-width:1.0;"/><text fill="#000000" font-family="sans-serif" font-size="13" lengthAdjust="spacing" textLength="77" x="408.5" y="914.2856">retryFailed()</text><polygon fill="#A80036" points="206.5,957.4844,196.5,961.4844,206.5,965.4844,202.5,961.4844" style="stroke:#A80036;stroke-width:1.0;"/><line style="stroke:#A80036;stroke-width:1.0;" x1="200.5" x2="395.5" y1="961.4844" y2="961.4844"/><text fill="#000000" font-family="sans-serif" font-size="13" lengthAdjust="spacing" textLength="113" x="212.5" y="956.4185">List&lt;ITestResult&gt;</text><line style="stroke:#A80036;stroke-width:1.0;" x1="195.5" x2="237.5" y1="990.6172" y2="990.6172"/><line style="stroke:#A80036;stroke-width:1.0;" x1="237.5" x2="237.5" y1="990.6172" y2="1003.6172"/><line style="stroke:#A80036;stroke-width:1.0;" x1="196.5" x2="237.5" y1="1003.6172" y2="1003.6172"/><polygon fill="#A80036" points="206.5,999.6172,196.5,1003.6172,206.5,1007.6172,202.5,1003.6172" style="stroke:#A80036;stroke-width:1.0;"/><text fill="#000000" font-family="sans-serif" font-size="13" lengthAdjust="spacing" textLength="171" x="202.5" y="985.5513">invokeAfterClassMethods()</text><polygon fill="#A80036" points="66,1028.75,56,1032.75,66,1036.75,62,1032.75" style="stroke:#A80036;stroke-width:1.0;"/><line style="stroke:#A80036;stroke-width:1.0;stroke-dasharray:2.0,2.0;" x1="60" x2="189.5" y1="1032.75" y2="1032.75"/><text fill="#000000" font-family="sans-serif" font-size="13" lengthAdjust="spacing" textLength="26" x="72" y="1027.6841">void</text></g></svg>