<?xml version="1.0" encoding="UTF-8" standalone="no"?><svg xmlns="http://www.w3.org/2000/svg" xmlns:xlink="http://www.w3.org/1999/xlink" contentScriptType="application/ecmascript" contentStyleType="text/css" height="290px" preserveAspectRatio="none" style="width:684px;height:290px;" version="1.1" viewBox="0 0 684 290" width="684px" zoomAndPan="magnify"><defs><filter height="300%" id="f1p36lotdrnbx3" width="300%" x="-1" y="-1"><feGaussianBlur result="blurOut" stdDeviation="2.0"/><feColorMatrix in="blurOut" result="blurOut2" type="matrix" values="0 0 0 0 0 0 0 0 0 0 0 0 0 0 0 0 0 0 .4 0"/><feOffset dx="4.0" dy="4.0" in="blurOut2" result="blurOut3"/><feBlend in="SourceGraphic" in2="blurOut3" mode="normal"/></filter></defs><g><rect codeLine="2" fill="#FEFECE" filter="url(#f1p36lotdrnbx3)" height="48" id="ITestNGListener" style="stroke: #A80036; stroke-width: 1.5;" width="130" x="7" y="115"/><ellipse cx="22" cy="131" fill="#B4A7E5" rx="11" ry="11" style="stroke: #A80036; stroke-width: 1.0;"/><path d="M17.9219,126.7656 L17.9219,124.6094 L25.3125,124.6094 L25.3125,126.7656 L22.8438,126.7656 L22.8438,134.8438 L25.3125,134.8438 L25.3125,137 L17.9219,137 L17.9219,134.8438 L20.3906,134.8438 L20.3906,126.7656 L17.9219,126.7656 Z "/><text fill="#000000" font-family="sans-serif" font-size="12" font-style="italic" lengthAdjust="spacingAndGlyphs" textLength="98" x="36" y="135.1543">ITestNGListener</text><line style="stroke: #A80036; stroke-width: 1.5;" x1="8" x2="136" y1="147" y2="147"/><line style="stroke: #A80036; stroke-width: 1.5;" x1="8" x2="136" y1="155" y2="155"/><rect codeLine="4" fill="#FEFECE" filter="url(#f1p36lotdrnbx3)" height="48" id="IConfiguration" style="stroke: #A80036; stroke-width: 1.5;" width="119" x="172.5" y="115"/><ellipse cx="187.5" cy="131" fill="#B4A7E5" rx="11" ry="11" style="stroke: #A80036; stroke-width: 1.0;"/><path d="M183.4219,126.7656 L183.4219,124.6094 L190.8125,124.6094 L190.8125,126.7656 L188.3438,126.7656 L188.3438,134.8438 L190.8125,134.8438 L190.8125,137 L183.4219,137 L183.4219,134.8438 L185.8906,134.8438 L185.8906,126.7656 L183.4219,126.7656 Z "/><text fill="#000000" font-family="sans-serif" font-size="12" font-style="italic" lengthAdjust="spacingAndGlyphs" textLength="87" x="201.5" y="135.1543">IConfiguration</text><line style="stroke: #A80036; stroke-width: 1.5;" x1="173.5" x2="290.5" y1="147" y2="147"/><line style="stroke: #A80036; stroke-width: 1.5;" x1="173.5" x2="290.5" y1="155" y2="155"/><rect fill="#FEFECE" filter="url(#f1p36lotdrnbx3)" height="48" id="TestNG" style="stroke: #A80036; stroke-width: 1.5;" width="77" x="343.5" y="7"/><ellipse cx="358.5" cy="23" fill="#ADD1B2" rx="11" ry="11" style="stroke: #A80036; stroke-width: 1.0;"/><path d="M361.4688,28.6406 Q360.8906,28.9375 360.25,29.0859 Q359.6094,29.2344 358.9063,29.2344 Q356.4063,29.2344 355.0859,27.5859 Q353.7656,25.9375 353.7656,22.8125 Q353.7656,19.6875 355.0859,18.0313 Q356.4063,16.375 358.9063,16.375 Q359.6094,16.375 360.2578,16.5313 Q360.9063,16.6875 361.4688,16.9844 L361.4688,19.7031 Q360.8438,19.125 360.25,18.8516 Q359.6563,18.5781 359.0313,18.5781 Q357.6875,18.5781 357,19.6484 Q356.3125,20.7188 356.3125,22.8125 Q356.3125,24.9063 357,25.9766 Q357.6875,27.0469 359.0313,27.0469 Q359.6563,27.0469 360.25,26.7734 Q360.8438,26.5 361.4688,25.9219 L361.4688,28.6406 Z "/><text fill="#000000" font-family="sans-serif" font-size="12" lengthAdjust="spacingAndGlyphs" textLength="45" x="372.5" y="27.1543">TestNG</text><line style="stroke: #A80036; stroke-width: 1.5;" x1="344.5" x2="419.5" y1="39" y2="39"/><line style="stroke: #A80036; stroke-width: 1.5;" x1="344.5" x2="419.5" y1="47" y2="47"/><rect fill="#FEFECE" filter="url(#f1p36lotdrnbx3)" height="48" id="JCommander" style="stroke: #A80036; stroke-width: 1.5;" width="110" x="327" y="115"/><ellipse cx="342" cy="131" fill="#ADD1B2" rx="11" ry="11" style="stroke: #A80036; stroke-width: 1.0;"/><path d="M344.9688,136.6406 Q344.3906,136.9375 343.75,137.0859 Q343.1094,137.2344 342.4063,137.2344 Q339.9063,137.2344 338.5859,135.5859 Q337.2656,133.9375 337.2656,130.8125 Q337.2656,127.6875 338.5859,126.0313 Q339.9063,124.375 342.4063,124.375 Q343.1094,124.375 343.7578,124.5313 Q344.4063,124.6875 344.9688,124.9844 L344.9688,127.7031 Q344.3438,127.125 343.75,126.8516 Q343.1563,126.5781 342.5313,126.5781 Q341.1875,126.5781 340.5,127.6484 Q339.8125,128.7188 339.8125,130.8125 Q339.8125,132.9063 340.5,133.9766 Q341.1875,135.0469 342.5313,135.0469 Q343.1563,135.0469 343.75,134.7734 Q344.3438,134.5 344.9688,133.9219 L344.9688,136.6406 Z "/><text fill="#000000" font-family="sans-serif" font-size="12" lengthAdjust="spacingAndGlyphs" textLength="78" x="356" y="135.1543">JCommander</text><line style="stroke: #A80036; stroke-width: 1.5;" x1="328" x2="436" y1="147" y2="147"/><line style="stroke: #A80036; stroke-width: 1.5;" x1="328" x2="436" y1="155" y2="155"/><rect fill="#FEFECE" filter="url(#f1p36lotdrnbx3)" height="48" id="CommandLineArgs" style="stroke: #A80036; stroke-width: 1.5;" width="147" x="308.5" y="223"/><ellipse cx="323.5" cy="239" fill="#ADD1B2" rx="11" ry="11" style="stroke: #A80036; stroke-width: 1.0;"/><path d="M326.4688,244.6406 Q325.8906,244.9375 325.25,245.0859 Q324.6094,245.2344 323.9063,245.2344 Q321.4063,245.2344 320.0859,243.5859 Q318.7656,241.9375 318.7656,238.8125 Q318.7656,235.6875 320.0859,234.0313 Q321.4063,232.375 323.9063,232.375 Q324.6094,232.375 325.2578,232.5313 Q325.9063,232.6875 326.4688,232.9844 L326.4688,235.7031 Q325.8438,235.125 325.25,234.8516 Q324.6563,234.5781 324.0313,234.5781 Q322.6875,234.5781 322,235.6484 Q321.3125,236.7188 321.3125,238.8125 Q321.3125,240.9063 322,241.9766 Q322.6875,243.0469 324.0313,243.0469 Q324.6563,243.0469 325.25,242.7734 Q325.8438,242.5 326.4688,241.9219 L326.4688,244.6406 Z "/><text fill="#000000" font-family="sans-serif" font-size="12" lengthAdjust="spacingAndGlyphs" textLength="115" x="337.5" y="243.1543">CommandLineArgs</text><line style="stroke: #A80036; stroke-width: 1.5;" x1="309.5" x2="454.5" y1="255" y2="255"/><line style="stroke: #A80036; stroke-width: 1.5;" x1="309.5" x2="454.5" y1="263" y2="263"/><rect fill="#FEFECE" filter="url(#f1p36lotdrnbx3)" height="48" id="Parser" style="stroke: #A80036; stroke-width: 1.5;" width="73" x="472.5" y="115"/><ellipse cx="487.5" cy="131" fill="#ADD1B2" rx="11" ry="11" style="stroke: #A80036; stroke-width: 1.0;"/><path d="M490.4688,136.6406 Q489.8906,136.9375 489.25,137.0859 Q488.6094,137.2344 487.9063,137.2344 Q485.4063,137.2344 484.0859,135.5859 Q482.7656,133.9375 482.7656,130.8125 Q482.7656,127.6875 484.0859,126.0313 Q485.4063,124.375 487.9063,124.375 Q488.6094,124.375 489.2578,124.5313 Q489.9063,124.6875 490.4688,124.9844 L490.4688,127.7031 Q489.8438,127.125 489.25,126.8516 Q488.6563,126.5781 488.0313,126.5781 Q486.6875,126.5781 486,127.6484 Q485.3125,128.7188 485.3125,130.8125 Q485.3125,132.9063 486,133.9766 Q486.6875,135.0469 488.0313,135.0469 Q488.6563,135.0469 489.25,134.7734 Q489.8438,134.5 490.4688,133.9219 L490.4688,136.6406 Z "/><text fill="#000000" font-family="sans-serif" font-size="12" lengthAdjust="spacingAndGlyphs" textLength="41" x="501.5" y="135.1543">Parser</text><line style="stroke: #A80036; stroke-width: 1.5;" x1="473.5" x2="544.5" y1="147" y2="147"/><line style="stroke: #A80036; stroke-width: 1.5;" x1="473.5" x2="544.5" y1="155" y2="155"/><rect fill="#FEFECE" filter="url(#f1p36lotdrnbx3)" height="48" id="XmlSuite" style="stroke: #A80036; stroke-width: 1.5;" width="85" x="580.5" y="115"/><ellipse cx="595.5" cy="131" fill="#ADD1B2" rx="11" ry="11" style="stroke: #A80036; stroke-width: 1.0;"/><path d="M598.4688,136.6406 Q597.8906,136.9375 597.25,137.0859 Q596.6094,137.2344 595.9063,137.2344 Q593.4063,137.2344 592.0859,135.5859 Q590.7656,133.9375 590.7656,130.8125 Q590.7656,127.6875 592.0859,126.0313 Q593.4063,124.375 595.9063,124.375 Q596.6094,124.375 597.2578,124.5313 Q597.9063,124.6875 598.4688,124.9844 L598.4688,127.7031 Q597.8438,127.125 597.25,126.8516 Q596.6563,126.5781 596.0313,126.5781 Q594.6875,126.5781 594,127.6484 Q593.3125,128.7188 593.3125,130.8125 Q593.3125,132.9063 594,133.9766 Q594.6875,135.0469 596.0313,135.0469 Q596.6563,135.0469 597.25,134.7734 Q597.8438,134.5 598.4688,133.9219 L598.4688,136.6406 Z "/><text fill="#000000" font-family="sans-serif" font-size="12" lengthAdjust="spacingAndGlyphs" textLength="53" x="609.5" y="135.1543">XmlSuite</text><line style="stroke: #A80036; stroke-width: 1.5;" x1="581.5" x2="664.5" y1="147" y2="147"/><line style="stroke: #A80036; stroke-width: 1.5;" x1="581.5" x2="664.5" y1="155" y2="155"/><path codeLine="6" d="M330.8955,48.8041 C277.8809,67.2737 194.814,96.2132 137.1249,116.3113 " fill="none" id="TestNG-backto-ITestNGListener" style="stroke: #A80036; stroke-width: 1.0;"/><polygon fill="#A80036" points="343.3651,44.4599,336.3831,42.6566,332.0331,48.4079,339.0151,50.2112,343.3651,44.4599" style="stroke: #A80036; stroke-width: 1.0;"/><text fill="#000000" font-family="sans-serif" font-size="13" lengthAdjust="spacingAndGlyphs" textLength="8" x="327.5043" y="42.6379">1</text><text fill="#000000" font-family="sans-serif" font-size="13" lengthAdjust="spacingAndGlyphs" textLength="7" x="145.0597" y="109.8953">*</text><path codeLine="7" d="M337.7612,62.8519 C314.6621,79.4833 286.8541,99.5051 265.5506,114.8436 " fill="none" id="TestNG-backto-IConfiguration" style="stroke: #A80036; stroke-width: 1.0;"/><polygon fill="#A80036" points="348.3371,55.2373,341.1307,55.497,338.5987,62.249,345.8051,61.9893,348.3371,55.2373" style="stroke: #A80036; stroke-width: 1.0;"/><path codeLine="9" d="M382,68.6145 C382,83.9531 382,101.2402 382,114.8436 " fill="none" id="TestNG-backto-JCommander" style="stroke: #A80036; stroke-width: 1.0;"/><polygon fill="#A80036" points="382,55.2373,378,61.2373,382,67.2373,386,61.2373,382,55.2373" style="stroke: #A80036; stroke-width: 1.0;"/><path codeLine="10" d="M382,176.6145 C382,191.9531 382,209.2402 382,222.8436 " fill="none" id="JCommander-backto-CommandLineArgs" style="stroke: #A80036; stroke-width: 1.0;"/><polygon fill="#A80036" points="382,163.2373,378,169.2373,382,175.2373,386,169.2373,382,163.2373" style="stroke: #A80036; stroke-width: 1.0;"/><path codeLine="12" d="M420.5213,63.7582 C439.8632,80.2065 462.8833,99.7827 480.5938,114.8436 " fill="none" id="TestNG-backto-Parser" style="stroke: #A80036; stroke-width: 1.0;"/><polygon fill="#A80036" points="410.5013,55.2373,412.4807,62.1714,419.6428,63.0112,417.6633,56.0771,410.5013,55.2373" style="stroke: #A80036; stroke-width: 1.0;"/><path codeLine="14" d="M432.8204,53.7743 C476.6012,73.3939 539.0778,101.3917 580.313,119.8706 " fill="none" id="TestNG-backto-XmlSuite" style="stroke: #A80036; stroke-width: 1.0;"/><polygon fill="#A80036" points="420.7208,48.3521,424.5604,54.456,431.6715,53.2594,427.8319,47.1555,420.7208,48.3521" style="stroke: #A80036; stroke-width: 1.0;"/><text fill="#000000" font-family="sans-serif" font-size="13" lengthAdjust="spacingAndGlyphs" textLength="8" x="428.5974" y="47.2477">1</text><text fill="#000000" font-family="sans-serif" font-size="13" lengthAdjust="spacingAndGlyphs" textLength="7" x="565.3746" y="112.372">*</text></g></svg>