<?xml version="1.0" encoding="UTF-8" standalone="no"?><svg xmlns="http://www.w3.org/2000/svg" xmlns:xlink="http://www.w3.org/1999/xlink" contentScriptType="application/ecmascript" contentStyleType="text/css" height="544px" preserveAspectRatio="none" style="width:549px;height:544px;" version="1.1" viewBox="0 0 549 544" width="549px" zoomAndPan="magnify"><defs><filter height="300%" id="feluq4nol4ju1" width="300%" x="-1" y="-1"><feGaussianBlur result="blurOut" stdDeviation="2.0"/><feColorMatrix in="blurOut" result="blurOut2" type="matrix" values="0 0 0 0 0 0 0 0 0 0 0 0 0 0 0 0 0 0 .4 0"/><feOffset dx="4.0" dy="4.0" in="blurOut2" result="blurOut3"/><feBlend in="SourceGraphic" in2="blurOut3" mode="normal"/></filter></defs><g><rect fill="#FEFECE" filter="url(#feluq4nol4ju1)" height="48" id="IPostProcessor" style="stroke: #A80036; stroke-width: 1.5;" width="126" x="84" y="115"/><ellipse cx="99" cy="131" fill="#ADD1B2" rx="11" ry="11" style="stroke: #A80036; stroke-width: 1.0;"/><path d="M101.9688,136.6406 Q101.3906,136.9375 100.75,137.0859 Q100.1094,137.2344 99.4063,137.2344 Q96.9063,137.2344 95.5859,135.5859 Q94.2656,133.9375 94.2656,130.8125 Q94.2656,127.6875 95.5859,126.0313 Q96.9063,124.375 99.4063,124.375 Q100.1094,124.375 100.7578,124.5313 Q101.4063,124.6875 101.9688,124.9844 L101.9688,127.7031 Q101.3438,127.125 100.75,126.8516 Q100.1563,126.5781 99.5313,126.5781 Q98.1875,126.5781 97.5,127.6484 Q96.8125,128.7188 96.8125,130.8125 Q96.8125,132.9063 97.5,133.9766 Q98.1875,135.0469 99.5313,135.0469 Q100.1563,135.0469 100.75,134.7734 Q101.3438,134.5 101.9688,133.9219 L101.9688,136.6406 Z "/><text fill="#000000" font-family="sans-serif" font-size="12" lengthAdjust="spacingAndGlyphs" textLength="94" x="113" y="135.1543">IPostProcessor</text><line style="stroke: #A80036; stroke-width: 1.5;" x1="85" x2="209" y1="147" y2="147"/><line style="stroke: #A80036; stroke-width: 1.5;" x1="85" x2="209" y1="155" y2="155"/><rect fill="#FEFECE" filter="url(#feluq4nol4ju1)" height="48" id="OverrideProcessor" style="stroke: #A80036; stroke-width: 1.5;" width="147" x="68.5" y="223"/><ellipse cx="83.5" cy="239" fill="#ADD1B2" rx="11" ry="11" style="stroke: #A80036; stroke-width: 1.0;"/><path d="M86.4688,244.6406 Q85.8906,244.9375 85.25,245.0859 Q84.6094,245.2344 83.9063,245.2344 Q81.4063,245.2344 80.0859,243.5859 Q78.7656,241.9375 78.7656,238.8125 Q78.7656,235.6875 80.0859,234.0313 Q81.4063,232.375 83.9063,232.375 Q84.6094,232.375 85.2578,232.5313 Q85.9063,232.6875 86.4688,232.9844 L86.4688,235.7031 Q85.8438,235.125 85.25,234.8516 Q84.6563,234.5781 84.0313,234.5781 Q82.6875,234.5781 82,235.6484 Q81.3125,236.7188 81.3125,238.8125 Q81.3125,240.9063 82,241.9766 Q82.6875,243.0469 84.0313,243.0469 Q84.6563,243.0469 85.25,242.7734 Q85.8438,242.5 86.4688,241.9219 L86.4688,244.6406 Z "/><text fill="#000000" font-family="sans-serif" font-size="12" lengthAdjust="spacingAndGlyphs" textLength="115" x="97.5" y="243.1543">OverrideProcessor</text><line style="stroke: #A80036; stroke-width: 1.5;" x1="69.5" x2="214.5" y1="255" y2="255"/><line style="stroke: #A80036; stroke-width: 1.5;" x1="69.5" x2="214.5" y1="263" y2="263"/><rect fill="#FEFECE" filter="url(#feluq4nol4ju1)" height="48" id="IFileParser" style="stroke: #A80036; stroke-width: 1.5;" width="97" x="250.5" y="115"/><ellipse cx="265.5" cy="131" fill="#ADD1B2" rx="11" ry="11" style="stroke: #A80036; stroke-width: 1.0;"/><path d="M268.4688,136.6406 Q267.8906,136.9375 267.25,137.0859 Q266.6094,137.2344 265.9063,137.2344 Q263.4063,137.2344 262.0859,135.5859 Q260.7656,133.9375 260.7656,130.8125 Q260.7656,127.6875 262.0859,126.0313 Q263.4063,124.375 265.9063,124.375 Q266.6094,124.375 267.2578,124.5313 Q267.9063,124.6875 268.4688,124.9844 L268.4688,127.7031 Q267.8438,127.125 267.25,126.8516 Q266.6563,126.5781 266.0313,126.5781 Q264.6875,126.5781 264,127.6484 Q263.3125,128.7188 263.3125,130.8125 Q263.3125,132.9063 264,133.9766 Q264.6875,135.0469 266.0313,135.0469 Q266.6563,135.0469 267.25,134.7734 Q267.8438,134.5 268.4688,133.9219 L268.4688,136.6406 Z "/><text fill="#000000" font-family="sans-serif" font-size="12" lengthAdjust="spacingAndGlyphs" textLength="65" x="279.5" y="135.1543">IFileParser</text><line style="stroke: #A80036; stroke-width: 1.5;" x1="251.5" x2="346.5" y1="147" y2="147"/><line style="stroke: #A80036; stroke-width: 1.5;" x1="251.5" x2="346.5" y1="155" y2="155"/><rect fill="#FEFECE" filter="url(#feluq4nol4ju1)" height="48" id="XMLParser" style="stroke: #A80036; stroke-width: 1.5;" width="96" x="251" y="223"/><ellipse cx="266" cy="239" fill="#ADD1B2" rx="11" ry="11" style="stroke: #A80036; stroke-width: 1.0;"/><path d="M268.9688,244.6406 Q268.3906,244.9375 267.75,245.0859 Q267.1094,245.2344 266.4063,245.2344 Q263.9063,245.2344 262.5859,243.5859 Q261.2656,241.9375 261.2656,238.8125 Q261.2656,235.6875 262.5859,234.0313 Q263.9063,232.375 266.4063,232.375 Q267.1094,232.375 267.7578,232.5313 Q268.4063,232.6875 268.9688,232.9844 L268.9688,235.7031 Q268.3438,235.125 267.75,234.8516 Q267.1563,234.5781 266.5313,234.5781 Q265.1875,234.5781 264.5,235.6484 Q263.8125,236.7188 263.8125,238.8125 Q263.8125,240.9063 264.5,241.9766 Q265.1875,243.0469 266.5313,243.0469 Q267.1563,243.0469 267.75,242.7734 Q268.3438,242.5 268.9688,241.9219 L268.9688,244.6406 Z "/><text fill="#000000" font-family="sans-serif" font-size="12" lengthAdjust="spacingAndGlyphs" textLength="64" x="280" y="243.1543">XMLParser</text><line style="stroke: #A80036; stroke-width: 1.5;" x1="252" x2="346" y1="255" y2="255"/><line style="stroke: #A80036; stroke-width: 1.5;" x1="252" x2="346" y1="263" y2="263"/><rect fill="#FEFECE" filter="url(#feluq4nol4ju1)" height="48" id="SuiteXmlParser" style="stroke: #A80036; stroke-width: 1.5;" width="126" x="77" y="331"/><ellipse cx="92" cy="347" fill="#ADD1B2" rx="11" ry="11" style="stroke: #A80036; stroke-width: 1.0;"/><path d="M94.9688,352.6406 Q94.3906,352.9375 93.75,353.0859 Q93.1094,353.2344 92.4063,353.2344 Q89.9063,353.2344 88.5859,351.5859 Q87.2656,349.9375 87.2656,346.8125 Q87.2656,343.6875 88.5859,342.0313 Q89.9063,340.375 92.4063,340.375 Q93.1094,340.375 93.7578,340.5313 Q94.4063,340.6875 94.9688,340.9844 L94.9688,343.7031 Q94.3438,343.125 93.75,342.8516 Q93.1563,342.5781 92.5313,342.5781 Q91.1875,342.5781 90.5,343.6484 Q89.8125,344.7188 89.8125,346.8125 Q89.8125,348.9063 90.5,349.9766 Q91.1875,351.0469 92.5313,351.0469 Q93.1563,351.0469 93.75,350.7734 Q94.3438,350.5 94.9688,349.9219 L94.9688,352.6406 Z "/><text fill="#000000" font-family="sans-serif" font-size="12" lengthAdjust="spacingAndGlyphs" textLength="94" x="106" y="351.1543">SuiteXmlParser</text><line style="stroke: #A80036; stroke-width: 1.5;" x1="78" x2="202" y1="363" y2="363"/><line style="stroke: #A80036; stroke-width: 1.5;" x1="78" x2="202" y1="371" y2="371"/><rect fill="#FEFECE" filter="url(#feluq4nol4ju1)" height="48" id="DomXmlParser" style="stroke: #A80036; stroke-width: 1.5;" width="122" x="238" y="331"/><ellipse cx="253" cy="347" fill="#ADD1B2" rx="11" ry="11" style="stroke: #A80036; stroke-width: 1.0;"/><path d="M255.9688,352.6406 Q255.3906,352.9375 254.75,353.0859 Q254.1094,353.2344 253.4063,353.2344 Q250.9063,353.2344 249.5859,351.5859 Q248.2656,349.9375 248.2656,346.8125 Q248.2656,343.6875 249.5859,342.0313 Q250.9063,340.375 253.4063,340.375 Q254.1094,340.375 254.7578,340.5313 Q255.4063,340.6875 255.9688,340.9844 L255.9688,343.7031 Q255.3438,343.125 254.75,342.8516 Q254.1563,342.5781 253.5313,342.5781 Q252.1875,342.5781 251.5,343.6484 Q250.8125,344.7188 250.8125,346.8125 Q250.8125,348.9063 251.5,349.9766 Q252.1875,351.0469 253.5313,351.0469 Q254.1563,351.0469 254.75,350.7734 Q255.3438,350.5 255.9688,349.9219 L255.9688,352.6406 Z "/><text fill="#000000" font-family="sans-serif" font-size="12" lengthAdjust="spacingAndGlyphs" textLength="90" x="267" y="351.1543">DomXmlParser</text><line style="stroke: #A80036; stroke-width: 1.5;" x1="239" x2="359" y1="363" y2="363"/><line style="stroke: #A80036; stroke-width: 1.5;" x1="239" x2="359" y1="371" y2="371"/><rect fill="#FEFECE" filter="url(#feluq4nol4ju1)" height="48" id="ResultXMLParser" style="stroke: #A80036; stroke-width: 1.5;" width="135" x="395.5" y="331"/><ellipse cx="410.5" cy="347" fill="#ADD1B2" rx="11" ry="11" style="stroke: #A80036; stroke-width: 1.0;"/><path d="M413.4688,352.6406 Q412.8906,352.9375 412.25,353.0859 Q411.6094,353.2344 410.9063,353.2344 Q408.4063,353.2344 407.0859,351.5859 Q405.7656,349.9375 405.7656,346.8125 Q405.7656,343.6875 407.0859,342.0313 Q408.4063,340.375 410.9063,340.375 Q411.6094,340.375 412.2578,340.5313 Q412.9063,340.6875 413.4688,340.9844 L413.4688,343.7031 Q412.8438,343.125 412.25,342.8516 Q411.6563,342.5781 411.0313,342.5781 Q409.6875,342.5781 409,343.6484 Q408.3125,344.7188 408.3125,346.8125 Q408.3125,348.9063 409,349.9766 Q409.6875,351.0469 411.0313,351.0469 Q411.6563,351.0469 412.25,350.7734 Q412.8438,350.5 413.4688,349.9219 L413.4688,352.6406 Z "/><text fill="#000000" font-family="sans-serif" font-size="12" lengthAdjust="spacingAndGlyphs" textLength="103" x="424.5" y="351.1543">ResultXMLParser</text><line style="stroke: #A80036; stroke-width: 1.5;" x1="396.5" x2="529.5" y1="363" y2="363"/><line style="stroke: #A80036; stroke-width: 1.5;" x1="396.5" x2="529.5" y1="371" y2="371"/><rect fill="#FEFECE" filter="url(#feluq4nol4ju1)" height="48" id="YamlParser" style="stroke: #A80036; stroke-width: 1.5;" width="102" x="382" y="223"/><ellipse cx="397" cy="239" fill="#ADD1B2" rx="11" ry="11" style="stroke: #A80036; stroke-width: 1.0;"/><path d="M399.9688,244.6406 Q399.3906,244.9375 398.75,245.0859 Q398.1094,245.2344 397.4063,245.2344 Q394.9063,245.2344 393.5859,243.5859 Q392.2656,241.9375 392.2656,238.8125 Q392.2656,235.6875 393.5859,234.0313 Q394.9063,232.375 397.4063,232.375 Q398.1094,232.375 398.7578,232.5313 Q399.4063,232.6875 399.9688,232.9844 L399.9688,235.7031 Q399.3438,235.125 398.75,234.8516 Q398.1563,234.5781 397.5313,234.5781 Q396.1875,234.5781 395.5,235.6484 Q394.8125,236.7188 394.8125,238.8125 Q394.8125,240.9063 395.5,241.9766 Q396.1875,243.0469 397.5313,243.0469 Q398.1563,243.0469 398.75,242.7734 Q399.3438,242.5 399.9688,241.9219 L399.9688,244.6406 Z "/><text fill="#000000" font-family="sans-serif" font-size="12" lengthAdjust="spacingAndGlyphs" textLength="70" x="411" y="243.1543">YamlParser</text><line style="stroke: #A80036; stroke-width: 1.5;" x1="383" x2="483" y1="255" y2="255"/><line style="stroke: #A80036; stroke-width: 1.5;" x1="383" x2="483" y1="263" y2="263"/><rect fill="#FEFECE" filter="url(#feluq4nol4ju1)" height="48" id="SAXParser" style="stroke: #A80036; stroke-width: 1.5;" width="96" x="7" y="458"/><ellipse cx="22" cy="474" fill="#ADD1B2" rx="11" ry="11" style="stroke: #A80036; stroke-width: 1.0;"/><path d="M24.9688,479.6406 Q24.3906,479.9375 23.75,480.0859 Q23.1094,480.2344 22.4063,480.2344 Q19.9063,480.2344 18.5859,478.5859 Q17.2656,476.9375 17.2656,473.8125 Q17.2656,470.6875 18.5859,469.0313 Q19.9063,467.375 22.4063,467.375 Q23.1094,467.375 23.7578,467.5313 Q24.4063,467.6875 24.9688,467.9844 L24.9688,470.7031 Q24.3438,470.125 23.75,469.8516 Q23.1563,469.5781 22.5313,469.5781 Q21.1875,469.5781 20.5,470.6484 Q19.8125,471.7188 19.8125,473.8125 Q19.8125,475.9063 20.5,476.9766 Q21.1875,478.0469 22.5313,478.0469 Q23.1563,478.0469 23.75,477.7734 Q24.3438,477.5 24.9688,476.9219 L24.9688,479.6406 Z "/><text fill="#000000" font-family="sans-serif" font-size="12" lengthAdjust="spacingAndGlyphs" textLength="64" x="36" y="478.1543">SAXParser</text><line style="stroke: #A80036; stroke-width: 1.5;" x1="8" x2="102" y1="490" y2="490"/><line style="stroke: #A80036; stroke-width: 1.5;" x1="8" x2="102" y1="498" y2="498"/><rect codeLine="13" fill="#FEFECE" filter="url(#feluq4nol4ju1)" height="86.4141" id="TestNGContentHandler" style="stroke: #A80036; stroke-width: 1.5;" width="176" x="138" y="439"/><ellipse cx="153" cy="455" fill="#ADD1B2" rx="11" ry="11" style="stroke: #A80036; stroke-width: 1.0;"/><path d="M155.9688,460.6406 Q155.3906,460.9375 154.75,461.0859 Q154.1094,461.2344 153.4063,461.2344 Q150.9063,461.2344 149.5859,459.5859 Q148.2656,457.9375 148.2656,454.8125 Q148.2656,451.6875 149.5859,450.0313 Q150.9063,448.375 153.4063,448.375 Q154.1094,448.375 154.7578,448.5313 Q155.4063,448.6875 155.9688,448.9844 L155.9688,451.7031 Q155.3438,451.125 154.75,450.8516 Q154.1563,450.5781 153.5313,450.5781 Q152.1875,450.5781 151.5,451.6484 Q150.8125,452.7188 150.8125,454.8125 Q150.8125,456.9063 151.5,457.9766 Q152.1875,459.0469 153.5313,459.0469 Q154.1563,459.0469 154.75,458.7734 Q155.3438,458.5 155.9688,457.9219 L155.9688,460.6406 Z "/><text fill="#000000" font-family="sans-serif" font-size="12" lengthAdjust="spacingAndGlyphs" textLength="144" x="167" y="459.1543">TestNGContentHandler</text><line style="stroke: #A80036; stroke-width: 1.5;" x1="139" x2="313" y1="471" y2="471"/><line style="stroke: #A80036; stroke-width: 1.5;" x1="139" x2="313" y1="479" y2="479"/><text fill="#000000" font-family="sans-serif" font-size="11" lengthAdjust="spacingAndGlyphs" textLength="81" x="144" y="493.2104">resolveEntity()</text><text fill="#000000" font-family="sans-serif" font-size="11" lengthAdjust="spacingAndGlyphs" textLength="81" x="144" y="506.0151">startElement()</text><text fill="#000000" font-family="sans-serif" font-size="11" lengthAdjust="spacingAndGlyphs" textLength="75" x="144" y="518.8198">endElement()</text><rect fill="#FEFECE" filter="url(#feluq4nol4ju1)" height="48" id="Parser" style="stroke: #A80036; stroke-width: 1.5;" width="73" x="183.5" y="7"/><ellipse cx="198.5" cy="23" fill="#ADD1B2" rx="11" ry="11" style="stroke: #A80036; stroke-width: 1.0;"/><path d="M201.4688,28.6406 Q200.8906,28.9375 200.25,29.0859 Q199.6094,29.2344 198.9063,29.2344 Q196.4063,29.2344 195.0859,27.5859 Q193.7656,25.9375 193.7656,22.8125 Q193.7656,19.6875 195.0859,18.0313 Q196.4063,16.375 198.9063,16.375 Q199.6094,16.375 200.2578,16.5313 Q200.9063,16.6875 201.4688,16.9844 L201.4688,19.7031 Q200.8438,19.125 200.25,18.8516 Q199.6563,18.5781 199.0313,18.5781 Q197.6875,18.5781 197,19.6484 Q196.3125,20.7188 196.3125,22.8125 Q196.3125,24.9063 197,25.9766 Q197.6875,27.0469 199.0313,27.0469 Q199.6563,27.0469 200.25,26.7734 Q200.8438,26.5 201.4688,25.9219 L201.4688,28.6406 Z "/><text fill="#000000" font-family="sans-serif" font-size="12" lengthAdjust="spacingAndGlyphs" textLength="41" x="212.5" y="27.1543">Parser</text><line style="stroke: #A80036; stroke-width: 1.5;" x1="184.5" x2="255.5" y1="39" y2="39"/><line style="stroke: #A80036; stroke-width: 1.5;" x1="184.5" x2="255.5" y1="47" y2="47"/><path codeLine="2" d="M144.9495,183.2911 C144.3233,196.8171 143.6582,211.1835 143.1184,222.8436 " fill="none" id="IPostProcessor-backto-OverrideProcessor" style="stroke: #A80036; stroke-width: 1.0;"/><polygon fill="none" points="137.9604,182.8921,145.8779,163.2373,151.9454,183.5397,137.9604,182.8921" style="stroke: #A80036; stroke-width: 1.0;"/><path codeLine="4" d="M299,183.2911 C299,196.8171 299,211.1835 299,222.8436 " fill="none" id="IFileParser-backto-XMLParser" style="stroke: #A80036; stroke-width: 1.0;"/><polygon fill="none" points="292.0001,183.2373,299,163.2373,306.0001,183.2373,292.0001,183.2373" style="stroke: #A80036; stroke-width: 1.0;"/><path codeLine="5" d="M246.7149,282.5144 C223.3899,298.3578 196.5105,316.6155 175.5636,330.8436 " fill="none" id="XMLParser-backto-SuiteXmlParser" style="stroke: #A80036; stroke-width: 1.0;"/><polygon fill="none" points="242.8397,276.6845,263.3173,271.2373,250.7061,288.2655,242.8397,276.6845" style="stroke: #A80036; stroke-width: 1.0;"/><path codeLine="6" d="M299,291.2911 C299,304.8171 299,319.1835 299,330.8436 " fill="none" id="XMLParser-backto-DomXmlParser" style="stroke: #A80036; stroke-width: 1.0;"/><polygon fill="none" points="292.0001,291.2373,299,271.2373,306.0001,291.2373,292.0001,291.2373" style="stroke: #A80036; stroke-width: 1.0;"/><path codeLine="7" d="M352.5774,282.2827 C376.7171,298.1796 404.6071,316.5461 426.318,330.8436 " fill="none" id="XMLParser-backto-ResultXMLParser" style="stroke: #A80036; stroke-width: 1.0;"/><polygon fill="none" points="348.6583,288.0834,335.8048,271.2373,356.3582,276.391,348.6583,288.0834" style="stroke: #A80036; stroke-width: 1.0;"/><path codeLine="8" d="M344.7977,175.9116 C364.0435,191.4231 385.8915,209.032 403.0282,222.8436 " fill="none" id="IFileParser-backto-YamlParser" style="stroke: #A80036; stroke-width: 1.0;"/><polygon fill="none" points="340.2515,181.238,329.0722,163.2373,349.0369,170.3377,340.2515,181.238" style="stroke: #A80036; stroke-width: 1.0;"/><path codeLine="10" d="M116.4412,390.1997 C102.0163,411.7521 83.9317,438.7727 71.1277,457.9034 " fill="none" id="SuiteXmlParser-backto-SAXParser" style="stroke: #A80036; stroke-width: 1.0;"/><polygon fill="#FFFFFF" points="123.8121,379.1867,117.1507,381.9481,117.1376,389.1592,123.799,386.3978,123.8121,379.1867" style="stroke: #A80036; stroke-width: 1.0;"/><path codeLine="11" d="M163.7859,390.1257 C174.0046,405.216 186.0457,422.9978 196.799,438.8776 " fill="none" id="SuiteXmlParser-backto-TestNGContentHandler" style="stroke: #A80036; stroke-width: 1.0;"/><polygon fill="#FFFFFF" points="156.3784,379.1867,156.4306,386.3976,163.1069,389.1229,163.0547,381.912,156.3784,379.1867" style="stroke: #A80036; stroke-width: 1.0;"/><path codeLine="19" d="M196.1515,66.2827 C185.4064,82.1796 172.992,100.5461 163.3279,114.8436 " fill="none" id="Parser-backto-IPostProcessor" style="stroke: #A80036; stroke-width: 1.0;"/><polygon fill="#FFFFFF" points="203.6174,55.2373,196.9434,57.9683,196.8974,65.1792,203.5714,62.4483,203.6174,55.2373" style="stroke: #A80036; stroke-width: 1.0;"/><path codeLine="20" d="M245.4705,65.8204 C257.1758,81.8226 270.7702,100.4073 281.33,114.8436 " fill="none" id="Parser-backto-IFileParser" style="stroke: #A80036; stroke-width: 1.0;"/><polygon fill="#FFFFFF" points="237.7291,55.2373,238.0429,62.4416,244.8137,64.9228,244.4999,57.7185,237.7291,55.2373" style="stroke: #A80036; stroke-width: 1.0;"/></g></svg>