<?xml version="1.0" encoding="UTF-8" standalone="no"?><svg xmlns="http://www.w3.org/2000/svg" xmlns:xlink="http://www.w3.org/1999/xlink" contentScriptType="application/ecmascript" contentStyleType="text/css" height="398px" preserveAspectRatio="none" style="width:594px;height:398px;" version="1.1" viewBox="0 0 594 398" width="594px" zoomAndPan="magnify"><defs><filter height="300%" id="f1vflcnbl23wul" width="300%" x="-1" y="-1"><feGaussianBlur result="blurOut" stdDeviation="2.0"/><feColorMatrix in="blurOut" result="blurOut2" type="matrix" values="0 0 0 0 0 0 0 0 0 0 0 0 0 0 0 0 0 0 .4 0"/><feOffset dx="4.0" dy="4.0" in="blurOut2" result="blurOut3"/><feBlend in="SourceGraphic" in2="blurOut3" mode="normal"/></filter></defs><g><rect fill="#FEFECE" filter="url(#f1vflcnbl23wul)" height="48" id="XmlSuite" style="stroke: #A80036; stroke-width: 1.5;" width="85" x="291.5" y="7"/><ellipse cx="306.5" cy="23" fill="#ADD1B2" rx="11" ry="11" style="stroke: #A80036; stroke-width: 1.0;"/><path d="M309.4688,28.6406 Q308.8906,28.9375 308.25,29.0859 Q307.6094,29.2344 306.9063,29.2344 Q304.4063,29.2344 303.0859,27.5859 Q301.7656,25.9375 301.7656,22.8125 Q301.7656,19.6875 303.0859,18.0313 Q304.4063,16.375 306.9063,16.375 Q307.6094,16.375 308.2578,16.5313 Q308.9063,16.6875 309.4688,16.9844 L309.4688,19.7031 Q308.8438,19.125 308.25,18.8516 Q307.6563,18.5781 307.0313,18.5781 Q305.6875,18.5781 305,19.6484 Q304.3125,20.7188 304.3125,22.8125 Q304.3125,24.9063 305,25.9766 Q305.6875,27.0469 307.0313,27.0469 Q307.6563,27.0469 308.25,26.7734 Q308.8438,26.5 309.4688,25.9219 L309.4688,28.6406 Z "/><text fill="#000000" font-family="sans-serif" font-size="12" lengthAdjust="spacingAndGlyphs" textLength="53" x="320.5" y="27.1543">XmlSuite</text><line style="stroke: #A80036; stroke-width: 1.5;" x1="292.5" x2="375.5" y1="39" y2="39"/><line style="stroke: #A80036; stroke-width: 1.5;" x1="292.5" x2="375.5" y1="47" y2="47"/><rect fill="#FEFECE" filter="url(#f1vflcnbl23wul)" height="48" id="XmlTest" style="stroke: #A80036; stroke-width: 1.5;" width="80" x="143" y="115"/><ellipse cx="158" cy="131" fill="#ADD1B2" rx="11" ry="11" style="stroke: #A80036; stroke-width: 1.0;"/><path d="M160.9688,136.6406 Q160.3906,136.9375 159.75,137.0859 Q159.1094,137.2344 158.4063,137.2344 Q155.9063,137.2344 154.5859,135.5859 Q153.2656,133.9375 153.2656,130.8125 Q153.2656,127.6875 154.5859,126.0313 Q155.9063,124.375 158.4063,124.375 Q159.1094,124.375 159.7578,124.5313 Q160.4063,124.6875 160.9688,124.9844 L160.9688,127.7031 Q160.3438,127.125 159.75,126.8516 Q159.1563,126.5781 158.5313,126.5781 Q157.1875,126.5781 156.5,127.6484 Q155.8125,128.7188 155.8125,130.8125 Q155.8125,132.9063 156.5,133.9766 Q157.1875,135.0469 158.5313,135.0469 Q159.1563,135.0469 159.75,134.7734 Q160.3438,134.5 160.9688,133.9219 L160.9688,136.6406 Z "/><text fill="#000000" font-family="sans-serif" font-size="12" lengthAdjust="spacingAndGlyphs" textLength="48" x="172" y="135.1543">XmlTest</text><line style="stroke: #A80036; stroke-width: 1.5;" x1="144" x2="222" y1="147" y2="147"/><line style="stroke: #A80036; stroke-width: 1.5;" x1="144" x2="222" y1="155" y2="155"/><rect fill="#FEFECE" filter="url(#f1vflcnbl23wul)" height="48" id="XmlMethodSelector" style="stroke: #A80036; stroke-width: 1.5;" width="152" x="258" y="115"/><ellipse cx="273" cy="131" fill="#ADD1B2" rx="11" ry="11" style="stroke: #A80036; stroke-width: 1.0;"/><path d="M275.9688,136.6406 Q275.3906,136.9375 274.75,137.0859 Q274.1094,137.2344 273.4063,137.2344 Q270.9063,137.2344 269.5859,135.5859 Q268.2656,133.9375 268.2656,130.8125 Q268.2656,127.6875 269.5859,126.0313 Q270.9063,124.375 273.4063,124.375 Q274.1094,124.375 274.7578,124.5313 Q275.4063,124.6875 275.9688,124.9844 L275.9688,127.7031 Q275.3438,127.125 274.75,126.8516 Q274.1563,126.5781 273.5313,126.5781 Q272.1875,126.5781 271.5,127.6484 Q270.8125,128.7188 270.8125,130.8125 Q270.8125,132.9063 271.5,133.9766 Q272.1875,135.0469 273.5313,135.0469 Q274.1563,135.0469 274.75,134.7734 Q275.3438,134.5 275.9688,133.9219 L275.9688,136.6406 Z "/><text fill="#000000" font-family="sans-serif" font-size="12" lengthAdjust="spacingAndGlyphs" textLength="120" x="287" y="135.1543">XmlMethodSelector</text><line style="stroke: #A80036; stroke-width: 1.5;" x1="259" x2="409" y1="147" y2="147"/><line style="stroke: #A80036; stroke-width: 1.5;" x1="259" x2="409" y1="155" y2="155"/><rect fill="#FEFECE" filter="url(#f1vflcnbl23wul)" height="48" id="ITestNGListener" style="stroke: #A80036; stroke-width: 1.5;" width="130" x="445" y="115"/><ellipse cx="460" cy="131" fill="#ADD1B2" rx="11" ry="11" style="stroke: #A80036; stroke-width: 1.0;"/><path d="M462.9688,136.6406 Q462.3906,136.9375 461.75,137.0859 Q461.1094,137.2344 460.4063,137.2344 Q457.9063,137.2344 456.5859,135.5859 Q455.2656,133.9375 455.2656,130.8125 Q455.2656,127.6875 456.5859,126.0313 Q457.9063,124.375 460.4063,124.375 Q461.1094,124.375 461.7578,124.5313 Q462.4063,124.6875 462.9688,124.9844 L462.9688,127.7031 Q462.3438,127.125 461.75,126.8516 Q461.1563,126.5781 460.5313,126.5781 Q459.1875,126.5781 458.5,127.6484 Q457.8125,128.7188 457.8125,130.8125 Q457.8125,132.9063 458.5,133.9766 Q459.1875,135.0469 460.5313,135.0469 Q461.1563,135.0469 461.75,134.7734 Q462.3438,134.5 462.9688,133.9219 L462.9688,136.6406 Z "/><text fill="#000000" font-family="sans-serif" font-size="12" lengthAdjust="spacingAndGlyphs" textLength="98" x="474" y="135.1543">ITestNGListener</text><line style="stroke: #A80036; stroke-width: 1.5;" x1="446" x2="574" y1="147" y2="147"/><line style="stroke: #A80036; stroke-width: 1.5;" x1="446" x2="574" y1="155" y2="155"/><rect fill="#FEFECE" filter="url(#f1vflcnbl23wul)" height="48" id="XmlGroups" style="stroke: #A80036; stroke-width: 1.5;" width="98" x="7" y="223"/><ellipse cx="22" cy="239" fill="#ADD1B2" rx="11" ry="11" style="stroke: #A80036; stroke-width: 1.0;"/><path d="M24.9688,244.6406 Q24.3906,244.9375 23.75,245.0859 Q23.1094,245.2344 22.4063,245.2344 Q19.9063,245.2344 18.5859,243.5859 Q17.2656,241.9375 17.2656,238.8125 Q17.2656,235.6875 18.5859,234.0313 Q19.9063,232.375 22.4063,232.375 Q23.1094,232.375 23.7578,232.5313 Q24.4063,232.6875 24.9688,232.9844 L24.9688,235.7031 Q24.3438,235.125 23.75,234.8516 Q23.1563,234.5781 22.5313,234.5781 Q21.1875,234.5781 20.5,235.6484 Q19.8125,236.7188 19.8125,238.8125 Q19.8125,240.9063 20.5,241.9766 Q21.1875,243.0469 22.5313,243.0469 Q23.1563,243.0469 23.75,242.7734 Q24.3438,242.5 24.9688,241.9219 L24.9688,244.6406 Z "/><text fill="#000000" font-family="sans-serif" font-size="12" lengthAdjust="spacingAndGlyphs" textLength="66" x="36" y="243.1543">XmlGroups</text><line style="stroke: #A80036; stroke-width: 1.5;" x1="8" x2="104" y1="255" y2="255"/><line style="stroke: #A80036; stroke-width: 1.5;" x1="8" x2="104" y1="263" y2="263"/><rect fill="#FEFECE" filter="url(#f1vflcnbl23wul)" height="48" id="XmlGroup" style="stroke: #A80036; stroke-width: 1.5;" width="91" x="10.5" y="331"/><ellipse cx="25.5" cy="347" fill="#ADD1B2" rx="11" ry="11" style="stroke: #A80036; stroke-width: 1.0;"/><path d="M28.4688,352.6406 Q27.8906,352.9375 27.25,353.0859 Q26.6094,353.2344 25.9063,353.2344 Q23.4063,353.2344 22.0859,351.5859 Q20.7656,349.9375 20.7656,346.8125 Q20.7656,343.6875 22.0859,342.0313 Q23.4063,340.375 25.9063,340.375 Q26.6094,340.375 27.2578,340.5313 Q27.9063,340.6875 28.4688,340.9844 L28.4688,343.7031 Q27.8438,343.125 27.25,342.8516 Q26.6563,342.5781 26.0313,342.5781 Q24.6875,342.5781 24,343.6484 Q23.3125,344.7188 23.3125,346.8125 Q23.3125,348.9063 24,349.9766 Q24.6875,351.0469 26.0313,351.0469 Q26.6563,351.0469 27.25,350.7734 Q27.8438,350.5 28.4688,349.9219 L28.4688,352.6406 Z "/><text fill="#000000" font-family="sans-serif" font-size="12" lengthAdjust="spacingAndGlyphs" textLength="59" x="39.5" y="351.1543">XmlGroup</text><line style="stroke: #A80036; stroke-width: 1.5;" x1="11.5" x2="100.5" y1="363" y2="363"/><line style="stroke: #A80036; stroke-width: 1.5;" x1="11.5" x2="100.5" y1="371" y2="371"/><rect fill="#FEFECE" filter="url(#f1vflcnbl23wul)" height="48" id="XmlClass" style="stroke: #A80036; stroke-width: 1.5;" width="86" x="140" y="223"/><ellipse cx="155" cy="239" fill="#ADD1B2" rx="11" ry="11" style="stroke: #A80036; stroke-width: 1.0;"/><path d="M157.9688,244.6406 Q157.3906,244.9375 156.75,245.0859 Q156.1094,245.2344 155.4063,245.2344 Q152.9063,245.2344 151.5859,243.5859 Q150.2656,241.9375 150.2656,238.8125 Q150.2656,235.6875 151.5859,234.0313 Q152.9063,232.375 155.4063,232.375 Q156.1094,232.375 156.7578,232.5313 Q157.4063,232.6875 157.9688,232.9844 L157.9688,235.7031 Q157.3438,235.125 156.75,234.8516 Q156.1563,234.5781 155.5313,234.5781 Q154.1875,234.5781 153.5,235.6484 Q152.8125,236.7188 152.8125,238.8125 Q152.8125,240.9063 153.5,241.9766 Q154.1875,243.0469 155.5313,243.0469 Q156.1563,243.0469 156.75,242.7734 Q157.3438,242.5 157.9688,241.9219 L157.9688,244.6406 Z "/><text fill="#000000" font-family="sans-serif" font-size="12" lengthAdjust="spacingAndGlyphs" textLength="54" x="169" y="243.1543">XmlClass</text><line style="stroke: #A80036; stroke-width: 1.5;" x1="141" x2="225" y1="255" y2="255"/><line style="stroke: #A80036; stroke-width: 1.5;" x1="141" x2="225" y1="263" y2="263"/><rect fill="#FEFECE" filter="url(#f1vflcnbl23wul)" height="48" id="XmlPackage" style="stroke: #A80036; stroke-width: 1.5;" width="107" x="261.5" y="223"/><ellipse cx="276.5" cy="239" fill="#ADD1B2" rx="11" ry="11" style="stroke: #A80036; stroke-width: 1.0;"/><path d="M279.4688,244.6406 Q278.8906,244.9375 278.25,245.0859 Q277.6094,245.2344 276.9063,245.2344 Q274.4063,245.2344 273.0859,243.5859 Q271.7656,241.9375 271.7656,238.8125 Q271.7656,235.6875 273.0859,234.0313 Q274.4063,232.375 276.9063,232.375 Q277.6094,232.375 278.2578,232.5313 Q278.9063,232.6875 279.4688,232.9844 L279.4688,235.7031 Q278.8438,235.125 278.25,234.8516 Q277.6563,234.5781 277.0313,234.5781 Q275.6875,234.5781 275,235.6484 Q274.3125,236.7188 274.3125,238.8125 Q274.3125,240.9063 275,241.9766 Q275.6875,243.0469 277.0313,243.0469 Q277.6563,243.0469 278.25,242.7734 Q278.8438,242.5 279.4688,241.9219 L279.4688,244.6406 Z "/><text fill="#000000" font-family="sans-serif" font-size="12" lengthAdjust="spacingAndGlyphs" textLength="75" x="290.5" y="243.1543">XmlPackage</text><line style="stroke: #A80036; stroke-width: 1.5;" x1="262.5" x2="367.5" y1="255" y2="255"/><line style="stroke: #A80036; stroke-width: 1.5;" x1="262.5" x2="367.5" y1="263" y2="263"/><path codeLine="1" d="M289.4663,62.8519 C266.2132,79.4833 238.2198,99.5051 216.7742,114.8436 " fill="none" id="XmlSuite-backto-XmlTest" style="stroke: #A80036; stroke-width: 1.0;"/><polygon fill="#FFFFFF" points="300.1127,55.2373,292.9055,55.4743,290.3522,62.2182,297.5595,61.9813,300.1127,55.2373" style="stroke: #A80036; stroke-width: 1.0;"/><text fill="#000000" font-family="sans-serif" font-size="13" lengthAdjust="spacingAndGlyphs" textLength="8" x="282.8777" y="75.0563">1</text><text fill="#000000" font-family="sans-serif" font-size="13" lengthAdjust="spacingAndGlyphs" textLength="7" x="217.532" y="103.8156">*</text><path codeLine="2" d="M334,68.6145 C334,83.9531 334,101.2402 334,114.8436 " fill="none" id="XmlSuite-backto-XmlMethodSelector" style="stroke: #A80036; stroke-width: 1.0;"/><polygon fill="#FFFFFF" points="334,55.2373,330,61.2373,334,67.2373,338,61.2373,334,55.2373" style="stroke: #A80036; stroke-width: 1.0;"/><text fill="#000000" font-family="sans-serif" font-size="13" lengthAdjust="spacingAndGlyphs" textLength="8" x="325.025" y="75.0563">1</text><text fill="#000000" font-family="sans-serif" font-size="13" lengthAdjust="spacingAndGlyphs" textLength="7" x="326.1031" y="103.8156">*</text><path codeLine="3" d="M384.8061,62.1765 C412.1225,78.9388 445.2986,99.2968 470.634,114.8436 " fill="none" id="XmlSuite-backto-ITestNGListener" style="stroke: #A80036; stroke-width: 1.0;"/><polygon fill="#FFFFFF" points="373.4978,55.2373,376.5196,61.7847,383.7256,61.5136,380.7038,54.9662,373.4978,55.2373" style="stroke: #A80036; stroke-width: 1.0;"/><text fill="#000000" font-family="sans-serif" font-size="13" lengthAdjust="spacingAndGlyphs" textLength="8" x="374.1504" y="75.0563">1</text><text fill="#000000" font-family="sans-serif" font-size="13" lengthAdjust="spacingAndGlyphs" textLength="7" x="452.6496" y="103.8156">*</text><path codeLine="5" d="M144.4787,171.7582 C125.1368,188.2065 102.1167,207.7827 84.4062,222.8436 " fill="none" id="XmlTest-backto-XmlGroups" style="stroke: #A80036; stroke-width: 1.0;"/><polygon fill="#FFFFFF" points="154.4987,163.2373,147.3367,164.0771,145.3572,171.0112,152.5193,170.1714,154.4987,163.2373" style="stroke: #A80036; stroke-width: 1.0;"/><path codeLine="6" d="M56,284.6145 C56,299.9531 56,317.2402 56,330.8436 " fill="none" id="XmlGroups-backto-XmlGroup" style="stroke: #A80036; stroke-width: 1.0;"/><polygon fill="#FFFFFF" points="56,271.2373,52,277.2373,56,283.2373,60,277.2373,56,271.2373" style="stroke: #A80036; stroke-width: 1.0;"/><text fill="#000000" font-family="sans-serif" font-size="13" lengthAdjust="spacingAndGlyphs" textLength="8" x="47.025" y="291.0563">1</text><text fill="#000000" font-family="sans-serif" font-size="13" lengthAdjust="spacingAndGlyphs" textLength="7" x="48.1031" y="319.8156">*</text><path codeLine="7" d="M183,176.6145 C183,191.9531 183,209.2402 183,222.8436 " fill="none" id="XmlTest-backto-XmlClass" style="stroke: #A80036; stroke-width: 1.0;"/><polygon fill="#FFFFFF" points="183,163.2373,179,169.2373,183,175.2373,187,169.2373,183,163.2373" style="stroke: #A80036; stroke-width: 1.0;"/><text fill="#000000" font-family="sans-serif" font-size="13" lengthAdjust="spacingAndGlyphs" textLength="8" x="174.025" y="183.0563">1</text><text fill="#000000" font-family="sans-serif" font-size="13" lengthAdjust="spacingAndGlyphs" textLength="7" x="175.1031" y="211.8156">*</text><path codeLine="8" d="M222.7602,171.5311 C242.9206,188.026 266.9829,207.7133 285.4755,222.8436 " fill="none" id="XmlTest-backto-XmlPackage" style="stroke: #A80036; stroke-width: 1.0;"/><polygon fill="#FFFFFF" points="212.6234,163.2373,214.7342,170.1326,221.9109,170.8362,219.8001,163.9409,212.6234,163.2373" style="stroke: #A80036; stroke-width: 1.0;"/><text fill="#000000" font-family="sans-serif" font-size="13" lengthAdjust="spacingAndGlyphs" textLength="8" x="210.8691" y="183.0563">1</text><text fill="#000000" font-family="sans-serif" font-size="13" lengthAdjust="spacingAndGlyphs" textLength="7" x="270.013" y="211.8156">*</text></g></svg>