<?xml version="1.0" encoding="UTF-8" standalone="no"?><svg xmlns="http://www.w3.org/2000/svg" xmlns:xlink="http://www.w3.org/1999/xlink" contentScriptType="application/ecmascript" contentStyleType="text/css" height="182px" preserveAspectRatio="none" style="width:111px;height:182px;" version="1.1" viewBox="0 0 111 182" width="111px" zoomAndPan="magnify"><defs><filter height="300%" id="ft6rr6hrks11y" width="300%" x="-1" y="-1"><feGaussianBlur result="blurOut" stdDeviation="2.0"/><feColorMatrix in="blurOut" result="blurOut2" type="matrix" values="0 0 0 0 0 0 0 0 0 0 0 0 0 0 0 0 0 0 .4 0"/><feOffset dx="4.0" dy="4.0" in="blurOut2" result="blurOut3"/><feBlend in="SourceGraphic" in2="blurOut3" mode="normal"/></filter></defs><g><rect fill="#FEFECE" filter="url(#ft6rr6hrks11y)" height="48" id="XmlSuite" style="stroke: #A80036; stroke-width: 1.5;" width="85" x="7" y="7"/><ellipse cx="22" cy="23" fill="#ADD1B2" rx="11" ry="11" style="stroke: #A80036; stroke-width: 1.0;"/><path d="M24.9688,28.6406 Q24.3906,28.9375 23.75,29.0859 Q23.1094,29.2344 22.4063,29.2344 Q19.9063,29.2344 18.5859,27.5859 Q17.2656,25.9375 17.2656,22.8125 Q17.2656,19.6875 18.5859,18.0313 Q19.9063,16.375 22.4063,16.375 Q23.1094,16.375 23.7578,16.5313 Q24.4063,16.6875 24.9688,16.9844 L24.9688,19.7031 Q24.3438,19.125 23.75,18.8516 Q23.1563,18.5781 22.5313,18.5781 Q21.1875,18.5781 20.5,19.6484 Q19.8125,20.7188 19.8125,22.8125 Q19.8125,24.9063 20.5,25.9766 Q21.1875,27.0469 22.5313,27.0469 Q23.1563,27.0469 23.75,26.7734 Q24.3438,26.5 24.9688,25.9219 L24.9688,28.6406 Z "/><text fill="#000000" font-family="sans-serif" font-size="12" lengthAdjust="spacingAndGlyphs" textLength="53" x="36" y="27.1543">XmlSuite</text><line style="stroke: #A80036; stroke-width: 1.5;" x1="8" x2="91" y1="39" y2="39"/><line style="stroke: #A80036; stroke-width: 1.5;" x1="8" x2="91" y1="47" y2="47"/><rect fill="#FEFECE" filter="url(#ft6rr6hrks11y)" height="48" id="XmlTest" style="stroke: #A80036; stroke-width: 1.5;" width="80" x="9.5" y="115"/><ellipse cx="24.5" cy="131" fill="#ADD1B2" rx="11" ry="11" style="stroke: #A80036; stroke-width: 1.0;"/><path d="M27.4688,136.6406 Q26.8906,136.9375 26.25,137.0859 Q25.6094,137.2344 24.9063,137.2344 Q22.4063,137.2344 21.0859,135.5859 Q19.7656,133.9375 19.7656,130.8125 Q19.7656,127.6875 21.0859,126.0313 Q22.4063,124.375 24.9063,124.375 Q25.6094,124.375 26.2578,124.5313 Q26.9063,124.6875 27.4688,124.9844 L27.4688,127.7031 Q26.8438,127.125 26.25,126.8516 Q25.6563,126.5781 25.0313,126.5781 Q23.6875,126.5781 23,127.6484 Q22.3125,128.7188 22.3125,130.8125 Q22.3125,132.9063 23,133.9766 Q23.6875,135.0469 25.0313,135.0469 Q25.6563,135.0469 26.25,134.7734 Q26.8438,134.5 27.4688,133.9219 L27.4688,136.6406 Z "/><text fill="#000000" font-family="sans-serif" font-size="12" lengthAdjust="spacingAndGlyphs" textLength="48" x="38.5" y="135.1543">XmlTest</text><line style="stroke: #A80036; stroke-width: 1.5;" x1="10.5" x2="88.5" y1="147" y2="147"/><line style="stroke: #A80036; stroke-width: 1.5;" x1="10.5" x2="88.5" y1="155" y2="155"/><path codeLine="1" d="M49.5,68.6145 C49.5,83.9531 49.5,101.2402 49.5,114.8436 " fill="none" id="XmlSuite-backto-XmlTest" style="stroke: #A80036; stroke-width: 1.0;"/><polygon fill="#FFFFFF" points="49.5,55.2373,45.5,61.2373,49.5,67.2373,53.5,61.2373,49.5,55.2373" style="stroke: #A80036; stroke-width: 1.0;"/></g></svg>