<?xml version="1.0" encoding="UTF-8" standalone="no"?><svg xmlns="http://www.w3.org/2000/svg" xmlns:xlink="http://www.w3.org/1999/xlink" contentScriptType="application/ecmascript" contentStyleType="text/css" height="182px" preserveAspectRatio="none" style="width:375px;height:182px;" version="1.1" viewBox="0 0 375 182" width="375px" zoomAndPan="magnify"><defs><filter height="300%" id="f19rimpgzrsgcn" width="300%" x="-1" y="-1"><feGaussianBlur result="blurOut" stdDeviation="2.0"/><feColorMatrix in="blurOut" result="blurOut2" type="matrix" values="0 0 0 0 0 0 0 0 0 0 0 0 0 0 0 0 0 0 .4 0"/><feOffset dx="4.0" dy="4.0" in="blurOut2" result="blurOut3"/><feBlend in="SourceGraphic" in2="blurOut3" mode="normal"/></filter></defs><g><rect codeLine="1" fill="#FEFECE" filter="url(#f19rimpgzrsgcn)" height="48" id="ISuiteListener" style="stroke: #A80036; stroke-width: 1.5;" width="117" x="7" y="115"/><ellipse cx="22" cy="131" fill="#B4A7E5" rx="11" ry="11" style="stroke: #A80036; stroke-width: 1.0;"/><path d="M17.9219,126.7656 L17.9219,124.6094 L25.3125,124.6094 L25.3125,126.7656 L22.8438,126.7656 L22.8438,134.8438 L25.3125,134.8438 L25.3125,137 L17.9219,137 L17.9219,134.8438 L20.3906,134.8438 L20.3906,126.7656 L17.9219,126.7656 Z "/><text fill="#000000" font-family="sans-serif" font-size="12" font-style="italic" lengthAdjust="spacingAndGlyphs" textLength="85" x="36" y="135.1543">ISuiteListener</text><line style="stroke: #A80036; stroke-width: 1.5;" x1="8" x2="123" y1="147" y2="147"/><line style="stroke: #A80036; stroke-width: 1.5;" x1="8" x2="123" y1="155" y2="155"/><rect fill="#FEFECE" filter="url(#f19rimpgzrsgcn)" height="48" id="ITestNGListener" style="stroke: #A80036; stroke-width: 1.5;" width="130" x="150.5" y="7"/><ellipse cx="165.5" cy="23" fill="#B4A7E5" rx="11" ry="11" style="stroke: #A80036; stroke-width: 1.0;"/><path d="M161.4219,18.7656 L161.4219,16.6094 L168.8125,16.6094 L168.8125,18.7656 L166.3438,18.7656 L166.3438,26.8438 L168.8125,26.8438 L168.8125,29 L161.4219,29 L161.4219,26.8438 L163.8906,26.8438 L163.8906,18.7656 L161.4219,18.7656 Z "/><text fill="#000000" font-family="sans-serif" font-size="12" font-style="italic" lengthAdjust="spacingAndGlyphs" textLength="98" x="179.5" y="27.1543">ITestNGListener</text><line style="stroke: #A80036; stroke-width: 1.5;" x1="151.5" x2="279.5" y1="39" y2="39"/><line style="stroke: #A80036; stroke-width: 1.5;" x1="151.5" x2="279.5" y1="47" y2="47"/><rect codeLine="2" fill="#FEFECE" filter="url(#f19rimpgzrsgcn)" height="48" id="ITestListener" style="stroke: #A80036; stroke-width: 1.5;" width="112" x="159.5" y="115"/><ellipse cx="174.5" cy="131" fill="#B4A7E5" rx="11" ry="11" style="stroke: #A80036; stroke-width: 1.0;"/><path d="M170.4219,126.7656 L170.4219,124.6094 L177.8125,124.6094 L177.8125,126.7656 L175.3438,126.7656 L175.3438,134.8438 L177.8125,134.8438 L177.8125,137 L170.4219,137 L170.4219,134.8438 L172.8906,134.8438 L172.8906,126.7656 L170.4219,126.7656 Z "/><text fill="#000000" font-family="sans-serif" font-size="12" font-style="italic" lengthAdjust="spacingAndGlyphs" textLength="80" x="188.5" y="135.1543">ITestListener</text><line style="stroke: #A80036; stroke-width: 1.5;" x1="160.5" x2="270.5" y1="147" y2="147"/><line style="stroke: #A80036; stroke-width: 1.5;" x1="160.5" x2="270.5" y1="155" y2="155"/><rect codeLine="3" fill="#FEFECE" filter="url(#f19rimpgzrsgcn)" height="48" id="***" style="stroke: #A80036; stroke-width: 1.5;" width="50" x="306.5" y="115"/><ellipse cx="321.5" cy="131" fill="#B4A7E5" rx="11" ry="11" style="stroke: #A80036; stroke-width: 1.0;"/><path d="M317.4219,126.7656 L317.4219,124.6094 L324.8125,124.6094 L324.8125,126.7656 L322.3438,126.7656 L322.3438,134.8438 L324.8125,134.8438 L324.8125,137 L317.4219,137 L317.4219,134.8438 L319.8906,134.8438 L319.8906,126.7656 L317.4219,126.7656 Z "/><text fill="#000000" font-family="sans-serif" font-size="12" font-style="italic" lengthAdjust="spacingAndGlyphs" textLength="18" x="335.5" y="135.1543">***</text><line style="stroke: #A80036; stroke-width: 1.5;" x1="307.5" x2="355.5" y1="147" y2="147"/><line style="stroke: #A80036; stroke-width: 1.5;" x1="307.5" x2="355.5" y1="155" y2="155"/><path d="M165.5295,66.9788 C143.6755,82.7137 118.619,100.7544 99.0506,114.8436 " fill="none" id="ITestNGListener-backto-ISuiteListener" style="stroke: #A80036; stroke-width: 1.0;"/><polygon fill="none" points="161.5162,61.2427,181.8371,55.2373,169.6965,72.6042,161.5162,61.2427" style="stroke: #A80036; stroke-width: 1.0;"/><path d="M215.5,75.2911 C215.5,88.8171 215.5,103.1835 215.5,114.8436 " fill="none" id="ITestNGListener-backto-ITestListener" style="stroke: #A80036; stroke-width: 1.0;"/><polygon fill="none" points="208.5001,75.2373,215.5,55.2373,222.5001,75.2373,208.5001,75.2373" style="stroke: #A80036; stroke-width: 1.0;"/><path d="M256.3686,69.0501 C273.028,84.5606 291.759,101.9997 306.3509,115.5854 " fill="none" id="ITestNGListener-backto-***" style="stroke: #A80036; stroke-width: 1.0;"/><polygon fill="none" points="251.4006,73.989,241.5327,55.2373,260.9405,63.7424,251.4006,73.989" style="stroke: #A80036; stroke-width: 1.0;"/></g></svg>