<?xml version="1.0" encoding="UTF-8" standalone="no"?><svg xmlns="http://www.w3.org/2000/svg" xmlns:xlink="http://www.w3.org/1999/xlink" contentScriptType="application/ecmascript" contentStyleType="text/css" height="182px" preserveAspectRatio="none" style="width:353px;height:182px;" version="1.1" viewBox="0 0 353 182" width="353px" zoomAndPan="magnify"><defs><filter height="300%" id="f1hdy9f5terak4" width="300%" x="-1" y="-1"><feGaussianBlur result="blurOut" stdDeviation="2.0"/><feColorMatrix in="blurOut" result="blurOut2" type="matrix" values="0 0 0 0 0 0 0 0 0 0 0 0 0 0 0 0 0 0 .4 0"/><feOffset dx="4.0" dy="4.0" in="blurOut2" result="blurOut3"/><feBlend in="SourceGraphic" in2="blurOut3" mode="normal"/></filter></defs><g><rect codeLine="1" fill="#FEFECE" filter="url(#f1hdy9f5terak4)" height="48" id="ISuiteListener" style="stroke: #A80036; stroke-width: 1.5;" width="117" x="7" y="115"/><ellipse cx="22" cy="131" fill="#B4A7E5" rx="11" ry="11" style="stroke: #A80036; stroke-width: 1.0;"/><path d="M17.9219,126.7656 L17.9219,124.6094 L25.3125,124.6094 L25.3125,126.7656 L22.8438,126.7656 L22.8438,134.8438 L25.3125,134.8438 L25.3125,137 L17.9219,137 L17.9219,134.8438 L20.3906,134.8438 L20.3906,126.7656 L17.9219,126.7656 Z "/><text fill="#000000" font-family="sans-serif" font-size="12" font-style="italic" lengthAdjust="spacingAndGlyphs" textLength="85" x="36" y="135.1543">ISuiteListener</text><line style="stroke: #A80036; stroke-width: 1.5;" x1="8" x2="123" y1="147" y2="147"/><line style="stroke: #A80036; stroke-width: 1.5;" x1="8" x2="123" y1="155" y2="155"/><rect fill="#FEFECE" filter="url(#f1hdy9f5terak4)" height="48" id="ITestNGListener" style="stroke: #A80036; stroke-width: 1.5;" width="130" x="139.5" y="7"/><ellipse cx="154.5" cy="23" fill="#B4A7E5" rx="11" ry="11" style="stroke: #A80036; stroke-width: 1.0;"/><path d="M150.4219,18.7656 L150.4219,16.6094 L157.8125,16.6094 L157.8125,18.7656 L155.3438,18.7656 L155.3438,26.8438 L157.8125,26.8438 L157.8125,29 L150.4219,29 L150.4219,26.8438 L152.8906,26.8438 L152.8906,18.7656 L150.4219,18.7656 Z "/><text fill="#000000" font-family="sans-serif" font-size="12" font-style="italic" lengthAdjust="spacingAndGlyphs" textLength="98" x="168.5" y="27.1543">ITestNGListener</text><line style="stroke: #A80036; stroke-width: 1.5;" x1="140.5" x2="268.5" y1="39" y2="39"/><line style="stroke: #A80036; stroke-width: 1.5;" x1="140.5" x2="268.5" y1="47" y2="47"/><rect codeLine="2" fill="#FEFECE" filter="url(#f1hdy9f5terak4)" height="48" id="IReporter" style="stroke: #A80036; stroke-width: 1.5;" width="90" x="159.5" y="115"/><ellipse cx="174.5" cy="131" fill="#B4A7E5" rx="11" ry="11" style="stroke: #A80036; stroke-width: 1.0;"/><path d="M170.4219,126.7656 L170.4219,124.6094 L177.8125,124.6094 L177.8125,126.7656 L175.3438,126.7656 L175.3438,134.8438 L177.8125,134.8438 L177.8125,137 L170.4219,137 L170.4219,134.8438 L172.8906,134.8438 L172.8906,126.7656 L170.4219,126.7656 Z "/><text fill="#000000" font-family="sans-serif" font-size="12" font-style="italic" lengthAdjust="spacingAndGlyphs" textLength="58" x="188.5" y="135.1543">IReporter</text><line style="stroke: #A80036; stroke-width: 1.5;" x1="160.5" x2="248.5" y1="147" y2="147"/><line style="stroke: #A80036; stroke-width: 1.5;" x1="160.5" x2="248.5" y1="155" y2="155"/><rect codeLine="3" fill="#FEFECE" filter="url(#f1hdy9f5terak4)" height="48" id="***" style="stroke: #A80036; stroke-width: 1.5;" width="50" x="284.5" y="115"/><ellipse cx="299.5" cy="131" fill="#B4A7E5" rx="11" ry="11" style="stroke: #A80036; stroke-width: 1.0;"/><path d="M295.4219,126.7656 L295.4219,124.6094 L302.8125,124.6094 L302.8125,126.7656 L300.3438,126.7656 L300.3438,134.8438 L302.8125,134.8438 L302.8125,137 L295.4219,137 L295.4219,134.8438 L297.8906,134.8438 L297.8906,126.7656 L295.4219,126.7656 Z "/><text fill="#000000" font-family="sans-serif" font-size="12" font-style="italic" lengthAdjust="spacingAndGlyphs" textLength="18" x="313.5" y="135.1543">***</text><line style="stroke: #A80036; stroke-width: 1.5;" x1="285.5" x2="333.5" y1="147" y2="147"/><line style="stroke: #A80036; stroke-width: 1.5;" x1="285.5" x2="333.5" y1="155" y2="155"/><path d="M157.2942,67.6779 C137.2574,83.246 114.4556,100.9626 96.5902,114.8436 " fill="none" id="ITestNGListener-backto-ISuiteListener" style="stroke: #A80036; stroke-width: 1.0;"/><polygon fill="none" points="153.2177,61.9807,173.3057,55.2373,161.8073,73.0359,153.2177,61.9807" style="stroke: #A80036; stroke-width: 1.0;"/><path d="M204.5,75.2911 C204.5,88.8171 204.5,103.1835 204.5,114.8436 " fill="none" id="ITestNGListener-backto-IReporter" style="stroke: #A80036; stroke-width: 1.0;"/><polygon fill="none" points="197.5001,75.2373,204.5,55.2373,211.5001,75.2373,197.5001,75.2373" style="stroke: #A80036; stroke-width: 1.0;"/><path d="M242.4443,70.0285 C257.0079,85.0081 273.1939,101.6566 286.0146,114.8436 " fill="none" id="ITestNGListener-backto-***" style="stroke: #A80036; stroke-width: 1.0;"/><polygon fill="none" points="236.9867,74.4568,228.064,55.2373,247.0246,64.6977,236.9867,74.4568" style="stroke: #A80036; stroke-width: 1.0;"/></g></svg>