<?xml version="1.0" encoding="UTF-8" standalone="no"?><svg xmlns="http://www.w3.org/2000/svg" xmlns:xlink="http://www.w3.org/1999/xlink" contentScriptType="application/ecmascript" contentStyleType="text/css" height="303px" preserveAspectRatio="none" style="width:804px;height:303px;" version="1.1" viewBox="0 0 804 303" width="804px" zoomAndPan="magnify"><defs><filter height="300%" id="f1rohl5ytusz01" width="300%" x="-1" y="-1"><feGaussianBlur result="blurOut" stdDeviation="2.0"/><feColorMatrix in="blurOut" result="blurOut2" type="matrix" values="0 0 0 0 0 0 0 0 0 0 0 0 0 0 0 0 0 0 .4 0"/><feOffset dx="4.0" dy="4.0" in="blurOut2" result="blurOut3"/><feBlend in="SourceGraphic" in2="blurOut3" mode="normal"/></filter></defs><g><rect codeLine="1" fill="#FEFECE" filter="url(#f1rohl5ytusz01)" height="60.8047" id="IAnnotationFinder" style="stroke: #A80036; stroke-width: 1.5;" width="295" x="258" y="7"/><ellipse cx="345.75" cy="23" fill="#B4A7E5" rx="11" ry="11" style="stroke: #A80036; stroke-width: 1.0;"/><path d="M341.6719,18.7656 L341.6719,16.6094 L349.0625,16.6094 L349.0625,18.7656 L346.5938,18.7656 L346.5938,26.8438 L349.0625,26.8438 L349.0625,29 L341.6719,29 L341.6719,26.8438 L344.1406,26.8438 L344.1406,18.7656 L341.6719,18.7656 Z "/><text fill="#000000" font-family="sans-serif" font-size="12" font-style="italic" lengthAdjust="spacingAndGlyphs" textLength="111" x="366.25" y="27.1543">IAnnotationFinder</text><line style="stroke: #A80036; stroke-width: 1.5;" x1="259" x2="552" y1="39" y2="39"/><text fill="#000000" font-family="sans-serif" font-size="11" lengthAdjust="spacingAndGlyphs" textLength="283" x="264" y="53.2104">Map&lt;IAnnotation, Annotation&gt; annotationMapping</text><line style="stroke: #A80036; stroke-width: 1.5;" x1="259" x2="552" y1="59.8047" y2="59.8047"/><rect fill="#FEFECE" filter="url(#f1rohl5ytusz01)" height="48" id="IAnnotation" style="stroke: #A80036; stroke-width: 1.5;" width="104" x="284.5" y="128"/><ellipse cx="299.5" cy="144" fill="#ADD1B2" rx="11" ry="11" style="stroke: #A80036; stroke-width: 1.0;"/><path d="M302.4688,149.6406 Q301.8906,149.9375 301.25,150.0859 Q300.6094,150.2344 299.9063,150.2344 Q297.4063,150.2344 296.0859,148.5859 Q294.7656,146.9375 294.7656,143.8125 Q294.7656,140.6875 296.0859,139.0313 Q297.4063,137.375 299.9063,137.375 Q300.6094,137.375 301.2578,137.5313 Q301.9063,137.6875 302.4688,137.9844 L302.4688,140.7031 Q301.8438,140.125 301.25,139.8516 Q300.6563,139.5781 300.0313,139.5781 Q298.6875,139.5781 298,140.6484 Q297.3125,141.7188 297.3125,143.8125 Q297.3125,145.9063 298,146.9766 Q298.6875,148.0469 300.0313,148.0469 Q300.6563,148.0469 301.25,147.7734 Q301.8438,147.5 302.4688,146.9219 L302.4688,149.6406 Z "/><text fill="#000000" font-family="sans-serif" font-size="12" lengthAdjust="spacingAndGlyphs" textLength="72" x="313.5" y="148.1543">IAnnotation</text><line style="stroke: #A80036; stroke-width: 1.5;" x1="285.5" x2="387.5" y1="160" y2="160"/><line style="stroke: #A80036; stroke-width: 1.5;" x1="285.5" x2="387.5" y1="168" y2="168"/><rect codeLine="13" fill="#FEFECE" filter="url(#f1rohl5ytusz01)" height="48" id="Annotation" style="stroke: #A80036; stroke-width: 1.5;" width="101" x="467" y="128"/><ellipse cx="482" cy="144" fill="#E3664A" rx="11" ry="11" style="stroke: #A80036; stroke-width: 1.0;"/><path d="M484.0781,144.4688 Q484.0781,143.5313 483.6563,143 Q483.2344,142.4688 482.4844,142.4688 Q481.75,142.4688 481.3359,143 Q480.9219,143.5313 480.9219,144.4688 Q480.9219,145.4219 481.3359,145.9531 Q481.75,146.4844 482.4844,146.4844 Q483.2344,146.4844 483.6563,145.9531 Q484.0781,145.4219 484.0781,144.4688 Z M485.625,147.875 L484,147.875 L484,147.2031 Q483.6719,147.6406 483.25,147.8438 Q482.8281,148.0469 482.2188,148.0469 Q480.8594,148.0469 480.0313,147.0703 Q479.2031,146.0938 479.2031,144.4688 Q479.2031,142.875 480.0313,141.8984 Q480.8594,140.9219 482.2188,140.9219 Q482.8125,140.9219 483.2656,141.125 Q483.7188,141.3281 484,141.7188 L484,141.375 Q484,140.25 483.375,139.6328 Q482.75,139.0156 481.6094,139.0156 Q479.8906,139.0156 478.7969,140.5391 Q477.7031,142.0625 477.7031,144.5 Q477.7031,147.0469 478.9609,148.5469 Q480.2188,150.0469 482.3281,150.0469 Q482.9844,150.0469 483.6094,149.8594 Q484.2344,149.6719 484.8125,149.2813 L485.5781,150.7344 Q484.9063,151.1875 484.1094,151.4141 Q483.3125,151.6406 482.4063,151.6406 Q479.5,151.6406 477.7734,149.7109 Q476.0469,147.7813 476.0469,144.5 Q476.0469,141.2813 477.6016,139.3516 Q479.1563,137.4219 481.7188,137.4219 Q483.5156,137.4219 484.5703,138.5156 Q485.625,139.6094 485.625,141.4844 L485.625,147.875 Z "/><text fill="#000000" font-family="sans-serif" font-size="12" lengthAdjust="spacingAndGlyphs" textLength="69" x="496" y="148.1543">Annotation</text><line style="stroke: #A80036; stroke-width: 1.5;" x1="468" x2="567" y1="160" y2="160"/><line style="stroke: #A80036; stroke-width: 1.5;" x1="468" x2="567" y1="168" y2="168"/><rect codeLine="9" fill="#FEFECE" filter="url(#f1rohl5ytusz01)" height="48" id="IListenersAnnotation" style="stroke: #A80036; stroke-width: 1.5;" width="161" x="7" y="236"/><ellipse cx="22" cy="252" fill="#B4A7E5" rx="11" ry="11" style="stroke: #A80036; stroke-width: 1.0;"/><path d="M17.9219,247.7656 L17.9219,245.6094 L25.3125,245.6094 L25.3125,247.7656 L22.8438,247.7656 L22.8438,255.8438 L25.3125,255.8438 L25.3125,258 L17.9219,258 L17.9219,255.8438 L20.3906,255.8438 L20.3906,247.7656 L17.9219,247.7656 Z "/><text fill="#000000" font-family="sans-serif" font-size="12" font-style="italic" lengthAdjust="spacingAndGlyphs" textLength="129" x="36" y="256.1543">IListenersAnnotation</text><line style="stroke: #A80036; stroke-width: 1.5;" x1="8" x2="167" y1="268" y2="268"/><line style="stroke: #A80036; stroke-width: 1.5;" x1="8" x2="167" y1="276" y2="276"/><rect codeLine="10" fill="#FEFECE" filter="url(#f1rohl5ytusz01)" height="48" id="IBeforeSuite" style="stroke: #A80036; stroke-width: 1.5;" width="108" x="203.5" y="236"/><ellipse cx="218.5" cy="252" fill="#B4A7E5" rx="11" ry="11" style="stroke: #A80036; stroke-width: 1.0;"/><path d="M214.4219,247.7656 L214.4219,245.6094 L221.8125,245.6094 L221.8125,247.7656 L219.3438,247.7656 L219.3438,255.8438 L221.8125,255.8438 L221.8125,258 L214.4219,258 L214.4219,255.8438 L216.8906,255.8438 L216.8906,247.7656 L214.4219,247.7656 Z "/><text fill="#000000" font-family="sans-serif" font-size="12" font-style="italic" lengthAdjust="spacingAndGlyphs" textLength="76" x="232.5" y="256.1543">IBeforeSuite</text><line style="stroke: #A80036; stroke-width: 1.5;" x1="204.5" x2="310.5" y1="268" y2="268"/><line style="stroke: #A80036; stroke-width: 1.5;" x1="204.5" x2="310.5" y1="276" y2="276"/><rect codeLine="11" fill="#FEFECE" filter="url(#f1rohl5ytusz01)" height="48" id="***" style="stroke: #A80036; stroke-width: 1.5;" width="50" x="346.5" y="236"/><ellipse cx="361.5" cy="252" fill="#B4A7E5" rx="11" ry="11" style="stroke: #A80036; stroke-width: 1.0;"/><path d="M357.4219,247.7656 L357.4219,245.6094 L364.8125,245.6094 L364.8125,247.7656 L362.3438,247.7656 L362.3438,255.8438 L364.8125,255.8438 L364.8125,258 L357.4219,258 L357.4219,255.8438 L359.8906,255.8438 L359.8906,247.7656 L357.4219,247.7656 Z "/><text fill="#000000" font-family="sans-serif" font-size="12" font-style="italic" lengthAdjust="spacingAndGlyphs" textLength="18" x="375.5" y="256.1543">***</text><line style="stroke: #A80036; stroke-width: 1.5;" x1="347.5" x2="395.5" y1="268" y2="268"/><line style="stroke: #A80036; stroke-width: 1.5;" x1="347.5" x2="395.5" y1="276" y2="276"/><rect codeLine="15" fill="#FEFECE" filter="url(#f1rohl5ytusz01)" height="48" id="@Listeners" style="stroke: #A80036; stroke-width: 1.5;" width="102" x="431.5" y="236"/><ellipse cx="446.5" cy="252" fill="#E3664A" rx="11" ry="11" style="stroke: #A80036; stroke-width: 1.0;"/><path d="M448.5781,252.4688 Q448.5781,251.5313 448.1563,251 Q447.7344,250.4688 446.9844,250.4688 Q446.25,250.4688 445.8359,251 Q445.4219,251.5313 445.4219,252.4688 Q445.4219,253.4219 445.8359,253.9531 Q446.25,254.4844 446.9844,254.4844 Q447.7344,254.4844 448.1563,253.9531 Q448.5781,253.4219 448.5781,252.4688 Z M450.125,255.875 L448.5,255.875 L448.5,255.2031 Q448.1719,255.6406 447.75,255.8438 Q447.3281,256.0469 446.7188,256.0469 Q445.3594,256.0469 444.5313,255.0703 Q443.7031,254.0938 443.7031,252.4688 Q443.7031,250.875 444.5313,249.8984 Q445.3594,248.9219 446.7188,248.9219 Q447.3125,248.9219 447.7656,249.125 Q448.2188,249.3281 448.5,249.7188 L448.5,249.375 Q448.5,248.25 447.875,247.6328 Q447.25,247.0156 446.1094,247.0156 Q444.3906,247.0156 443.2969,248.5391 Q442.2031,250.0625 442.2031,252.5 Q442.2031,255.0469 443.4609,256.5469 Q444.7188,258.0469 446.8281,258.0469 Q447.4844,258.0469 448.1094,257.8594 Q448.7344,257.6719 449.3125,257.2813 L450.0781,258.7344 Q449.4063,259.1875 448.6094,259.4141 Q447.8125,259.6406 446.9063,259.6406 Q444,259.6406 442.2734,257.7109 Q440.5469,255.7813 440.5469,252.5 Q440.5469,249.2813 442.1016,247.3516 Q443.6563,245.4219 446.2188,245.4219 Q448.0156,245.4219 449.0703,246.5156 Q450.125,247.6094 450.125,249.4844 L450.125,255.875 Z "/><text fill="#000000" font-family="sans-serif" font-size="12" lengthAdjust="spacingAndGlyphs" textLength="70" x="460.5" y="256.1543">@Listeners</text><line style="stroke: #A80036; stroke-width: 1.5;" x1="432.5" x2="532.5" y1="268" y2="268"/><line style="stroke: #A80036; stroke-width: 1.5;" x1="432.5" x2="532.5" y1="276" y2="276"/><rect codeLine="16" fill="#FEFECE" filter="url(#f1rohl5ytusz01)" height="48" id="@BeforeSuite" style="stroke: #A80036; stroke-width: 1.5;" width="118" x="568.5" y="236"/><ellipse cx="583.5" cy="252" fill="#E3664A" rx="11" ry="11" style="stroke: #A80036; stroke-width: 1.0;"/><path d="M585.5781,252.4688 Q585.5781,251.5313 585.1563,251 Q584.7344,250.4688 583.9844,250.4688 Q583.25,250.4688 582.8359,251 Q582.4219,251.5313 582.4219,252.4688 Q582.4219,253.4219 582.8359,253.9531 Q583.25,254.4844 583.9844,254.4844 Q584.7344,254.4844 585.1563,253.9531 Q585.5781,253.4219 585.5781,252.4688 Z M587.125,255.875 L585.5,255.875 L585.5,255.2031 Q585.1719,255.6406 584.75,255.8438 Q584.3281,256.0469 583.7188,256.0469 Q582.3594,256.0469 581.5313,255.0703 Q580.7031,254.0938 580.7031,252.4688 Q580.7031,250.875 581.5313,249.8984 Q582.3594,248.9219 583.7188,248.9219 Q584.3125,248.9219 584.7656,249.125 Q585.2188,249.3281 585.5,249.7188 L585.5,249.375 Q585.5,248.25 584.875,247.6328 Q584.25,247.0156 583.1094,247.0156 Q581.3906,247.0156 580.2969,248.5391 Q579.2031,250.0625 579.2031,252.5 Q579.2031,255.0469 580.4609,256.5469 Q581.7188,258.0469 583.8281,258.0469 Q584.4844,258.0469 585.1094,257.8594 Q585.7344,257.6719 586.3125,257.2813 L587.0781,258.7344 Q586.4063,259.1875 585.6094,259.4141 Q584.8125,259.6406 583.9063,259.6406 Q581,259.6406 579.2734,257.7109 Q577.5469,255.7813 577.5469,252.5 Q577.5469,249.2813 579.1016,247.3516 Q580.6563,245.4219 583.2188,245.4219 Q585.0156,245.4219 586.0703,246.5156 Q587.125,247.6094 587.125,249.4844 L587.125,255.875 Z "/><text fill="#000000" font-family="sans-serif" font-size="12" lengthAdjust="spacingAndGlyphs" textLength="86" x="597.5" y="256.1543">@BeforeSuite</text><line style="stroke: #A80036; stroke-width: 1.5;" x1="569.5" x2="685.5" y1="268" y2="268"/><line style="stroke: #A80036; stroke-width: 1.5;" x1="569.5" x2="685.5" y1="276" y2="276"/><rect codeLine="17" fill="#FEFECE" filter="url(#f1rohl5ytusz01)" height="48" id="@***" style="stroke: #A80036; stroke-width: 1.5;" width="63" x="722" y="236"/><ellipse cx="737" cy="252" fill="#E3664A" rx="11" ry="11" style="stroke: #A80036; stroke-width: 1.0;"/><path d="M739.0781,252.4688 Q739.0781,251.5313 738.6563,251 Q738.2344,250.4688 737.4844,250.4688 Q736.75,250.4688 736.3359,251 Q735.9219,251.5313 735.9219,252.4688 Q735.9219,253.4219 736.3359,253.9531 Q736.75,254.4844 737.4844,254.4844 Q738.2344,254.4844 738.6563,253.9531 Q739.0781,253.4219 739.0781,252.4688 Z M740.625,255.875 L739,255.875 L739,255.2031 Q738.6719,255.6406 738.25,255.8438 Q737.8281,256.0469 737.2188,256.0469 Q735.8594,256.0469 735.0313,255.0703 Q734.2031,254.0938 734.2031,252.4688 Q734.2031,250.875 735.0313,249.8984 Q735.8594,248.9219 737.2188,248.9219 Q737.8125,248.9219 738.2656,249.125 Q738.7188,249.3281 739,249.7188 L739,249.375 Q739,248.25 738.375,247.6328 Q737.75,247.0156 736.6094,247.0156 Q734.8906,247.0156 733.7969,248.5391 Q732.7031,250.0625 732.7031,252.5 Q732.7031,255.0469 733.9609,256.5469 Q735.2188,258.0469 737.3281,258.0469 Q737.9844,258.0469 738.6094,257.8594 Q739.2344,257.6719 739.8125,257.2813 L740.5781,258.7344 Q739.9063,259.1875 739.1094,259.4141 Q738.3125,259.6406 737.4063,259.6406 Q734.5,259.6406 732.7734,257.7109 Q731.0469,255.7813 731.0469,252.5 Q731.0469,249.2813 732.6016,247.3516 Q734.1563,245.4219 736.7188,245.4219 Q738.5156,245.4219 739.5703,246.5156 Q740.625,247.6094 740.625,249.4844 L740.625,255.875 Z "/><text fill="#000000" font-family="sans-serif" font-size="12" lengthAdjust="spacingAndGlyphs" textLength="31" x="751" y="256.1543">@***</text><line style="stroke: #A80036; stroke-width: 1.5;" x1="723" x2="784" y1="268" y2="268"/><line style="stroke: #A80036; stroke-width: 1.5;" x1="723" x2="784" y1="276" y2="276"/><path codeLine="5" d="M380.1283,79.6024 C370.3549,95.8205 359.5285,113.7861 351.1054,127.7634 " fill="none" id="IAnnotationFinder-backto-IAnnotation" style="stroke: #A80036; stroke-width: 1.0;"/><polygon fill="#FFFFFF" points="387.0093,68.1839,380.4864,71.2584,380.8156,78.4619,387.3385,75.3875,387.0093,68.1839" style="stroke: #A80036; stroke-width: 1.0;"/><path codeLine="6" d="M444.8429,77.7211 C461.1763,94.4191 479.5895,113.2433 493.7926,127.7634 " fill="none" id="IAnnotationFinder-backto-Annotation" style="stroke: #A80036; stroke-width: 1.0;"/><polygon fill="#FFFFFF" points="435.5139,68.1839,436.85,75.2701,443.905,76.7623,442.5689,69.676,435.5139,68.1839" style="stroke: #A80036; stroke-width: 1.0;"/><path d="M265.7106,182.7038 C226.8214,199.5714 179.2822,220.1908 143.0875,235.8898 " fill="none" id="IAnnotation-backto-IListenersAnnotation" style="stroke: #A80036; stroke-width: 1.0;"/><polygon fill="none" points="263.1676,176.1768,284.3014,174.6403,268.7385,189.0207,263.1676,176.1768" style="stroke: #A80036; stroke-width: 1.0;"/><path d="M306.9098,192.4524 C296.2275,207.0561 284.5114,223.073 275.17,235.8436 " fill="none" id="IAnnotation-backto-IBeforeSuite" style="stroke: #A80036; stroke-width: 1.0;"/><polygon fill="none" points="301.3132,188.2469,318.7709,176.2373,312.6128,196.5124,301.3132,188.2469" style="stroke: #A80036; stroke-width: 1.0;"/><path d="M350.541,195.3264 C355.0148,209.1315 359.8028,223.9059 363.6715,235.8436 " fill="none" id="IAnnotation-backto-***" style="stroke: #A80036; stroke-width: 1.0;"/><polygon fill="none" points="343.8615,197.4212,344.3547,176.2373,357.1796,193.1051,343.8615,197.4212" style="stroke: #A80036; stroke-width: 1.0;"/><path d="M503.459,195.3264 C498.9852,209.1315 494.1972,223.9059 490.3285,235.8436 " fill="none" id="Annotation-backto-@Listeners" style="stroke: #A80036; stroke-width: 1.0;"/><polygon fill="none" points="496.8204,193.1051,509.6453,176.2373,510.1385,197.4212,496.8204,193.1051" style="stroke: #A80036; stroke-width: 1.0;"/><path d="M556.77,190.556 C572.1509,205.6572 589.3237,222.5178 602.8962,235.8436 " fill="none" id="Annotation-backto-@BeforeSuite" style="stroke: #A80036; stroke-width: 1.0;"/><polygon fill="none" points="551.5533,195.2441,542.1861,176.2373,561.3616,185.2542,551.5533,195.2441" style="stroke: #A80036; stroke-width: 1.0;"/><path d="M586.8132,182.477 C622.1629,198.1868 665.7626,217.819 704.5,236 C710.1595,238.6562 716.1578,241.5381 721.9439,244.3526 " fill="none" id="Annotation-backto-@***" style="stroke: #A80036; stroke-width: 1.0;"/><polygon fill="none" points="583.5553,188.6899,568.1064,174.187,589.2275,175.8904,583.5553,188.6899" style="stroke: #A80036; stroke-width: 1.0;"/></g></svg>