<?xml version="1.0" encoding="UTF-8" standalone="no"?><svg xmlns="http://www.w3.org/2000/svg" xmlns:xlink="http://www.w3.org/1999/xlink" contentScriptType="application/ecmascript" contentStyleType="text/css" height="316px" preserveAspectRatio="none" style="width:839px;height:316px;" version="1.1" viewBox="0 0 839 316" width="839px" zoomAndPan="magnify"><defs><filter height="300%" id="f17ty2nmpaq9l7" width="300%" x="-1" y="-1"><feGaussianBlur result="blurOut" stdDeviation="2.0"/><feColorMatrix in="blurOut" result="blurOut2" type="matrix" values="0 0 0 0 0 0 0 0 0 0 0 0 0 0 0 0 0 0 .4 0"/><feOffset dx="4.0" dy="4.0" in="blurOut2" result="blurOut3"/><feBlend in="SourceGraphic" in2="blurOut3" mode="normal"/></filter></defs><g><rect codeLine="1" fill="#FEFECE" filter="url(#f17ty2nmpaq9l7)" height="60.8047" id="IAnnotationFinder" style="stroke: #A80036; stroke-width: 1.5;" width="295" x="188" y="7"/><ellipse cx="275.75" cy="23" fill="#B4A7E5" rx="11" ry="11" style="stroke: #A80036; stroke-width: 1.0;"/><path d="M271.6719,18.7656 L271.6719,16.6094 L279.0625,16.6094 L279.0625,18.7656 L276.5938,18.7656 L276.5938,26.8438 L279.0625,26.8438 L279.0625,29 L271.6719,29 L271.6719,26.8438 L274.1406,26.8438 L274.1406,18.7656 L271.6719,18.7656 Z "/><text fill="#000000" font-family="sans-serif" font-size="12" font-style="italic" lengthAdjust="spacingAndGlyphs" textLength="111" x="296.25" y="27.1543">IAnnotationFinder</text><line style="stroke: #A80036; stroke-width: 1.5;" x1="189" x2="482" y1="39" y2="39"/><text fill="#000000" font-family="sans-serif" font-size="11" lengthAdjust="spacingAndGlyphs" textLength="283" x="194" y="53.2104">Map&lt;IAnnotation, Annotation&gt; annotationMapping</text><line style="stroke: #A80036; stroke-width: 1.5;" x1="189" x2="482" y1="59.8047" y2="59.8047"/><rect codeLine="5" fill="#FEFECE" filter="url(#f17ty2nmpaq9l7)" height="60.8047" id="IAnnotationTransformer" style="stroke: #A80036; stroke-width: 1.5;" width="241" x="7" y="128"/><ellipse cx="49.45" cy="144" fill="#B4A7E5" rx="11" ry="11" style="stroke: #A80036; stroke-width: 1.0;"/><path d="M45.3719,139.7656 L45.3719,137.6094 L52.7625,137.6094 L52.7625,139.7656 L50.2938,139.7656 L50.2938,147.8438 L52.7625,147.8438 L52.7625,150 L45.3719,150 L45.3719,147.8438 L47.8406,147.8438 L47.8406,139.7656 L45.3719,139.7656 Z "/><text fill="#000000" font-family="sans-serif" font-size="12" font-style="italic" lengthAdjust="spacingAndGlyphs" textLength="148" x="69.55" y="148.1543">IAnnotationTransformer</text><line style="stroke: #A80036; stroke-width: 1.5;" x1="8" x2="247" y1="160" y2="160"/><line style="stroke: #A80036; stroke-width: 1.5;" x1="8" x2="247" y1="168" y2="168"/><text fill="#000000" font-family="sans-serif" font-size="11" lengthAdjust="spacingAndGlyphs" textLength="229" x="13" y="182.2104">transform(ITestAnnotation annotation...)</text><rect fill="#FEFECE" filter="url(#f17ty2nmpaq9l7)" height="48" id="IAnnotation" style="stroke: #A80036; stroke-width: 1.5;" width="104" x="283.5" y="134.5"/><ellipse cx="298.5" cy="150.5" fill="#ADD1B2" rx="11" ry="11" style="stroke: #A80036; stroke-width: 1.0;"/><path d="M301.4688,156.1406 Q300.8906,156.4375 300.25,156.5859 Q299.6094,156.7344 298.9063,156.7344 Q296.4063,156.7344 295.0859,155.0859 Q293.7656,153.4375 293.7656,150.3125 Q293.7656,147.1875 295.0859,145.5313 Q296.4063,143.875 298.9063,143.875 Q299.6094,143.875 300.2578,144.0313 Q300.9063,144.1875 301.4688,144.4844 L301.4688,147.2031 Q300.8438,146.625 300.25,146.3516 Q299.6563,146.0781 299.0313,146.0781 Q297.6875,146.0781 297,147.1484 Q296.3125,148.2188 296.3125,150.3125 Q296.3125,152.4063 297,153.4766 Q297.6875,154.5469 299.0313,154.5469 Q299.6563,154.5469 300.25,154.2734 Q300.8438,154 301.4688,153.4219 L301.4688,156.1406 Z "/><text fill="#000000" font-family="sans-serif" font-size="12" lengthAdjust="spacingAndGlyphs" textLength="72" x="312.5" y="154.6543">IAnnotation</text><line style="stroke: #A80036; stroke-width: 1.5;" x1="284.5" x2="386.5" y1="166.5" y2="166.5"/><line style="stroke: #A80036; stroke-width: 1.5;" x1="284.5" x2="386.5" y1="174.5" y2="174.5"/><rect codeLine="19" fill="#FEFECE" filter="url(#f17ty2nmpaq9l7)" height="48" id="Annotation" style="stroke: #A80036; stroke-width: 1.5;" width="101" x="539" y="134.5"/><ellipse cx="554" cy="150.5" fill="#E3664A" rx="11" ry="11" style="stroke: #A80036; stroke-width: 1.0;"/><path d="M556.0781,150.9688 Q556.0781,150.0313 555.6563,149.5 Q555.2344,148.9688 554.4844,148.9688 Q553.75,148.9688 553.3359,149.5 Q552.9219,150.0313 552.9219,150.9688 Q552.9219,151.9219 553.3359,152.4531 Q553.75,152.9844 554.4844,152.9844 Q555.2344,152.9844 555.6563,152.4531 Q556.0781,151.9219 556.0781,150.9688 Z M557.625,154.375 L556,154.375 L556,153.7031 Q555.6719,154.1406 555.25,154.3438 Q554.8281,154.5469 554.2188,154.5469 Q552.8594,154.5469 552.0313,153.5703 Q551.2031,152.5938 551.2031,150.9688 Q551.2031,149.375 552.0313,148.3984 Q552.8594,147.4219 554.2188,147.4219 Q554.8125,147.4219 555.2656,147.625 Q555.7188,147.8281 556,148.2188 L556,147.875 Q556,146.75 555.375,146.1328 Q554.75,145.5156 553.6094,145.5156 Q551.8906,145.5156 550.7969,147.0391 Q549.7031,148.5625 549.7031,151 Q549.7031,153.5469 550.9609,155.0469 Q552.2188,156.5469 554.3281,156.5469 Q554.9844,156.5469 555.6094,156.3594 Q556.2344,156.1719 556.8125,155.7813 L557.5781,157.2344 Q556.9063,157.6875 556.1094,157.9141 Q555.3125,158.1406 554.4063,158.1406 Q551.5,158.1406 549.7734,156.2109 Q548.0469,154.2813 548.0469,151 Q548.0469,147.7813 549.6016,145.8516 Q551.1563,143.9219 553.7188,143.9219 Q555.5156,143.9219 556.5703,145.0156 Q557.625,146.1094 557.625,147.9844 L557.625,154.375 Z "/><text fill="#000000" font-family="sans-serif" font-size="12" lengthAdjust="spacingAndGlyphs" textLength="69" x="568" y="154.6543">Annotation</text><line style="stroke: #A80036; stroke-width: 1.5;" x1="540" x2="639" y1="166.5" y2="166.5"/><line style="stroke: #A80036; stroke-width: 1.5;" x1="540" x2="639" y1="174.5" y2="174.5"/><rect codeLine="15" fill="#FEFECE" filter="url(#f17ty2nmpaq9l7)" height="48" id="IListenersAnnotation" style="stroke: #A80036; stroke-width: 1.5;" width="161" x="42" y="249"/><ellipse cx="57" cy="265" fill="#B4A7E5" rx="11" ry="11" style="stroke: #A80036; stroke-width: 1.0;"/><path d="M52.9219,260.7656 L52.9219,258.6094 L60.3125,258.6094 L60.3125,260.7656 L57.8438,260.7656 L57.8438,268.8438 L60.3125,268.8438 L60.3125,271 L52.9219,271 L52.9219,268.8438 L55.3906,268.8438 L55.3906,260.7656 L52.9219,260.7656 Z "/><text fill="#000000" font-family="sans-serif" font-size="12" font-style="italic" lengthAdjust="spacingAndGlyphs" textLength="129" x="71" y="269.1543">IListenersAnnotation</text><line style="stroke: #A80036; stroke-width: 1.5;" x1="43" x2="202" y1="281" y2="281"/><line style="stroke: #A80036; stroke-width: 1.5;" x1="43" x2="202" y1="289" y2="289"/><rect codeLine="16" fill="#FEFECE" filter="url(#f17ty2nmpaq9l7)" height="48" id="IBeforeSuite" style="stroke: #A80036; stroke-width: 1.5;" width="108" x="238.5" y="249"/><ellipse cx="253.5" cy="265" fill="#B4A7E5" rx="11" ry="11" style="stroke: #A80036; stroke-width: 1.0;"/><path d="M249.4219,260.7656 L249.4219,258.6094 L256.8125,258.6094 L256.8125,260.7656 L254.3438,260.7656 L254.3438,268.8438 L256.8125,268.8438 L256.8125,271 L249.4219,271 L249.4219,268.8438 L251.8906,268.8438 L251.8906,260.7656 L249.4219,260.7656 Z "/><text fill="#000000" font-family="sans-serif" font-size="12" font-style="italic" lengthAdjust="spacingAndGlyphs" textLength="76" x="267.5" y="269.1543">IBeforeSuite</text><line style="stroke: #A80036; stroke-width: 1.5;" x1="239.5" x2="345.5" y1="281" y2="281"/><line style="stroke: #A80036; stroke-width: 1.5;" x1="239.5" x2="345.5" y1="289" y2="289"/><rect codeLine="17" fill="#FEFECE" filter="url(#f17ty2nmpaq9l7)" height="48" id="***" style="stroke: #A80036; stroke-width: 1.5;" width="50" x="381.5" y="249"/><ellipse cx="396.5" cy="265" fill="#B4A7E5" rx="11" ry="11" style="stroke: #A80036; stroke-width: 1.0;"/><path d="M392.4219,260.7656 L392.4219,258.6094 L399.8125,258.6094 L399.8125,260.7656 L397.3438,260.7656 L397.3438,268.8438 L399.8125,268.8438 L399.8125,271 L392.4219,271 L392.4219,268.8438 L394.8906,268.8438 L394.8906,260.7656 L392.4219,260.7656 Z "/><text fill="#000000" font-family="sans-serif" font-size="12" font-style="italic" lengthAdjust="spacingAndGlyphs" textLength="18" x="410.5" y="269.1543">***</text><line style="stroke: #A80036; stroke-width: 1.5;" x1="382.5" x2="430.5" y1="281" y2="281"/><line style="stroke: #A80036; stroke-width: 1.5;" x1="382.5" x2="430.5" y1="289" y2="289"/><rect codeLine="21" fill="#FEFECE" filter="url(#f17ty2nmpaq9l7)" height="48" id="@Listeners" style="stroke: #A80036; stroke-width: 1.5;" width="102" x="466.5" y="249"/><ellipse cx="481.5" cy="265" fill="#E3664A" rx="11" ry="11" style="stroke: #A80036; stroke-width: 1.0;"/><path d="M483.5781,265.4688 Q483.5781,264.5313 483.1563,264 Q482.7344,263.4688 481.9844,263.4688 Q481.25,263.4688 480.8359,264 Q480.4219,264.5313 480.4219,265.4688 Q480.4219,266.4219 480.8359,266.9531 Q481.25,267.4844 481.9844,267.4844 Q482.7344,267.4844 483.1563,266.9531 Q483.5781,266.4219 483.5781,265.4688 Z M485.125,268.875 L483.5,268.875 L483.5,268.2031 Q483.1719,268.6406 482.75,268.8438 Q482.3281,269.0469 481.7188,269.0469 Q480.3594,269.0469 479.5313,268.0703 Q478.7031,267.0938 478.7031,265.4688 Q478.7031,263.875 479.5313,262.8984 Q480.3594,261.9219 481.7188,261.9219 Q482.3125,261.9219 482.7656,262.125 Q483.2188,262.3281 483.5,262.7188 L483.5,262.375 Q483.5,261.25 482.875,260.6328 Q482.25,260.0156 481.1094,260.0156 Q479.3906,260.0156 478.2969,261.5391 Q477.2031,263.0625 477.2031,265.5 Q477.2031,268.0469 478.4609,269.5469 Q479.7188,271.0469 481.8281,271.0469 Q482.4844,271.0469 483.1094,270.8594 Q483.7344,270.6719 484.3125,270.2813 L485.0781,271.7344 Q484.4063,272.1875 483.6094,272.4141 Q482.8125,272.6406 481.9063,272.6406 Q479,272.6406 477.2734,270.7109 Q475.5469,268.7813 475.5469,265.5 Q475.5469,262.2813 477.1016,260.3516 Q478.6563,258.4219 481.2188,258.4219 Q483.0156,258.4219 484.0703,259.5156 Q485.125,260.6094 485.125,262.4844 L485.125,268.875 Z "/><text fill="#000000" font-family="sans-serif" font-size="12" lengthAdjust="spacingAndGlyphs" textLength="70" x="495.5" y="269.1543">@Listeners</text><line style="stroke: #A80036; stroke-width: 1.5;" x1="467.5" x2="567.5" y1="281" y2="281"/><line style="stroke: #A80036; stroke-width: 1.5;" x1="467.5" x2="567.5" y1="289" y2="289"/><rect codeLine="22" fill="#FEFECE" filter="url(#f17ty2nmpaq9l7)" height="48" id="@BeforeSuite" style="stroke: #A80036; stroke-width: 1.5;" width="118" x="603.5" y="249"/><ellipse cx="618.5" cy="265" fill="#E3664A" rx="11" ry="11" style="stroke: #A80036; stroke-width: 1.0;"/><path d="M620.5781,265.4688 Q620.5781,264.5313 620.1563,264 Q619.7344,263.4688 618.9844,263.4688 Q618.25,263.4688 617.8359,264 Q617.4219,264.5313 617.4219,265.4688 Q617.4219,266.4219 617.8359,266.9531 Q618.25,267.4844 618.9844,267.4844 Q619.7344,267.4844 620.1563,266.9531 Q620.5781,266.4219 620.5781,265.4688 Z M622.125,268.875 L620.5,268.875 L620.5,268.2031 Q620.1719,268.6406 619.75,268.8438 Q619.3281,269.0469 618.7188,269.0469 Q617.3594,269.0469 616.5313,268.0703 Q615.7031,267.0938 615.7031,265.4688 Q615.7031,263.875 616.5313,262.8984 Q617.3594,261.9219 618.7188,261.9219 Q619.3125,261.9219 619.7656,262.125 Q620.2188,262.3281 620.5,262.7188 L620.5,262.375 Q620.5,261.25 619.875,260.6328 Q619.25,260.0156 618.1094,260.0156 Q616.3906,260.0156 615.2969,261.5391 Q614.2031,263.0625 614.2031,265.5 Q614.2031,268.0469 615.4609,269.5469 Q616.7188,271.0469 618.8281,271.0469 Q619.4844,271.0469 620.1094,270.8594 Q620.7344,270.6719 621.3125,270.2813 L622.0781,271.7344 Q621.4063,272.1875 620.6094,272.4141 Q619.8125,272.6406 618.9063,272.6406 Q616,272.6406 614.2734,270.7109 Q612.5469,268.7813 612.5469,265.5 Q612.5469,262.2813 614.1016,260.3516 Q615.6563,258.4219 618.2188,258.4219 Q620.0156,258.4219 621.0703,259.5156 Q622.125,260.6094 622.125,262.4844 L622.125,268.875 Z "/><text fill="#000000" font-family="sans-serif" font-size="12" lengthAdjust="spacingAndGlyphs" textLength="86" x="632.5" y="269.1543">@BeforeSuite</text><line style="stroke: #A80036; stroke-width: 1.5;" x1="604.5" x2="720.5" y1="281" y2="281"/><line style="stroke: #A80036; stroke-width: 1.5;" x1="604.5" x2="720.5" y1="289" y2="289"/><rect codeLine="23" fill="#FEFECE" filter="url(#f17ty2nmpaq9l7)" height="48" id="@***" style="stroke: #A80036; stroke-width: 1.5;" width="63" x="757" y="249"/><ellipse cx="772" cy="265" fill="#E3664A" rx="11" ry="11" style="stroke: #A80036; stroke-width: 1.0;"/><path d="M774.0781,265.4688 Q774.0781,264.5313 773.6563,264 Q773.2344,263.4688 772.4844,263.4688 Q771.75,263.4688 771.3359,264 Q770.9219,264.5313 770.9219,265.4688 Q770.9219,266.4219 771.3359,266.9531 Q771.75,267.4844 772.4844,267.4844 Q773.2344,267.4844 773.6563,266.9531 Q774.0781,266.4219 774.0781,265.4688 Z M775.625,268.875 L774,268.875 L774,268.2031 Q773.6719,268.6406 773.25,268.8438 Q772.8281,269.0469 772.2188,269.0469 Q770.8594,269.0469 770.0313,268.0703 Q769.2031,267.0938 769.2031,265.4688 Q769.2031,263.875 770.0313,262.8984 Q770.8594,261.9219 772.2188,261.9219 Q772.8125,261.9219 773.2656,262.125 Q773.7188,262.3281 774,262.7188 L774,262.375 Q774,261.25 773.375,260.6328 Q772.75,260.0156 771.6094,260.0156 Q769.8906,260.0156 768.7969,261.5391 Q767.7031,263.0625 767.7031,265.5 Q767.7031,268.0469 768.9609,269.5469 Q770.2188,271.0469 772.3281,271.0469 Q772.9844,271.0469 773.6094,270.8594 Q774.2344,270.6719 774.8125,270.2813 L775.5781,271.7344 Q774.9063,272.1875 774.1094,272.4141 Q773.3125,272.6406 772.4063,272.6406 Q769.5,272.6406 767.7734,270.7109 Q766.0469,268.7813 766.0469,265.5 Q766.0469,262.2813 767.6016,260.3516 Q769.1563,258.4219 771.7188,258.4219 Q773.5156,258.4219 774.5703,259.5156 Q775.625,260.6094 775.625,262.4844 L775.625,268.875 Z "/><text fill="#000000" font-family="sans-serif" font-size="12" lengthAdjust="spacingAndGlyphs" textLength="31" x="786" y="269.1543">@***</text><line style="stroke: #A80036; stroke-width: 1.5;" x1="758" x2="819" y1="281" y2="281"/><line style="stroke: #A80036; stroke-width: 1.5;" x1="758" x2="819" y1="289" y2="289"/><path codeLine="9" d="M271.6066,74.6687 C242.2267,91.76 207.8039,111.7847 179.9704,127.9764 " fill="none" id="IAnnotationFinder-backto-IAnnotationTransformer" style="stroke: #A80036; stroke-width: 1.0;"/><polygon fill="#FFFFFF" points="283.0128,68.0334,275.8152,67.5929,272.6403,74.0675,279.8379,74.508,283.0128,68.0334" style="stroke: #A80036; stroke-width: 1.0;"/><path codeLine="11" d="M335.5,81.226 C335.5,99.1754 335.5,119.2637 335.5,134.4587 " fill="none" id="IAnnotationFinder-backto-IAnnotation" style="stroke: #A80036; stroke-width: 1.0;"/><polygon fill="#FFFFFF" points="335.5,68.0334,331.5,74.0334,335.5,80.0334,339.5,74.0334,335.5,68.0334" style="stroke: #A80036; stroke-width: 1.0;"/><path codeLine="12" d="M411.5342,73.721 C452.7707,93.3652 502.6018,117.1036 539.0331,134.4587 " fill="none" id="IAnnotationFinder-backto-Annotation" style="stroke: #A80036; stroke-width: 1.0;"/><polygon fill="#FFFFFF" points="399.5949,68.0334,403.2913,74.225,410.4284,73.1943,406.732,67.0027,399.5949,68.0334" style="stroke: #A80036; stroke-width: 1.0;"/><path d="M272.9059,192.148 C239.0832,210.3297 198.0985,232.3614 167.4593,248.8317 " fill="none" id="IAnnotation-backto-IListenersAnnotation" style="stroke: #A80036; stroke-width: 1.0;"/><polygon fill="none" points="269.9178,185.807,290.8482,182.503,276.5466,198.1383,269.9178,185.807" style="stroke: #A80036; stroke-width: 1.0;"/><path d="M319.3711,201.4479 C313.3832,217.3925 306.8014,234.9185 301.6504,248.6343 " fill="none" id="IAnnotation-backto-IBeforeSuite" style="stroke: #A80036; stroke-width: 1.0;"/><polygon fill="none" points="312.9012,198.7652,326.4858,182.503,326.0074,203.6872,312.9012,198.7652" style="stroke: #A80036; stroke-width: 1.0;"/><path d="M360.9826,199.5952 C371.1697,216.0236 382.5554,234.3851 391.3911,248.6343 " fill="none" id="IAnnotation-backto-***" style="stroke: #A80036; stroke-width: 1.0;"/><polygon fill="none" points="354.9747,203.1893,350.3839,182.503,366.8729,195.8114,354.9747,203.1893" style="stroke: #A80036; stroke-width: 1.0;"/><path d="M563.6585,199.5952 C553.328,216.0236 541.7819,234.3851 532.8217,248.6343 " fill="none" id="Annotation-backto-@Listeners" style="stroke: #A80036; stroke-width: 1.0;"/><polygon fill="none" points="557.8341,195.7075,574.4064,182.503,569.6857,203.1601,557.8341,195.7075" style="stroke: #A80036; stroke-width: 1.0;"/><path d="M615.7004,199.5952 C626.1744,216.0236 637.8809,234.3851 646.9655,248.6343 " fill="none" id="Annotation-backto-@BeforeSuite" style="stroke: #A80036; stroke-width: 1.0;"/><polygon fill="none" points="609.6526,203.1302,604.8032,182.503,621.4575,195.6039,609.6526,203.1302" style="stroke: #A80036; stroke-width: 1.0;"/><path d="M648.901,192.678 C684.3727,213.0876 728.0098,238.1953 756.955,254.8497 " fill="none" id="Annotation-backto-@***" style="stroke: #A80036; stroke-width: 1.0;"/><polygon fill="none" points="645.0612,198.5447,631.2169,182.503,652.0433,186.41,645.0612,198.5447" style="stroke: #A80036; stroke-width: 1.0;"/></g></svg>