<?xml version="1.0" encoding="UTF-8" standalone="no"?><svg xmlns="http://www.w3.org/2000/svg" xmlns:xlink="http://www.w3.org/1999/xlink" contentScriptType="application/ecmascript" contentStyleType="text/css" height="627px" preserveAspectRatio="none" style="width:494px;height:627px;" version="1.1" viewBox="0 0 494 627" width="494px" zoomAndPan="magnify"><defs><filter height="300%" id="f1sc6e610q8u0t" width="300%" x="-1" y="-1"><feGaussianBlur result="blurOut" stdDeviation="2.0"/><feColorMatrix in="blurOut" result="blurOut2" type="matrix" values="0 0 0 0 0 0 0 0 0 0 0 0 0 0 0 0 0 0 .4 0"/><feOffset dx="4.0" dy="4.0" in="blurOut2" result="blurOut3"/><feBlend in="SourceGraphic" in2="blurOut3" mode="normal"/></filter></defs><g><rect codeLine="2" fill="#FEFECE" filter="url(#f1sc6e610q8u0t)" height="60.8047" id="SuiteRunnerMap" style="stroke: #A80036; stroke-width: 1.5;" width="172" x="8.5" y="115"/><ellipse cx="40.15" cy="131" fill="#ADD1B2" rx="11" ry="11" style="stroke: #A80036; stroke-width: 1.0;"/><path d="M43.1188,136.6406 Q42.5406,136.9375 41.9,137.0859 Q41.2594,137.2344 40.5563,137.2344 Q38.0563,137.2344 36.7359,135.5859 Q35.4156,133.9375 35.4156,130.8125 Q35.4156,127.6875 36.7359,126.0313 Q38.0563,124.375 40.5563,124.375 Q41.2594,124.375 41.9078,124.5313 Q42.5563,124.6875 43.1188,124.9844 L43.1188,127.7031 Q42.4938,127.125 41.9,126.8516 Q41.3063,126.5781 40.6813,126.5781 Q39.3375,126.5781 38.65,127.6484 Q37.9625,128.7188 37.9625,130.8125 Q37.9625,132.9063 38.65,133.9766 Q39.3375,135.0469 40.6813,135.0469 Q41.3063,135.0469 41.9,134.7734 Q42.4938,134.5 43.1188,133.9219 L43.1188,136.6406 Z "/><text fill="#000000" font-family="sans-serif" font-size="12" lengthAdjust="spacingAndGlyphs" textLength="103" x="57.85" y="135.1543">SuiteRunnerMap</text><line style="stroke: #A80036; stroke-width: 1.5;" x1="9.5" x2="179.5" y1="147" y2="147"/><text fill="#000000" font-family="sans-serif" font-size="11" lengthAdjust="spacingAndGlyphs" textLength="160" x="14.5" y="161.2104">Map&lt;XmlSuite, ISuite&gt; map</text><line style="stroke: #A80036; stroke-width: 1.5;" x1="9.5" x2="179.5" y1="167.8047" y2="167.8047"/><rect fill="#FEFECE" filter="url(#f1sc6e610q8u0t)" height="48" id="XmlSuite" style="stroke: #A80036; stroke-width: 1.5;" width="85" x="7" y="236"/><ellipse cx="22" cy="252" fill="#ADD1B2" rx="11" ry="11" style="stroke: #A80036; stroke-width: 1.0;"/><path d="M24.9688,257.6406 Q24.3906,257.9375 23.75,258.0859 Q23.1094,258.2344 22.4063,258.2344 Q19.9063,258.2344 18.5859,256.5859 Q17.2656,254.9375 17.2656,251.8125 Q17.2656,248.6875 18.5859,247.0313 Q19.9063,245.375 22.4063,245.375 Q23.1094,245.375 23.7578,245.5313 Q24.4063,245.6875 24.9688,245.9844 L24.9688,248.7031 Q24.3438,248.125 23.75,247.8516 Q23.1563,247.5781 22.5313,247.5781 Q21.1875,247.5781 20.5,248.6484 Q19.8125,249.7188 19.8125,251.8125 Q19.8125,253.9063 20.5,254.9766 Q21.1875,256.0469 22.5313,256.0469 Q23.1563,256.0469 23.75,255.7734 Q24.3438,255.5 24.9688,254.9219 L24.9688,257.6406 Z "/><text fill="#000000" font-family="sans-serif" font-size="12" lengthAdjust="spacingAndGlyphs" textLength="53" x="36" y="256.1543">XmlSuite</text><line style="stroke: #A80036; stroke-width: 1.5;" x1="8" x2="91" y1="268" y2="268"/><line style="stroke: #A80036; stroke-width: 1.5;" x1="8" x2="91" y1="276" y2="276"/><rect codeLine="15" fill="#FEFECE" filter="url(#f1sc6e610q8u0t)" height="48" id="ISuite" style="stroke: #A80036; stroke-width: 1.5;" width="67" x="127" y="236"/><ellipse cx="142" cy="252" fill="#B4A7E5" rx="11" ry="11" style="stroke: #A80036; stroke-width: 1.0;"/><path d="M137.9219,247.7656 L137.9219,245.6094 L145.3125,245.6094 L145.3125,247.7656 L142.8438,247.7656 L142.8438,255.8438 L145.3125,255.8438 L145.3125,258 L137.9219,258 L137.9219,255.8438 L140.3906,255.8438 L140.3906,247.7656 L137.9219,247.7656 Z "/><text fill="#000000" font-family="sans-serif" font-size="12" font-style="italic" lengthAdjust="spacingAndGlyphs" textLength="35" x="156" y="256.1543">ISuite</text><line style="stroke: #A80036; stroke-width: 1.5;" x1="128" x2="193" y1="268" y2="268"/><line style="stroke: #A80036; stroke-width: 1.5;" x1="128" x2="193" y1="276" y2="276"/><rect fill="#FEFECE" filter="url(#f1sc6e610q8u0t)" height="48" id="TestRunner" style="stroke: #A80036; stroke-width: 1.5;" width="104" x="263.5" y="452"/><ellipse cx="278.5" cy="468" fill="#ADD1B2" rx="11" ry="11" style="stroke: #A80036; stroke-width: 1.0;"/><path d="M281.4688,473.6406 Q280.8906,473.9375 280.25,474.0859 Q279.6094,474.2344 278.9063,474.2344 Q276.4063,474.2344 275.0859,472.5859 Q273.7656,470.9375 273.7656,467.8125 Q273.7656,464.6875 275.0859,463.0313 Q276.4063,461.375 278.9063,461.375 Q279.6094,461.375 280.2578,461.5313 Q280.9063,461.6875 281.4688,461.9844 L281.4688,464.7031 Q280.8438,464.125 280.25,463.8516 Q279.6563,463.5781 279.0313,463.5781 Q277.6875,463.5781 277,464.6484 Q276.3125,465.7188 276.3125,467.8125 Q276.3125,469.9063 277,470.9766 Q277.6875,472.0469 279.0313,472.0469 Q279.6563,472.0469 280.25,471.7734 Q280.8438,471.5 281.4688,470.9219 L281.4688,473.6406 Z "/><text fill="#000000" font-family="sans-serif" font-size="12" lengthAdjust="spacingAndGlyphs" textLength="72" x="292.5" y="472.1543">TestRunner</text><line style="stroke: #A80036; stroke-width: 1.5;" x1="264.5" x2="366.5" y1="484" y2="484"/><line style="stroke: #A80036; stroke-width: 1.5;" x1="264.5" x2="366.5" y1="492" y2="492"/><rect fill="#FEFECE" filter="url(#f1sc6e610q8u0t)" height="48" id="Invoker" style="stroke: #A80036; stroke-width: 1.5;" width="77" x="277" y="560"/><ellipse cx="292" cy="576" fill="#ADD1B2" rx="11" ry="11" style="stroke: #A80036; stroke-width: 1.0;"/><path d="M294.9688,581.6406 Q294.3906,581.9375 293.75,582.0859 Q293.1094,582.2344 292.4063,582.2344 Q289.9063,582.2344 288.5859,580.5859 Q287.2656,578.9375 287.2656,575.8125 Q287.2656,572.6875 288.5859,571.0313 Q289.9063,569.375 292.4063,569.375 Q293.1094,569.375 293.7578,569.5313 Q294.4063,569.6875 294.9688,569.9844 L294.9688,572.7031 Q294.3438,572.125 293.75,571.8516 Q293.1563,571.5781 292.5313,571.5781 Q291.1875,571.5781 290.5,572.6484 Q289.8125,573.7188 289.8125,575.8125 Q289.8125,577.9063 290.5,578.9766 Q291.1875,580.0469 292.5313,580.0469 Q293.1563,580.0469 293.75,579.7734 Q294.3438,579.5 294.9688,578.9219 L294.9688,581.6406 Z "/><text fill="#000000" font-family="sans-serif" font-size="12" lengthAdjust="spacingAndGlyphs" textLength="45" x="306" y="580.1543">Invoker</text><line style="stroke: #A80036; stroke-width: 1.5;" x1="278" x2="353" y1="592" y2="592"/><line style="stroke: #A80036; stroke-width: 1.5;" x1="278" x2="353" y1="600" y2="600"/><rect codeLine="11" fill="#FEFECE" filter="url(#f1sc6e610q8u0t)" height="48" id="ITestRunnerFactory" style="stroke: #A80036; stroke-width: 1.5;" width="153" x="322" y="344"/><ellipse cx="337" cy="360" fill="#B4A7E5" rx="11" ry="11" style="stroke: #A80036; stroke-width: 1.0;"/><path d="M332.9219,355.7656 L332.9219,353.6094 L340.3125,353.6094 L340.3125,355.7656 L337.8438,355.7656 L337.8438,363.8438 L340.3125,363.8438 L340.3125,366 L332.9219,366 L332.9219,363.8438 L335.3906,363.8438 L335.3906,355.7656 L332.9219,355.7656 Z "/><text fill="#000000" font-family="sans-serif" font-size="12" font-style="italic" lengthAdjust="spacingAndGlyphs" textLength="121" x="351" y="364.1543">ITestRunnerFactory</text><line style="stroke: #A80036; stroke-width: 1.5;" x1="323" x2="474" y1="376" y2="376"/><line style="stroke: #A80036; stroke-width: 1.5;" x1="323" x2="474" y1="384" y2="384"/><rect codeLine="16" fill="#FEFECE" filter="url(#f1sc6e610q8u0t)" height="48" id="SuiteRunner" style="stroke: #A80036; stroke-width: 1.5;" width="109" x="178" y="344"/><ellipse cx="193" cy="360" fill="#ADD1B2" rx="11" ry="11" style="stroke: #A80036; stroke-width: 1.0;"/><path d="M195.9688,365.6406 Q195.3906,365.9375 194.75,366.0859 Q194.1094,366.2344 193.4063,366.2344 Q190.9063,366.2344 189.5859,364.5859 Q188.2656,362.9375 188.2656,359.8125 Q188.2656,356.6875 189.5859,355.0313 Q190.9063,353.375 193.4063,353.375 Q194.1094,353.375 194.7578,353.5313 Q195.4063,353.6875 195.9688,353.9844 L195.9688,356.7031 Q195.3438,356.125 194.75,355.8516 Q194.1563,355.5781 193.5313,355.5781 Q192.1875,355.5781 191.5,356.6484 Q190.8125,357.7188 190.8125,359.8125 Q190.8125,361.9063 191.5,362.9766 Q192.1875,364.0469 193.5313,364.0469 Q194.1563,364.0469 194.75,363.7734 Q195.3438,363.5 195.9688,362.9219 L195.9688,365.6406 Z "/><text fill="#000000" font-family="sans-serif" font-size="12" lengthAdjust="spacingAndGlyphs" textLength="77" x="207" y="364.1543">SuiteRunner</text><line style="stroke: #A80036; stroke-width: 1.5;" x1="179" x2="286" y1="376" y2="376"/><line style="stroke: #A80036; stroke-width: 1.5;" x1="179" x2="286" y1="384" y2="384"/><rect codeLine="19" fill="#FEFECE" filter="url(#f1sc6e610q8u0t)" height="48" id="IWorker" style="stroke: #A80036; stroke-width: 1.5;" width="90" x="260.5" y="121.5"/><ellipse cx="275.5" cy="137.5" fill="#B4A7E5" rx="11" ry="11" style="stroke: #A80036; stroke-width: 1.0;"/><path d="M271.4219,133.2656 L271.4219,131.1094 L278.8125,131.1094 L278.8125,133.2656 L276.3438,133.2656 L276.3438,141.3438 L278.8125,141.3438 L278.8125,143.5 L271.4219,143.5 L271.4219,141.3438 L273.8906,141.3438 L273.8906,133.2656 L271.4219,133.2656 Z "/><text fill="#000000" font-family="sans-serif" font-size="12" font-style="italic" lengthAdjust="spacingAndGlyphs" textLength="47" x="289.5" y="141.6543">IWorker</text><rect fill="#FFFFFF" height="15.9688" style="stroke: #000000; stroke-width: 1.0; stroke-dasharray: 2.0,2.0;" width="9" x="344.5" y="118.5"/><text fill="#000000" font-family="sans-serif" font-size="12" font-style="italic" lengthAdjust="spacingAndGlyphs" textLength="7" x="345.5" y="130.6387">T</text><line style="stroke: #A80036; stroke-width: 1.5;" x1="261.5" x2="349.5" y1="153.5" y2="153.5"/><line style="stroke: #A80036; stroke-width: 1.5;" x1="261.5" x2="349.5" y1="161.5" y2="161.5"/><rect fill="#FEFECE" filter="url(#f1sc6e610q8u0t)" height="48" id="Runnable" style="stroke: #A80036; stroke-width: 1.5;" width="91" x="260" y="7"/><ellipse cx="275" cy="23" fill="#B4A7E5" rx="11" ry="11" style="stroke: #A80036; stroke-width: 1.0;"/><path d="M270.9219,18.7656 L270.9219,16.6094 L278.3125,16.6094 L278.3125,18.7656 L275.8438,18.7656 L275.8438,26.8438 L278.3125,26.8438 L278.3125,29 L270.9219,29 L270.9219,26.8438 L273.3906,26.8438 L273.3906,18.7656 L270.9219,18.7656 Z "/><text fill="#000000" font-family="sans-serif" font-size="12" font-style="italic" lengthAdjust="spacingAndGlyphs" textLength="59" x="289" y="27.1543">Runnable</text><line style="stroke: #A80036; stroke-width: 1.5;" x1="261" x2="350" y1="39" y2="39"/><line style="stroke: #A80036; stroke-width: 1.5;" x1="261" x2="350" y1="47" y2="47"/><rect codeLine="20" fill="#FEFECE" filter="url(#f1sc6e610q8u0t)" height="48" id="SuiteRunnerWorker" style="stroke: #A80036; stroke-width: 1.5;" width="153" x="229" y="236"/><ellipse cx="244" cy="252" fill="#ADD1B2" rx="11" ry="11" style="stroke: #A80036; stroke-width: 1.0;"/><path d="M246.9688,257.6406 Q246.3906,257.9375 245.75,258.0859 Q245.1094,258.2344 244.4063,258.2344 Q241.9063,258.2344 240.5859,256.5859 Q239.2656,254.9375 239.2656,251.8125 Q239.2656,248.6875 240.5859,247.0313 Q241.9063,245.375 244.4063,245.375 Q245.1094,245.375 245.7578,245.5313 Q246.4063,245.6875 246.9688,245.9844 L246.9688,248.7031 Q246.3438,248.125 245.75,247.8516 Q245.1563,247.5781 244.5313,247.5781 Q243.1875,247.5781 242.5,248.6484 Q241.8125,249.7188 241.8125,251.8125 Q241.8125,253.9063 242.5,254.9766 Q243.1875,256.0469 244.5313,256.0469 Q245.1563,256.0469 245.75,255.7734 Q246.3438,255.5 246.9688,254.9219 L246.9688,257.6406 Z "/><text fill="#000000" font-family="sans-serif" font-size="12" lengthAdjust="spacingAndGlyphs" textLength="121" x="258" y="256.1543">SuiteRunnerWorker</text><line style="stroke: #A80036; stroke-width: 1.5;" x1="230" x2="381" y1="268" y2="268"/><line style="stroke: #A80036; stroke-width: 1.5;" x1="230" x2="381" y1="276" y2="276"/><path codeLine="6" d="M77.5812,188.549 C71.3057,204.5167 64.4119,222.0575 59.0253,235.7634 " fill="none" id="SuiteRunnerMap-backto-XmlSuite" style="stroke: #A80036; stroke-width: 1.0;"/><polygon fill="#FFFFFF" points="82.4408,176.1839,76.5233,180.305,78.0514,187.3523,83.9689,183.2312,82.4408,176.1839" style="stroke: #A80036; stroke-width: 1.0;"/><path codeLine="7" d="M118.7686,187.6024 C128.1171,203.8205 138.4728,221.7861 146.5296,235.7634 " fill="none" id="SuiteRunnerMap-backto-ISuite" style="stroke: #A80036; stroke-width: 1.0;"/><polygon fill="#FFFFFF" points="112.1868,176.1839,111.7177,183.3797,118.1795,186.5804,118.6487,179.3846,112.1868,176.1839" style="stroke: #A80036; stroke-width: 1.0;"/><path codeLine="9" d="M315.5,513.6145 C315.5,528.9531 315.5,546.2402 315.5,559.8436 " fill="none" id="TestRunner-backto-Invoker" style="stroke: #A80036; stroke-width: 1.0;"/><polygon fill="#A80036" points="315.5,500.2373,311.5,506.2373,315.5,512.2373,319.5,506.2373,315.5,500.2373" style="stroke: #A80036; stroke-width: 1.0;"/><path codeLine="12" d="M371.7399,402.8204 C359.4419,418.8226 345.1592,437.4073 334.0647,451.8436 " fill="none" id="ITestRunnerFactory-backto-TestRunner" style="stroke: #A80036; stroke-width: 1.0;"/><polygon fill="#FFFFFF" points="379.8732,392.2373,373.0455,394.5572,372.5609,401.752,379.3886,399.4321,379.8732,392.2373" style="stroke: #A80036; stroke-width: 1.0;"/><path d="M187.7861,300.9291 C197.436,315.4039 207.9746,331.2119 216.3957,343.8436 " fill="none" id="ISuite-backto-SuiteRunner" style="stroke: #A80036; stroke-width: 1.0;"/><polygon fill="none" points="181.9279,304.7612,176.6582,284.2373,193.5766,296.9954,181.9279,304.7612" style="stroke: #A80036; stroke-width: 1.0;"/><path codeLine="17" d="M259.2601,402.8204 C271.5581,418.8226 285.8408,437.4073 296.9353,451.8436 " fill="none" id="SuiteRunner-backto-TestRunner" style="stroke: #A80036; stroke-width: 1.0;"/><polygon fill="#A80036" points="251.1268,392.2373,251.6114,399.4321,258.4391,401.752,257.9545,394.5572,251.1268,392.2373" style="stroke: #A80036; stroke-width: 1.0;"/><text fill="#000000" font-family="sans-serif" font-size="13" lengthAdjust="spacingAndGlyphs" textLength="8" x="246.6921" y="412.0563">1</text><text fill="#000000" font-family="sans-serif" font-size="13" lengthAdjust="spacingAndGlyphs" textLength="7" x="284.2812" y="440.8156">*</text><path d="M305.5,75.0131 C305.5,90.6695 305.5,107.7233 305.5,121.1343 " fill="none" id="Runnable-backto-IWorker" style="stroke: #A80036; stroke-width: 1.0;"/><polygon fill="none" points="298.5001,75.003,305.5,55.003,312.5001,75.0029,298.5001,75.003" style="stroke: #A80036; stroke-width: 1.0;"/><path d="M305.5,189.5131 C305.5,205.1695 305.5,222.2233 305.5,235.6343 " fill="none" id="IWorker-backto-SuiteRunnerWorker" style="stroke: #A80036; stroke-width: 1.0;"/><polygon fill="none" points="298.5001,189.503,305.5,169.503,312.5001,189.5029,298.5001,189.503" style="stroke: #A80036; stroke-width: 1.0;"/><path codeLine="21" d="M281.6515,295.2827 C270.9064,311.1796 258.492,329.5461 248.8279,343.8436 " fill="none" id="SuiteRunnerWorker-backto-SuiteRunner" style="stroke: #A80036; stroke-width: 1.0;"/><polygon fill="#A80036" points="289.1174,284.2373,282.4434,286.9683,282.3974,294.1792,289.0714,291.4483,289.1174,284.2373" style="stroke: #A80036; stroke-width: 1.0;"/></g></svg>