<?xml version="1.0" encoding="UTF-8" standalone="no"?><svg xmlns="http://www.w3.org/2000/svg" xmlns:xlink="http://www.w3.org/1999/xlink" contentScriptType="application/ecmascript" contentStyleType="text/css" height="635px" preserveAspectRatio="none" style="width:489px;height:635px;" version="1.1" viewBox="0 0 489 635" width="489px" zoomAndPan="magnify"><defs><filter height="300%" id="f1jmmn9odyepx5" width="300%" x="-1" y="-1"><feGaussianBlur result="blurOut" stdDeviation="2.0"/><feColorMatrix in="blurOut" result="blurOut2" type="matrix" values="0 0 0 0 0 0 0 0 0 0 0 0 0 0 0 0 0 0 .4 0"/><feOffset dx="4.0" dy="4.0" in="blurOut2" result="blurOut3"/><feBlend in="SourceGraphic" in2="blurOut3" mode="normal"/></filter></defs><g><rect codeLine="2" fill="#FEFECE" filter="url(#f1jmmn9odyepx5)" height="60.8047" id="SuiteRunnerMap" style="stroke:#A80036;stroke-width:1.5;" width="172" x="18.5" y="7"/><ellipse cx="50.15" cy="23" fill="#ADD1B2" rx="11" ry="11" style="stroke:#A80036;stroke-width:1.0;"/><path d="M53.1188,28.6406 Q52.5406,28.9375 51.9,29.0859 Q51.2594,29.2344 50.5563,29.2344 Q48.0563,29.2344 46.7359,27.5859 Q45.4156,25.9375 45.4156,22.8125 Q45.4156,19.6875 46.7359,18.0313 Q48.0563,16.375 50.5563,16.375 Q51.2594,16.375 51.9078,16.5313 Q52.5563,16.6875 53.1188,16.9844 L53.1188,19.7031 Q52.4938,19.125 51.9,18.8516 Q51.3063,18.5781 50.6813,18.5781 Q49.3375,18.5781 48.65,19.6484 Q47.9625,20.7188 47.9625,22.8125 Q47.9625,24.9063 48.65,25.9766 Q49.3375,27.0469 50.6813,27.0469 Q51.3063,27.0469 51.9,26.7734 Q52.4938,26.5 53.1188,25.9219 L53.1188,28.6406 Z " fill="#000000"/><text fill="#000000" font-family="sans-serif" font-size="12" lengthAdjust="spacing" textLength="103" x="67.85" y="27.1543">SuiteRunnerMap</text><line style="stroke:#A80036;stroke-width:1.5;" x1="19.5" x2="189.5" y1="39" y2="39"/><text fill="#000000" font-family="sans-serif" font-size="11" lengthAdjust="spacing" textLength="160" x="24.5" y="53.2104">Map&lt;XmlSuite, ISuite&gt; map</text><line style="stroke:#A80036;stroke-width:1.5;" x1="19.5" x2="189.5" y1="59.8047" y2="59.8047"/><rect fill="#FEFECE" filter="url(#f1jmmn9odyepx5)" height="48" id="XmlSuite" style="stroke:#A80036;stroke-width:1.5;" width="85" x="7" y="134.5"/><ellipse cx="22" cy="150.5" fill="#ADD1B2" rx="11" ry="11" style="stroke:#A80036;stroke-width:1.0;"/><path d="M24.9688,156.1406 Q24.3906,156.4375 23.75,156.5859 Q23.1094,156.7344 22.4063,156.7344 Q19.9063,156.7344 18.5859,155.0859 Q17.2656,153.4375 17.2656,150.3125 Q17.2656,147.1875 18.5859,145.5313 Q19.9063,143.875 22.4063,143.875 Q23.1094,143.875 23.7578,144.0313 Q24.4063,144.1875 24.9688,144.4844 L24.9688,147.2031 Q24.3438,146.625 23.75,146.3516 Q23.1563,146.0781 22.5313,146.0781 Q21.1875,146.0781 20.5,147.1484 Q19.8125,148.2188 19.8125,150.3125 Q19.8125,152.4063 20.5,153.4766 Q21.1875,154.5469 22.5313,154.5469 Q23.1563,154.5469 23.75,154.2734 Q24.3438,154 24.9688,153.4219 L24.9688,156.1406 Z " fill="#000000"/><text fill="#000000" font-family="sans-serif" font-size="12" lengthAdjust="spacing" textLength="53" x="36" y="154.6543">XmlSuite</text><line style="stroke:#A80036;stroke-width:1.5;" x1="8" x2="91" y1="166.5" y2="166.5"/><line style="stroke:#A80036;stroke-width:1.5;" x1="8" x2="91" y1="174.5" y2="174.5"/><rect codeLine="17" fill="#FEFECE" filter="url(#f1jmmn9odyepx5)" height="60.8047" id="ISuite" style="stroke:#A80036;stroke-width:1.5;" width="67" x="127" y="128"/><ellipse cx="142" cy="144" fill="#B4A7E5" rx="11" ry="11" style="stroke:#A80036;stroke-width:1.0;"/><path d="M137.9219,139.7656 L137.9219,137.6094 L145.3125,137.6094 L145.3125,139.7656 L142.8438,139.7656 L142.8438,147.8438 L145.3125,147.8438 L145.3125,150 L137.9219,150 L137.9219,147.8438 L140.3906,147.8438 L140.3906,139.7656 L137.9219,139.7656 Z " fill="#000000"/><text fill="#000000" font-family="sans-serif" font-size="12" font-style="italic" lengthAdjust="spacing" textLength="35" x="156" y="148.1543">ISuite</text><line style="stroke:#A80036;stroke-width:1.5;" x1="128" x2="193" y1="160" y2="160"/><line style="stroke:#A80036;stroke-width:1.5;" x1="128" x2="193" y1="168" y2="168"/><text fill="#000000" font-family="sans-serif" font-size="11" lengthAdjust="spacing" textLength="27" x="133" y="182.2104">run()</text><rect fill="#FEFECE" filter="url(#f1jmmn9odyepx5)" height="48" id="TestRunner" style="stroke:#A80036;stroke-width:1.5;" width="104" x="263.5" y="357"/><ellipse cx="278.5" cy="373" fill="#ADD1B2" rx="11" ry="11" style="stroke:#A80036;stroke-width:1.0;"/><path d="M281.4688,378.6406 Q280.8906,378.9375 280.25,379.0859 Q279.6094,379.2344 278.9063,379.2344 Q276.4063,379.2344 275.0859,377.5859 Q273.7656,375.9375 273.7656,372.8125 Q273.7656,369.6875 275.0859,368.0313 Q276.4063,366.375 278.9063,366.375 Q279.6094,366.375 280.2578,366.5313 Q280.9063,366.6875 281.4688,366.9844 L281.4688,369.7031 Q280.8438,369.125 280.25,368.8516 Q279.6563,368.5781 279.0313,368.5781 Q277.6875,368.5781 277,369.6484 Q276.3125,370.7188 276.3125,372.8125 Q276.3125,374.9063 277,375.9766 Q277.6875,377.0469 279.0313,377.0469 Q279.6563,377.0469 280.25,376.7734 Q280.8438,376.5 281.4688,375.9219 L281.4688,378.6406 Z " fill="#000000"/><text fill="#000000" font-family="sans-serif" font-size="12" lengthAdjust="spacing" textLength="72" x="292.5" y="377.1543">TestRunner</text><line style="stroke:#A80036;stroke-width:1.5;" x1="264.5" x2="366.5" y1="389" y2="389"/><line style="stroke:#A80036;stroke-width:1.5;" x1="264.5" x2="366.5" y1="397" y2="397"/><rect fill="#FEFECE" filter="url(#f1jmmn9odyepx5)" height="48" id="Invoker" style="stroke:#A80036;stroke-width:1.5;" width="77" x="217" y="465"/><ellipse cx="232" cy="481" fill="#ADD1B2" rx="11" ry="11" style="stroke:#A80036;stroke-width:1.0;"/><path d="M234.9688,486.6406 Q234.3906,486.9375 233.75,487.0859 Q233.1094,487.2344 232.4063,487.2344 Q229.9063,487.2344 228.5859,485.5859 Q227.2656,483.9375 227.2656,480.8125 Q227.2656,477.6875 228.5859,476.0313 Q229.9063,474.375 232.4063,474.375 Q233.1094,474.375 233.7578,474.5313 Q234.4063,474.6875 234.9688,474.9844 L234.9688,477.7031 Q234.3438,477.125 233.75,476.8516 Q233.1563,476.5781 232.5313,476.5781 Q231.1875,476.5781 230.5,477.6484 Q229.8125,478.7188 229.8125,480.8125 Q229.8125,482.9063 230.5,483.9766 Q231.1875,485.0469 232.5313,485.0469 Q233.1563,485.0469 233.75,484.7734 Q234.3438,484.5 234.9688,483.9219 L234.9688,486.6406 Z " fill="#000000"/><text fill="#000000" font-family="sans-serif" font-size="12" lengthAdjust="spacing" textLength="45" x="246" y="485.1543">Invoker</text><line style="stroke:#A80036;stroke-width:1.5;" x1="218" x2="293" y1="497" y2="497"/><line style="stroke:#A80036;stroke-width:1.5;" x1="218" x2="293" y1="505" y2="505"/><rect fill="#FEFECE" filter="url(#f1jmmn9odyepx5)" height="48" id="TestClass" style="stroke:#A80036;stroke-width:1.5;" width="92" x="329.5" y="465"/><ellipse cx="344.5" cy="481" fill="#ADD1B2" rx="11" ry="11" style="stroke:#A80036;stroke-width:1.0;"/><path d="M347.4688,486.6406 Q346.8906,486.9375 346.25,487.0859 Q345.6094,487.2344 344.9063,487.2344 Q342.4063,487.2344 341.0859,485.5859 Q339.7656,483.9375 339.7656,480.8125 Q339.7656,477.6875 341.0859,476.0313 Q342.4063,474.375 344.9063,474.375 Q345.6094,474.375 346.2578,474.5313 Q346.9063,474.6875 347.4688,474.9844 L347.4688,477.7031 Q346.8438,477.125 346.25,476.8516 Q345.6563,476.5781 345.0313,476.5781 Q343.6875,476.5781 343,477.6484 Q342.3125,478.7188 342.3125,480.8125 Q342.3125,482.9063 343,483.9766 Q343.6875,485.0469 345.0313,485.0469 Q345.6563,485.0469 346.25,484.7734 Q346.8438,484.5 347.4688,483.9219 L347.4688,486.6406 Z " fill="#000000"/><text fill="#000000" font-family="sans-serif" font-size="12" lengthAdjust="spacing" textLength="60" x="358.5" y="485.1543">TestClass</text><line style="stroke:#A80036;stroke-width:1.5;" x1="330.5" x2="420.5" y1="497" y2="497"/><line style="stroke:#A80036;stroke-width:1.5;" x1="330.5" x2="420.5" y1="505" y2="505"/><rect fill="#FEFECE" filter="url(#f1jmmn9odyepx5)" height="48" id="TestNGMethod" style="stroke:#A80036;stroke-width:1.5;" width="124" x="313.5" y="573"/><ellipse cx="328.5" cy="589" fill="#ADD1B2" rx="11" ry="11" style="stroke:#A80036;stroke-width:1.0;"/><path d="M331.4688,594.6406 Q330.8906,594.9375 330.25,595.0859 Q329.6094,595.2344 328.9063,595.2344 Q326.4063,595.2344 325.0859,593.5859 Q323.7656,591.9375 323.7656,588.8125 Q323.7656,585.6875 325.0859,584.0313 Q326.4063,582.375 328.9063,582.375 Q329.6094,582.375 330.2578,582.5313 Q330.9063,582.6875 331.4688,582.9844 L331.4688,585.7031 Q330.8438,585.125 330.25,584.8516 Q329.6563,584.5781 329.0313,584.5781 Q327.6875,584.5781 327,585.6484 Q326.3125,586.7188 326.3125,588.8125 Q326.3125,590.9063 327,591.9766 Q327.6875,593.0469 329.0313,593.0469 Q329.6563,593.0469 330.25,592.7734 Q330.8438,592.5 331.4688,591.9219 L331.4688,594.6406 Z " fill="#000000"/><text fill="#000000" font-family="sans-serif" font-size="12" lengthAdjust="spacing" textLength="92" x="342.5" y="593.1543">TestNGMethod</text><line style="stroke:#A80036;stroke-width:1.5;" x1="314.5" x2="436.5" y1="605" y2="605"/><line style="stroke:#A80036;stroke-width:1.5;" x1="314.5" x2="436.5" y1="613" y2="613"/><rect codeLine="13" fill="#FEFECE" filter="url(#f1jmmn9odyepx5)" height="48" id="ITestRunnerFactory" style="stroke:#A80036;stroke-width:1.5;" width="153" x="322" y="249"/><ellipse cx="337" cy="265" fill="#B4A7E5" rx="11" ry="11" style="stroke:#A80036;stroke-width:1.0;"/><path d="M332.9219,260.7656 L332.9219,258.6094 L340.3125,258.6094 L340.3125,260.7656 L337.8438,260.7656 L337.8438,268.8438 L340.3125,268.8438 L340.3125,271 L332.9219,271 L332.9219,268.8438 L335.3906,268.8438 L335.3906,260.7656 L332.9219,260.7656 Z " fill="#000000"/><text fill="#000000" font-family="sans-serif" font-size="12" font-style="italic" lengthAdjust="spacing" textLength="121" x="351" y="269.1543">ITestRunnerFactory</text><line style="stroke:#A80036;stroke-width:1.5;" x1="323" x2="474" y1="281" y2="281"/><line style="stroke:#A80036;stroke-width:1.5;" x1="323" x2="474" y1="289" y2="289"/><rect codeLine="20" fill="#FEFECE" filter="url(#f1jmmn9odyepx5)" height="48" id="SuiteRunner" style="stroke:#A80036;stroke-width:1.5;" width="109" x="178" y="249"/><ellipse cx="193" cy="265" fill="#ADD1B2" rx="11" ry="11" style="stroke:#A80036;stroke-width:1.0;"/><path d="M195.9688,270.6406 Q195.3906,270.9375 194.75,271.0859 Q194.1094,271.2344 193.4063,271.2344 Q190.9063,271.2344 189.5859,269.5859 Q188.2656,267.9375 188.2656,264.8125 Q188.2656,261.6875 189.5859,260.0313 Q190.9063,258.375 193.4063,258.375 Q194.1094,258.375 194.7578,258.5313 Q195.4063,258.6875 195.9688,258.9844 L195.9688,261.7031 Q195.3438,261.125 194.75,260.8516 Q194.1563,260.5781 193.5313,260.5781 Q192.1875,260.5781 191.5,261.6484 Q190.8125,262.7188 190.8125,264.8125 Q190.8125,266.9063 191.5,267.9766 Q192.1875,269.0469 193.5313,269.0469 Q194.1563,269.0469 194.75,268.7734 Q195.3438,268.5 195.9688,267.9219 L195.9688,270.6406 Z " fill="#000000"/><text fill="#000000" font-family="sans-serif" font-size="12" lengthAdjust="spacing" textLength="77" x="207" y="269.1543">SuiteRunner</text><line style="stroke:#A80036;stroke-width:1.5;" x1="179" x2="286" y1="281" y2="281"/><line style="stroke:#A80036;stroke-width:1.5;" x1="179" x2="286" y1="289" y2="289"/><rect fill="#FEFECE" filter="url(#f1jmmn9odyepx5)" height="48" id="SuiteRunnerWorker" style="stroke:#A80036;stroke-width:1.5;" width="153" x="229" y="134.5"/><ellipse cx="244" cy="150.5" fill="#ADD1B2" rx="11" ry="11" style="stroke:#A80036;stroke-width:1.0;"/><path d="M246.9688,156.1406 Q246.3906,156.4375 245.75,156.5859 Q245.1094,156.7344 244.4063,156.7344 Q241.9063,156.7344 240.5859,155.0859 Q239.2656,153.4375 239.2656,150.3125 Q239.2656,147.1875 240.5859,145.5313 Q241.9063,143.875 244.4063,143.875 Q245.1094,143.875 245.7578,144.0313 Q246.4063,144.1875 246.9688,144.4844 L246.9688,147.2031 Q246.3438,146.625 245.75,146.3516 Q245.1563,146.0781 244.5313,146.0781 Q243.1875,146.0781 242.5,147.1484 Q241.8125,148.2188 241.8125,150.3125 Q241.8125,152.4063 242.5,153.4766 Q243.1875,154.5469 244.5313,154.5469 Q245.1563,154.5469 245.75,154.2734 Q246.3438,154 246.9688,153.4219 L246.9688,156.1406 Z " fill="#000000"/><text fill="#000000" font-family="sans-serif" font-size="12" lengthAdjust="spacing" textLength="121" x="258" y="154.6543">SuiteRunnerWorker</text><line style="stroke:#A80036;stroke-width:1.5;" x1="230" x2="381" y1="166.5" y2="166.5"/><line style="stroke:#A80036;stroke-width:1.5;" x1="230" x2="381" y1="174.5" y2="174.5"/><path codeLine="6" d="M85.2226,79.9102 C76.9147,98.1878 67.504,118.8912 60.4279,134.4587 " fill="none" id="SuiteRunnerMap-backto-XmlSuite" style="stroke:#A80036;stroke-width:1.0;"/><polygon fill="#FFFFFF" points="90.6212,68.0334,84.4969,71.8404,85.6556,78.9578,91.7799,75.1508,90.6212,68.0334" style="stroke:#A80036;stroke-width:1.0;"/><path codeLine="7" d="M124.2642,80.2049 C131.5604,95.9698 139.6755,113.5042 146.3734,127.9764 " fill="none" id="SuiteRunnerMap-backto-ISuite" style="stroke:#A80036;stroke-width:1.0;"/><polygon fill="#FFFFFF" points="118.6312,68.0334,117.5212,75.1586,123.6713,78.9236,124.7813,71.7985,118.6312,68.0334" style="stroke:#A80036;stroke-width:1.0;"/><path codeLine="9" d="M295.6409,416.7464 C286.869,432.5358 276.7861,450.6849 268.9202,464.8436 " fill="none" id="TestRunner-backto-Invoker" style="stroke:#A80036;stroke-width:1.0;"/><polygon fill="#A80036" points="302.0348,405.2373,295.6243,408.5396,296.207,415.7271,302.6175,412.4248,302.0348,405.2373" style="stroke:#A80036;stroke-width:1.0;"/><path codeLine="10" d="M335.3591,416.7464 C344.131,432.5358 354.2139,450.6849 362.0798,464.8436 " fill="none" id="TestRunner-backto-TestClass" style="stroke:#A80036;stroke-width:1.0;"/><polygon fill="#A80036" points="328.9652,405.2373,328.3825,412.4248,334.793,415.7271,335.3757,408.5396,328.9652,405.2373" style="stroke:#A80036;stroke-width:1.0;"/><text fill="#000000" font-family="sans-serif" font-size="13" lengthAdjust="spacing" textLength="8" x="323.2723" y="425.0563">1</text><text fill="#000000" font-family="sans-serif" font-size="13" lengthAdjust="spacing" textLength="7" x="350.744" y="453.8156">*</text><path codeLine="11" d="M375.5,526.6145 C375.5,541.9531 375.5,559.2402 375.5,572.8436 " fill="none" id="TestClass-backto-TestNGMethod" style="stroke:#A80036;stroke-width:1.0;"/><polygon fill="#A80036" points="375.5,513.2373,371.5,519.2373,375.5,525.2373,379.5,519.2373,375.5,513.2373" style="stroke:#A80036;stroke-width:1.0;"/><text fill="#000000" font-family="sans-serif" font-size="13" lengthAdjust="spacing" textLength="8" x="366.525" y="533.0563">1</text><text fill="#000000" font-family="sans-serif" font-size="13" lengthAdjust="spacing" textLength="7" x="367.6031" y="561.8156">*</text><path codeLine="14" d="M371.7399,307.8204 C359.4419,323.8226 345.1592,342.4073 334.0647,356.8436 " fill="none" id="ITestRunnerFactory-backto-TestRunner" style="stroke:#A80036;stroke-width:1.0;"/><polygon fill="#FFFFFF" points="379.8732,297.2373,373.0455,299.5572,372.5609,306.752,379.3886,304.4321,379.8732,297.2373" style="stroke:#A80036;stroke-width:1.0;"/><path d="M190.5783,206.3329 C199.7715,220.9525 209.4943,236.4145 217.2595,248.7634 " fill="none" id="ISuite-backto-SuiteRunner" style="stroke:#A80036;stroke-width:1.0;"/><polygon fill="none" points="184.5154,209.841,179.7947,189.1839,196.367,202.3885,184.5154,209.841" style="stroke:#A80036;stroke-width:1.0;"/><path codeLine="21" d="M259.2601,307.8204 C271.5581,323.8226 285.8408,342.4073 296.9353,356.8436 " fill="none" id="SuiteRunner-backto-TestRunner" style="stroke:#A80036;stroke-width:1.0;"/><polygon fill="#A80036" points="251.1268,297.2373,251.6114,304.4321,258.4391,306.752,257.9545,299.5572,251.1268,297.2373" style="stroke:#A80036;stroke-width:1.0;"/><text fill="#000000" font-family="sans-serif" font-size="13" lengthAdjust="spacing" textLength="8" x="246.6921" y="317.0563">1</text><text fill="#000000" font-family="sans-serif" font-size="13" lengthAdjust="spacing" textLength="7" x="284.2812" y="345.8156">*</text><path codeLine="23" d="M283.1012,193.6323 C271.7449,211.4447 258.2365,232.6325 248.0345,248.6343 " fill="none" id="SuiteRunnerWorker-backto-SuiteRunner" style="stroke:#A80036;stroke-width:1.0;"/><polygon fill="#A80036" points="290.1968,182.503,283.5984,185.4119,283.7457,192.6215,290.3441,189.7126,290.1968,182.503" style="stroke:#A80036;stroke-width:1.0;"/></g></svg>