<?xml version="1.0" encoding="UTF-8" standalone="no"?><svg xmlns="http://www.w3.org/2000/svg" xmlns:xlink="http://www.w3.org/1999/xlink" contentScriptType="application/ecmascript" contentStyleType="text/css" height="756px" preserveAspectRatio="none" style="width:922px;height:756px;" version="1.1" viewBox="0 0 922 756" width="922px" zoomAndPan="magnify"><defs><filter height="300%" id="f11i98g90y9z7j" width="300%" x="-1" y="-1"><feGaussianBlur result="blurOut" stdDeviation="2.0"/><feColorMatrix in="blurOut" result="blurOut2" type="matrix" values="0 0 0 0 0 0 0 0 0 0 0 0 0 0 0 0 0 0 .4 0"/><feOffset dx="4.0" dy="4.0" in="blurOut2" result="blurOut3"/><feBlend in="SourceGraphic" in2="blurOut3" mode="normal"/></filter></defs><g><rect codeLine="2" fill="#FEFECE" filter="url(#f11i98g90y9z7j)" height="60.8047" id="SuiteRunnerMap" style="stroke:#A80036;stroke-width:1.5;" width="172" x="19.5" y="128"/><ellipse cx="51.15" cy="144" fill="#ADD1B2" rx="11" ry="11" style="stroke:#A80036;stroke-width:1.0;"/><path d="M54.1188,149.6406 Q53.5406,149.9375 52.9,150.0859 Q52.2594,150.2344 51.5563,150.2344 Q49.0563,150.2344 47.7359,148.5859 Q46.4156,146.9375 46.4156,143.8125 Q46.4156,140.6875 47.7359,139.0313 Q49.0563,137.375 51.5563,137.375 Q52.2594,137.375 52.9078,137.5313 Q53.5563,137.6875 54.1188,137.9844 L54.1188,140.7031 Q53.4938,140.125 52.9,139.8516 Q52.3063,139.5781 51.6813,139.5781 Q50.3375,139.5781 49.65,140.6484 Q48.9625,141.7188 48.9625,143.8125 Q48.9625,145.9063 49.65,146.9766 Q50.3375,148.0469 51.6813,148.0469 Q52.3063,148.0469 52.9,147.7734 Q53.4938,147.5 54.1188,146.9219 L54.1188,149.6406 Z " fill="#000000"/><text fill="#000000" font-family="sans-serif" font-size="12" lengthAdjust="spacing" textLength="103" x="68.85" y="148.1543">SuiteRunnerMap</text><line style="stroke:#A80036;stroke-width:1.5;" x1="20.5" x2="190.5" y1="160" y2="160"/><text fill="#000000" font-family="sans-serif" font-size="11" lengthAdjust="spacing" textLength="160" x="25.5" y="174.2104">Map&lt;XmlSuite, ISuite&gt; map</text><line style="stroke:#A80036;stroke-width:1.5;" x1="20.5" x2="190.5" y1="180.8047" y2="180.8047"/><rect fill="#FEFECE" filter="url(#f11i98g90y9z7j)" height="48" id="XmlSuite" style="stroke:#A80036;stroke-width:1.5;" width="85" x="7" y="255.5"/><ellipse cx="22" cy="271.5" fill="#ADD1B2" rx="11" ry="11" style="stroke:#A80036;stroke-width:1.0;"/><path d="M24.9688,277.1406 Q24.3906,277.4375 23.75,277.5859 Q23.1094,277.7344 22.4063,277.7344 Q19.9063,277.7344 18.5859,276.0859 Q17.2656,274.4375 17.2656,271.3125 Q17.2656,268.1875 18.5859,266.5313 Q19.9063,264.875 22.4063,264.875 Q23.1094,264.875 23.7578,265.0313 Q24.4063,265.1875 24.9688,265.4844 L24.9688,268.2031 Q24.3438,267.625 23.75,267.3516 Q23.1563,267.0781 22.5313,267.0781 Q21.1875,267.0781 20.5,268.1484 Q19.8125,269.2188 19.8125,271.3125 Q19.8125,273.4063 20.5,274.4766 Q21.1875,275.5469 22.5313,275.5469 Q23.1563,275.5469 23.75,275.2734 Q24.3438,275 24.9688,274.4219 L24.9688,277.1406 Z " fill="#000000"/><text fill="#000000" font-family="sans-serif" font-size="12" lengthAdjust="spacing" textLength="53" x="36" y="275.6543">XmlSuite</text><line style="stroke:#A80036;stroke-width:1.5;" x1="8" x2="91" y1="287.5" y2="287.5"/><line style="stroke:#A80036;stroke-width:1.5;" x1="8" x2="91" y1="295.5" y2="295.5"/><rect codeLine="17" fill="#FEFECE" filter="url(#f11i98g90y9z7j)" height="60.8047" id="ISuite" style="stroke:#A80036;stroke-width:1.5;" width="67" x="127" y="249"/><ellipse cx="142" cy="265" fill="#B4A7E5" rx="11" ry="11" style="stroke:#A80036;stroke-width:1.0;"/><path d="M137.9219,260.7656 L137.9219,258.6094 L145.3125,258.6094 L145.3125,260.7656 L142.8438,260.7656 L142.8438,268.8438 L145.3125,268.8438 L145.3125,271 L137.9219,271 L137.9219,268.8438 L140.3906,268.8438 L140.3906,260.7656 L137.9219,260.7656 Z " fill="#000000"/><text fill="#000000" font-family="sans-serif" font-size="12" font-style="italic" lengthAdjust="spacing" textLength="35" x="156" y="269.1543">ISuite</text><line style="stroke:#A80036;stroke-width:1.5;" x1="128" x2="193" y1="281" y2="281"/><line style="stroke:#A80036;stroke-width:1.5;" x1="128" x2="193" y1="289" y2="289"/><text fill="#000000" font-family="sans-serif" font-size="11" lengthAdjust="spacing" textLength="27" x="133" y="303.2104">run()</text><rect fill="#FEFECE" filter="url(#f11i98g90y9z7j)" height="48" id="TestRunner" style="stroke:#A80036;stroke-width:1.5;" width="104" x="263.5" y="478"/><ellipse cx="278.5" cy="494" fill="#ADD1B2" rx="11" ry="11" style="stroke:#A80036;stroke-width:1.0;"/><path d="M281.4688,499.6406 Q280.8906,499.9375 280.25,500.0859 Q279.6094,500.2344 278.9063,500.2344 Q276.4063,500.2344 275.0859,498.5859 Q273.7656,496.9375 273.7656,493.8125 Q273.7656,490.6875 275.0859,489.0313 Q276.4063,487.375 278.9063,487.375 Q279.6094,487.375 280.2578,487.5313 Q280.9063,487.6875 281.4688,487.9844 L281.4688,490.7031 Q280.8438,490.125 280.25,489.8516 Q279.6563,489.5781 279.0313,489.5781 Q277.6875,489.5781 277,490.6484 Q276.3125,491.7188 276.3125,493.8125 Q276.3125,495.9063 277,496.9766 Q277.6875,498.0469 279.0313,498.0469 Q279.6563,498.0469 280.25,497.7734 Q280.8438,497.5 281.4688,496.9219 L281.4688,499.6406 Z " fill="#000000"/><text fill="#000000" font-family="sans-serif" font-size="12" lengthAdjust="spacing" textLength="72" x="292.5" y="498.1543">TestRunner</text><line style="stroke:#A80036;stroke-width:1.5;" x1="264.5" x2="366.5" y1="510" y2="510"/><line style="stroke:#A80036;stroke-width:1.5;" x1="264.5" x2="366.5" y1="518" y2="518"/><rect fill="#FEFECE" filter="url(#f11i98g90y9z7j)" height="48" id="Invoker" style="stroke:#A80036;stroke-width:1.5;" width="77" x="217" y="586"/><ellipse cx="232" cy="602" fill="#ADD1B2" rx="11" ry="11" style="stroke:#A80036;stroke-width:1.0;"/><path d="M234.9688,607.6406 Q234.3906,607.9375 233.75,608.0859 Q233.1094,608.2344 232.4063,608.2344 Q229.9063,608.2344 228.5859,606.5859 Q227.2656,604.9375 227.2656,601.8125 Q227.2656,598.6875 228.5859,597.0313 Q229.9063,595.375 232.4063,595.375 Q233.1094,595.375 233.7578,595.5313 Q234.4063,595.6875 234.9688,595.9844 L234.9688,598.7031 Q234.3438,598.125 233.75,597.8516 Q233.1563,597.5781 232.5313,597.5781 Q231.1875,597.5781 230.5,598.6484 Q229.8125,599.7188 229.8125,601.8125 Q229.8125,603.9063 230.5,604.9766 Q231.1875,606.0469 232.5313,606.0469 Q233.1563,606.0469 233.75,605.7734 Q234.3438,605.5 234.9688,604.9219 L234.9688,607.6406 Z " fill="#000000"/><text fill="#000000" font-family="sans-serif" font-size="12" lengthAdjust="spacing" textLength="45" x="246" y="606.1543">Invoker</text><line style="stroke:#A80036;stroke-width:1.5;" x1="218" x2="293" y1="618" y2="618"/><line style="stroke:#A80036;stroke-width:1.5;" x1="218" x2="293" y1="626" y2="626"/><rect fill="#FEFECE" filter="url(#f11i98g90y9z7j)" height="48" id="TestClass" style="stroke:#A80036;stroke-width:1.5;" width="92" x="329.5" y="586"/><ellipse cx="344.5" cy="602" fill="#ADD1B2" rx="11" ry="11" style="stroke:#A80036;stroke-width:1.0;"/><path d="M347.4688,607.6406 Q346.8906,607.9375 346.25,608.0859 Q345.6094,608.2344 344.9063,608.2344 Q342.4063,608.2344 341.0859,606.5859 Q339.7656,604.9375 339.7656,601.8125 Q339.7656,598.6875 341.0859,597.0313 Q342.4063,595.375 344.9063,595.375 Q345.6094,595.375 346.2578,595.5313 Q346.9063,595.6875 347.4688,595.9844 L347.4688,598.7031 Q346.8438,598.125 346.25,597.8516 Q345.6563,597.5781 345.0313,597.5781 Q343.6875,597.5781 343,598.6484 Q342.3125,599.7188 342.3125,601.8125 Q342.3125,603.9063 343,604.9766 Q343.6875,606.0469 345.0313,606.0469 Q345.6563,606.0469 346.25,605.7734 Q346.8438,605.5 347.4688,604.9219 L347.4688,607.6406 Z " fill="#000000"/><text fill="#000000" font-family="sans-serif" font-size="12" lengthAdjust="spacing" textLength="60" x="358.5" y="606.1543">TestClass</text><line style="stroke:#A80036;stroke-width:1.5;" x1="330.5" x2="420.5" y1="618" y2="618"/><line style="stroke:#A80036;stroke-width:1.5;" x1="330.5" x2="420.5" y1="626" y2="626"/><rect fill="#FEFECE" filter="url(#f11i98g90y9z7j)" height="48" id="TestNGMethod" style="stroke:#A80036;stroke-width:1.5;" width="124" x="313.5" y="694"/><ellipse cx="328.5" cy="710" fill="#ADD1B2" rx="11" ry="11" style="stroke:#A80036;stroke-width:1.0;"/><path d="M331.4688,715.6406 Q330.8906,715.9375 330.25,716.0859 Q329.6094,716.2344 328.9063,716.2344 Q326.4063,716.2344 325.0859,714.5859 Q323.7656,712.9375 323.7656,709.8125 Q323.7656,706.6875 325.0859,705.0313 Q326.4063,703.375 328.9063,703.375 Q329.6094,703.375 330.2578,703.5313 Q330.9063,703.6875 331.4688,703.9844 L331.4688,706.7031 Q330.8438,706.125 330.25,705.8516 Q329.6563,705.5781 329.0313,705.5781 Q327.6875,705.5781 327,706.6484 Q326.3125,707.7188 326.3125,709.8125 Q326.3125,711.9063 327,712.9766 Q327.6875,714.0469 329.0313,714.0469 Q329.6563,714.0469 330.25,713.7734 Q330.8438,713.5 331.4688,712.9219 L331.4688,715.6406 Z " fill="#000000"/><text fill="#000000" font-family="sans-serif" font-size="12" lengthAdjust="spacing" textLength="92" x="342.5" y="714.1543">TestNGMethod</text><line style="stroke:#A80036;stroke-width:1.5;" x1="314.5" x2="436.5" y1="726" y2="726"/><line style="stroke:#A80036;stroke-width:1.5;" x1="314.5" x2="436.5" y1="734" y2="734"/><rect codeLine="13" fill="#FEFECE" filter="url(#f11i98g90y9z7j)" height="48" id="ITestRunnerFactory" style="stroke:#A80036;stroke-width:1.5;" width="153" x="322" y="370"/><ellipse cx="337" cy="386" fill="#B4A7E5" rx="11" ry="11" style="stroke:#A80036;stroke-width:1.0;"/><path d="M332.9219,381.7656 L332.9219,379.6094 L340.3125,379.6094 L340.3125,381.7656 L337.8438,381.7656 L337.8438,389.8438 L340.3125,389.8438 L340.3125,392 L332.9219,392 L332.9219,389.8438 L335.3906,389.8438 L335.3906,381.7656 L332.9219,381.7656 Z " fill="#000000"/><text fill="#000000" font-family="sans-serif" font-size="12" font-style="italic" lengthAdjust="spacing" textLength="121" x="351" y="390.1543">ITestRunnerFactory</text><line style="stroke:#A80036;stroke-width:1.5;" x1="323" x2="474" y1="402" y2="402"/><line style="stroke:#A80036;stroke-width:1.5;" x1="323" x2="474" y1="410" y2="410"/><rect codeLine="20" fill="#FEFECE" filter="url(#f11i98g90y9z7j)" height="48" id="SuiteRunner" style="stroke:#A80036;stroke-width:1.5;" width="109" x="178" y="370"/><ellipse cx="193" cy="386" fill="#ADD1B2" rx="11" ry="11" style="stroke:#A80036;stroke-width:1.0;"/><path d="M195.9688,391.6406 Q195.3906,391.9375 194.75,392.0859 Q194.1094,392.2344 193.4063,392.2344 Q190.9063,392.2344 189.5859,390.5859 Q188.2656,388.9375 188.2656,385.8125 Q188.2656,382.6875 189.5859,381.0313 Q190.9063,379.375 193.4063,379.375 Q194.1094,379.375 194.7578,379.5313 Q195.4063,379.6875 195.9688,379.9844 L195.9688,382.7031 Q195.3438,382.125 194.75,381.8516 Q194.1563,381.5781 193.5313,381.5781 Q192.1875,381.5781 191.5,382.6484 Q190.8125,383.7188 190.8125,385.8125 Q190.8125,387.9063 191.5,388.9766 Q192.1875,390.0469 193.5313,390.0469 Q194.1563,390.0469 194.75,389.7734 Q195.3438,389.5 195.9688,388.9219 L195.9688,391.6406 Z " fill="#000000"/><text fill="#000000" font-family="sans-serif" font-size="12" lengthAdjust="spacing" textLength="77" x="207" y="390.1543">SuiteRunner</text><line style="stroke:#A80036;stroke-width:1.5;" x1="179" x2="286" y1="402" y2="402"/><line style="stroke:#A80036;stroke-width:1.5;" x1="179" x2="286" y1="410" y2="410"/><rect codeLine="23" fill="#FEFECE" filter="url(#f11i98g90y9z7j)" height="60.8047" id="Runnable" style="stroke:#A80036;stroke-width:1.5;" width="91" x="447" y="7"/><ellipse cx="462" cy="23" fill="#B4A7E5" rx="11" ry="11" style="stroke:#A80036;stroke-width:1.0;"/><path d="M457.9219,18.7656 L457.9219,16.6094 L465.3125,16.6094 L465.3125,18.7656 L462.8438,18.7656 L462.8438,26.8438 L465.3125,26.8438 L465.3125,29 L457.9219,29 L457.9219,26.8438 L460.3906,26.8438 L460.3906,18.7656 L457.9219,18.7656 Z " fill="#000000"/><text fill="#000000" font-family="sans-serif" font-size="12" font-style="italic" lengthAdjust="spacing" textLength="59" x="476" y="27.1543">Runnable</text><line style="stroke:#A80036;stroke-width:1.5;" x1="448" x2="537" y1="39" y2="39"/><line style="stroke:#A80036;stroke-width:1.5;" x1="448" x2="537" y1="47" y2="47"/><text fill="#000000" font-family="sans-serif" font-size="11" lengthAdjust="spacing" textLength="27" x="453" y="61.2104">run()</text><rect codeLine="27" fill="#FEFECE" filter="url(#f11i98g90y9z7j)" height="48" id="IWorker" style="stroke:#A80036;stroke-width:1.5;" width="90" x="447.5" y="134.5"/><ellipse cx="462.5" cy="150.5" fill="#B4A7E5" rx="11" ry="11" style="stroke:#A80036;stroke-width:1.0;"/><path d="M458.4219,146.2656 L458.4219,144.1094 L465.8125,144.1094 L465.8125,146.2656 L463.3438,146.2656 L463.3438,154.3438 L465.8125,154.3438 L465.8125,156.5 L458.4219,156.5 L458.4219,154.3438 L460.8906,154.3438 L460.8906,146.2656 L458.4219,146.2656 Z " fill="#000000"/><text fill="#000000" font-family="sans-serif" font-size="12" font-style="italic" lengthAdjust="spacing" textLength="47" x="476.5" y="154.6543">IWorker</text><rect fill="#FFFFFF" height="15.9688" style="stroke:#000000;stroke-width:1.0;stroke-dasharray:2.0,2.0;" width="9" x="531.5" y="131.5"/><text fill="#000000" font-family="sans-serif" font-size="12" font-style="italic" lengthAdjust="spacing" textLength="7" x="532.5" y="143.6387">T</text><line style="stroke:#A80036;stroke-width:1.5;" x1="448.5" x2="536.5" y1="166.5" y2="166.5"/><line style="stroke:#A80036;stroke-width:1.5;" x1="448.5" x2="536.5" y1="174.5" y2="174.5"/><rect codeLine="28" fill="#FEFECE" filter="url(#f11i98g90y9z7j)" height="48" id="SuiteRunnerWorker" style="stroke:#A80036;stroke-width:1.5;" width="153" x="229" y="255.5"/><ellipse cx="244" cy="271.5" fill="#ADD1B2" rx="11" ry="11" style="stroke:#A80036;stroke-width:1.0;"/><path d="M246.9688,277.1406 Q246.3906,277.4375 245.75,277.5859 Q245.1094,277.7344 244.4063,277.7344 Q241.9063,277.7344 240.5859,276.0859 Q239.2656,274.4375 239.2656,271.3125 Q239.2656,268.1875 240.5859,266.5313 Q241.9063,264.875 244.4063,264.875 Q245.1094,264.875 245.7578,265.0313 Q246.4063,265.1875 246.9688,265.4844 L246.9688,268.2031 Q246.3438,267.625 245.75,267.3516 Q245.1563,267.0781 244.5313,267.0781 Q243.1875,267.0781 242.5,268.1484 Q241.8125,269.2188 241.8125,271.3125 Q241.8125,273.4063 242.5,274.4766 Q243.1875,275.5469 244.5313,275.5469 Q245.1563,275.5469 245.75,275.2734 Q246.3438,275 246.9688,274.4219 L246.9688,277.1406 Z " fill="#000000"/><text fill="#000000" font-family="sans-serif" font-size="12" lengthAdjust="spacing" textLength="121" x="258" y="275.6543">SuiteRunnerWorker</text><line style="stroke:#A80036;stroke-width:1.5;" x1="230" x2="381" y1="287.5" y2="287.5"/><line style="stroke:#A80036;stroke-width:1.5;" x1="230" x2="381" y1="295.5" y2="295.5"/><rect codeLine="29" fill="#FEFECE" filter="url(#f11i98g90y9z7j)" height="48" id="TestMethodWorker" style="stroke:#A80036;stroke-width:1.5;" width="150" x="417.5" y="255.5"/><ellipse cx="432.5" cy="271.5" fill="#ADD1B2" rx="11" ry="11" style="stroke:#A80036;stroke-width:1.0;"/><path d="M435.4688,277.1406 Q434.8906,277.4375 434.25,277.5859 Q433.6094,277.7344 432.9063,277.7344 Q430.4063,277.7344 429.0859,276.0859 Q427.7656,274.4375 427.7656,271.3125 Q427.7656,268.1875 429.0859,266.5313 Q430.4063,264.875 432.9063,264.875 Q433.6094,264.875 434.2578,265.0313 Q434.9063,265.1875 435.4688,265.4844 L435.4688,268.2031 Q434.8438,267.625 434.25,267.3516 Q433.6563,267.0781 433.0313,267.0781 Q431.6875,267.0781 431,268.1484 Q430.3125,269.2188 430.3125,271.3125 Q430.3125,273.4063 431,274.4766 Q431.6875,275.5469 433.0313,275.5469 Q433.6563,275.5469 434.25,275.2734 Q434.8438,275 435.4688,274.4219 L435.4688,277.1406 Z " fill="#000000"/><text fill="#000000" font-family="sans-serif" font-size="12" lengthAdjust="spacing" textLength="118" x="446.5" y="275.6543">TestMethodWorker</text><line style="stroke:#A80036;stroke-width:1.5;" x1="418.5" x2="566.5" y1="287.5" y2="287.5"/><line style="stroke:#A80036;stroke-width:1.5;" x1="418.5" x2="566.5" y1="295.5" y2="295.5"/><rect codeLine="30" fill="#FEFECE" filter="url(#f11i98g90y9z7j)" height="48" id="TestMethodWithDataProviderMethodWorker" style="stroke:#A80036;stroke-width:1.5;" width="305" x="603" y="255.5"/><ellipse cx="618" cy="271.5" fill="#ADD1B2" rx="11" ry="11" style="stroke:#A80036;stroke-width:1.0;"/><path d="M620.9688,277.1406 Q620.3906,277.4375 619.75,277.5859 Q619.1094,277.7344 618.4063,277.7344 Q615.9063,277.7344 614.5859,276.0859 Q613.2656,274.4375 613.2656,271.3125 Q613.2656,268.1875 614.5859,266.5313 Q615.9063,264.875 618.4063,264.875 Q619.1094,264.875 619.7578,265.0313 Q620.4063,265.1875 620.9688,265.4844 L620.9688,268.2031 Q620.3438,267.625 619.75,267.3516 Q619.1563,267.0781 618.5313,267.0781 Q617.1875,267.0781 616.5,268.1484 Q615.8125,269.2188 615.8125,271.3125 Q615.8125,273.4063 616.5,274.4766 Q617.1875,275.5469 618.5313,275.5469 Q619.1563,275.5469 619.75,275.2734 Q620.3438,275 620.9688,274.4219 L620.9688,277.1406 Z " fill="#000000"/><text fill="#000000" font-family="sans-serif" font-size="12" lengthAdjust="spacing" textLength="273" x="632" y="275.6543">TestMethodWithDataProviderMethodWorker</text><line style="stroke:#A80036;stroke-width:1.5;" x1="604" x2="907" y1="287.5" y2="287.5"/><line style="stroke:#A80036;stroke-width:1.5;" x1="604" x2="907" y1="295.5" y2="295.5"/><path codeLine="6" d="M85.8721,200.9102 C77.4131,219.1878 67.8313,239.8912 60.6266,255.4587 " fill="none" id="SuiteRunnerMap-backto-XmlSuite" style="stroke:#A80036;stroke-width:1.0;"/><polygon fill="#FFFFFF" points="91.3688,189.0334,85.2187,192.7985,86.3287,199.9236,92.4788,196.1586,91.3688,189.0334" style="stroke:#A80036;stroke-width:1.0;"/><path codeLine="7" d="M124.9113,201.2049 C132.0772,216.9698 140.0474,234.5042 146.6256,248.9764 " fill="none" id="SuiteRunnerMap-backto-ISuite" style="stroke:#A80036;stroke-width:1.0;"/><polygon fill="#FFFFFF" points="119.3788,189.0334,118.2201,196.1508,124.3444,199.9578,125.5031,192.8404,119.3788,189.0334" style="stroke:#A80036;stroke-width:1.0;"/><path codeLine="9" d="M295.6409,537.7464 C286.869,553.5358 276.7861,571.6849 268.9202,585.8436 " fill="none" id="TestRunner-backto-Invoker" style="stroke:#A80036;stroke-width:1.0;"/><polygon fill="#A80036" points="302.0348,526.2373,295.6243,529.5396,296.207,536.7271,302.6175,533.4248,302.0348,526.2373" style="stroke:#A80036;stroke-width:1.0;"/><path codeLine="10" d="M335.3591,537.7464 C344.131,553.5358 354.2139,571.6849 362.0798,585.8436 " fill="none" id="TestRunner-backto-TestClass" style="stroke:#A80036;stroke-width:1.0;"/><polygon fill="#A80036" points="328.9652,526.2373,328.3825,533.4248,334.793,536.7271,335.3757,529.5396,328.9652,526.2373" style="stroke:#A80036;stroke-width:1.0;"/><text fill="#000000" font-family="sans-serif" font-size="13" lengthAdjust="spacing" textLength="8" x="323.2723" y="546.0563">1</text><text fill="#000000" font-family="sans-serif" font-size="13" lengthAdjust="spacing" textLength="7" x="350.744" y="574.8156">*</text><path codeLine="11" d="M375.5,647.6145 C375.5,662.9531 375.5,680.2402 375.5,693.8436 " fill="none" id="TestClass-backto-TestNGMethod" style="stroke:#A80036;stroke-width:1.0;"/><polygon fill="#A80036" points="375.5,634.2373,371.5,640.2373,375.5,646.2373,379.5,640.2373,375.5,634.2373" style="stroke:#A80036;stroke-width:1.0;"/><text fill="#000000" font-family="sans-serif" font-size="13" lengthAdjust="spacing" textLength="8" x="366.525" y="654.0563">1</text><text fill="#000000" font-family="sans-serif" font-size="13" lengthAdjust="spacing" textLength="7" x="367.6031" y="682.8156">*</text><path codeLine="14" d="M371.7399,428.8204 C359.4419,444.8226 345.1592,463.4073 334.0647,477.8436 " fill="none" id="ITestRunnerFactory-backto-TestRunner" style="stroke:#A80036;stroke-width:1.0;"/><polygon fill="#FFFFFF" points="379.8732,418.2373,373.0455,420.5572,372.5609,427.752,379.3886,425.4321,379.8732,418.2373" style="stroke:#A80036;stroke-width:1.0;"/><path d="M190.5783,327.3329 C199.7715,341.9525 209.4943,357.4145 217.2595,369.7634 " fill="none" id="ISuite-backto-SuiteRunner" style="stroke:#A80036;stroke-width:1.0;"/><polygon fill="none" points="184.5154,330.841,179.7947,310.1839,196.367,323.3885,184.5154,330.841" style="stroke:#A80036;stroke-width:1.0;"/><path codeLine="21" d="M259.2601,428.8204 C271.5581,444.8226 285.8408,463.4073 296.9353,477.8436 " fill="none" id="SuiteRunner-backto-TestRunner" style="stroke:#A80036;stroke-width:1.0;"/><polygon fill="#A80036" points="251.1268,418.2373,251.6114,425.4321,258.4391,427.752,257.9545,420.5572,251.1268,418.2373" style="stroke:#A80036;stroke-width:1.0;"/><text fill="#000000" font-family="sans-serif" font-size="13" lengthAdjust="spacing" textLength="8" x="246.6921" y="438.0563">1</text><text fill="#000000" font-family="sans-serif" font-size="13" lengthAdjust="spacing" textLength="7" x="284.2812" y="466.8156">*</text><path d="M492.5,88.1787 C492.5,104.2165 492.5,121.2003 492.5,134.4587 " fill="none" id="Runnable-backto-IWorker" style="stroke:#A80036;stroke-width:1.0;"/><polygon fill="none" points="485.5001,88.0334,492.5,68.0334,499.5001,88.0334,485.5001,88.0334" style="stroke:#A80036;stroke-width:1.0;"/><path d="M438.0152,193.7549 C407.4375,213.5405 370.076,237.7155 342.828,255.3466 " fill="none" id="IWorker-backto-SuiteRunnerWorker" style="stroke:#A80036;stroke-width:1.0;"/><polygon fill="none" points="434.513,187.6834,455.1072,182.6953,442.1186,199.4374,434.513,187.6834" style="stroke:#A80036;stroke-width:1.0;"/><path d="M492.5,202.8886 C492.5,220.6241 492.5,240.3519 492.5,255.3466 " fill="none" id="IWorker-backto-TestMethodWorker" style="stroke:#A80036;stroke-width:1.0;"/><polygon fill="none" points="485.5001,202.6954,492.5,182.6953,499.5001,202.6953,485.5001,202.6954" style="stroke:#A80036;stroke-width:1.0;"/><path d="M556.0367,187.7317 C601.1137,208.4706 660.8837,235.9693 703.2068,255.4411 " fill="none" id="IWorker-backto-TestMethodWithDataProviderMethodWorker" style="stroke:#A80036;stroke-width:1.0;"/><polygon fill="none" points="552.9548,194.0192,537.7113,179.3006,558.8064,181.3007,552.9548,194.0192" style="stroke:#A80036;stroke-width:1.0;"/><path codeLine="31" d="M283.1012,314.6323 C271.7449,332.4447 258.2365,353.6325 248.0345,369.6343 " fill="none" id="SuiteRunnerWorker-backto-SuiteRunner" style="stroke:#A80036;stroke-width:1.0;"/><polygon fill="#A80036" points="290.1968,303.503,283.5984,306.4119,283.7457,313.6215,290.3441,310.7126,290.1968,303.503" style="stroke:#A80036;stroke-width:1.0;"/></g></svg>