<?xml version="1.0" encoding="UTF-8" standalone="no"?><svg xmlns="http://www.w3.org/2000/svg" xmlns:xlink="http://www.w3.org/1999/xlink" contentScriptType="application/ecmascript" contentStyleType="text/css" height="405px" preserveAspectRatio="none" style="width:935px;height:405px;" version="1.1" viewBox="0 0 935 405" width="935px" zoomAndPan="magnify"><defs><filter height="300%" id="f146zyvp5tjlsb" width="300%" x="-1" y="-1"><feGaussianBlur result="blurOut" stdDeviation="2.0"/><feColorMatrix in="blurOut" result="blurOut2" type="matrix" values="0 0 0 0 0 0 0 0 0 0 0 0 0 0 0 0 0 0 .4 0"/><feOffset dx="4.0" dy="4.0" in="blurOut2" result="blurOut3"/><feBlend in="SourceGraphic" in2="blurOut3" mode="normal"/></filter></defs><g><rect codeLine="1" fill="#FEFECE" filter="url(#f146zyvp5tjlsb)" height="48" id="IThreadWorkFactory" style="stroke:#A80036;stroke-width:1.5;" width="156" x="293" y="223"/><ellipse cx="308" cy="239" fill="#B4A7E5" rx="11" ry="11" style="stroke:#A80036;stroke-width:1.0;"/><path d="M303.9219,234.7656 L303.9219,232.6094 L311.3125,232.6094 L311.3125,234.7656 L308.8438,234.7656 L308.8438,242.8438 L311.3125,242.8438 L311.3125,245 L303.9219,245 L303.9219,242.8438 L306.3906,242.8438 L306.3906,234.7656 L303.9219,234.7656 Z " fill="#000000"/><text fill="#000000" font-family="sans-serif" font-size="12" font-style="italic" lengthAdjust="spacing" textLength="124" x="322" y="243.1543">IThreadWorkFactory</text><line style="stroke:#A80036;stroke-width:1.5;" x1="294" x2="448" y1="255" y2="255"/><line style="stroke:#A80036;stroke-width:1.5;" x1="294" x2="448" y1="263" y2="263"/><rect codeLine="2" fill="#FEFECE" filter="url(#f146zyvp5tjlsb)" height="48" id="Suite(Runner)WorkFactory" style="stroke:#A80036;stroke-width:1.5;" width="196" x="7" y="337.5"/><ellipse cx="22" cy="353.5" fill="#ADD1B2" rx="11" ry="11" style="stroke:#A80036;stroke-width:1.0;"/><path d="M24.9688,359.1406 Q24.3906,359.4375 23.75,359.5859 Q23.1094,359.7344 22.4063,359.7344 Q19.9063,359.7344 18.5859,358.0859 Q17.2656,356.4375 17.2656,353.3125 Q17.2656,350.1875 18.5859,348.5313 Q19.9063,346.875 22.4063,346.875 Q23.1094,346.875 23.7578,347.0313 Q24.4063,347.1875 24.9688,347.4844 L24.9688,350.2031 Q24.3438,349.625 23.75,349.3516 Q23.1563,349.0781 22.5313,349.0781 Q21.1875,349.0781 20.5,350.1484 Q19.8125,351.2188 19.8125,353.3125 Q19.8125,355.4063 20.5,356.4766 Q21.1875,357.5469 22.5313,357.5469 Q23.1563,357.5469 23.75,357.2734 Q24.3438,357 24.9688,356.4219 L24.9688,359.1406 Z " fill="#000000"/><text fill="#000000" font-family="sans-serif" font-size="12" lengthAdjust="spacing" textLength="164" x="36" y="357.6543">Suite(Runner)WorkFactory</text><line style="stroke:#A80036;stroke-width:1.5;" x1="8" x2="202" y1="369.5" y2="369.5"/><line style="stroke:#A80036;stroke-width:1.5;" x1="8" x2="202" y1="377.5" y2="377.5"/><rect codeLine="3" fill="#FEFECE" filter="url(#f146zyvp5tjlsb)" height="48" id="TestRunner(TestMethodWorkFactory)" style="stroke:#A80036;stroke-width:1.5;" width="265" x="238.5" y="337.5"/><ellipse cx="253.5" cy="353.5" fill="#ADD1B2" rx="11" ry="11" style="stroke:#A80036;stroke-width:1.0;"/><path d="M256.4688,359.1406 Q255.8906,359.4375 255.25,359.5859 Q254.6094,359.7344 253.9063,359.7344 Q251.4063,359.7344 250.0859,358.0859 Q248.7656,356.4375 248.7656,353.3125 Q248.7656,350.1875 250.0859,348.5313 Q251.4063,346.875 253.9063,346.875 Q254.6094,346.875 255.2578,347.0313 Q255.9063,347.1875 256.4688,347.4844 L256.4688,350.2031 Q255.8438,349.625 255.25,349.3516 Q254.6563,349.0781 254.0313,349.0781 Q252.6875,349.0781 252,350.1484 Q251.3125,351.2188 251.3125,353.3125 Q251.3125,355.4063 252,356.4766 Q252.6875,357.5469 254.0313,357.5469 Q254.6563,357.5469 255.25,357.2734 Q255.8438,357 256.4688,356.4219 L256.4688,359.1406 Z " fill="#000000"/><text fill="#000000" font-family="sans-serif" font-size="12" lengthAdjust="spacing" textLength="233" x="267.5" y="357.6543">TestRunner(TestMethodWorkFactory)</text><line style="stroke:#A80036;stroke-width:1.5;" x1="239.5" x2="502.5" y1="369.5" y2="369.5"/><line style="stroke:#A80036;stroke-width:1.5;" x1="239.5" x2="502.5" y1="377.5" y2="377.5"/><rect codeLine="4" fill="#FEFECE" filter="url(#f146zyvp5tjlsb)" height="48" id="GraphThreadPoolExecutor" style="stroke:#A80036;stroke-width:1.5;" width="196" x="306" y="115"/><ellipse cx="321" cy="131" fill="#ADD1B2" rx="11" ry="11" style="stroke:#A80036;stroke-width:1.0;"/><path d="M323.9688,136.6406 Q323.3906,136.9375 322.75,137.0859 Q322.1094,137.2344 321.4063,137.2344 Q318.9063,137.2344 317.5859,135.5859 Q316.2656,133.9375 316.2656,130.8125 Q316.2656,127.6875 317.5859,126.0313 Q318.9063,124.375 321.4063,124.375 Q322.1094,124.375 322.7578,124.5313 Q323.4063,124.6875 323.9688,124.9844 L323.9688,127.7031 Q323.3438,127.125 322.75,126.8516 Q322.1563,126.5781 321.5313,126.5781 Q320.1875,126.5781 319.5,127.6484 Q318.8125,128.7188 318.8125,130.8125 Q318.8125,132.9063 319.5,133.9766 Q320.1875,135.0469 321.5313,135.0469 Q322.1563,135.0469 322.75,134.7734 Q323.3438,134.5 323.9688,133.9219 L323.9688,136.6406 Z " fill="#000000"/><text fill="#000000" font-family="sans-serif" font-size="12" lengthAdjust="spacing" textLength="164" x="335" y="135.1543">GraphThreadPoolExecutor</text><line style="stroke:#A80036;stroke-width:1.5;" x1="307" x2="501" y1="147" y2="147"/><line style="stroke:#A80036;stroke-width:1.5;" x1="307" x2="501" y1="155" y2="155"/><rect fill="#FEFECE" filter="url(#f146zyvp5tjlsb)" height="48" id="ThreadPoolExecutor" style="stroke:#A80036;stroke-width:1.5;" width="158" x="414" y="7"/><ellipse cx="429" cy="23" fill="#ADD1B2" rx="11" ry="11" style="stroke:#A80036;stroke-width:1.0;"/><path d="M431.9688,28.6406 Q431.3906,28.9375 430.75,29.0859 Q430.1094,29.2344 429.4063,29.2344 Q426.9063,29.2344 425.5859,27.5859 Q424.2656,25.9375 424.2656,22.8125 Q424.2656,19.6875 425.5859,18.0313 Q426.9063,16.375 429.4063,16.375 Q430.1094,16.375 430.7578,16.5313 Q431.4063,16.6875 431.9688,16.9844 L431.9688,19.7031 Q431.3438,19.125 430.75,18.8516 Q430.1563,18.5781 429.5313,18.5781 Q428.1875,18.5781 427.5,19.6484 Q426.8125,20.7188 426.8125,22.8125 Q426.8125,24.9063 427.5,25.9766 Q428.1875,27.0469 429.5313,27.0469 Q430.1563,27.0469 430.75,26.7734 Q431.3438,26.5 431.9688,25.9219 L431.9688,28.6406 Z " fill="#000000"/><text fill="#000000" font-family="sans-serif" font-size="12" lengthAdjust="spacing" textLength="126" x="443" y="27.1543">ThreadPoolExecutor</text><line style="stroke:#A80036;stroke-width:1.5;" x1="415" x2="571" y1="39" y2="39"/><line style="stroke:#A80036;stroke-width:1.5;" x1="415" x2="571" y1="47" y2="47"/><rect codeLine="8" fill="#FEFECE" filter="url(#f146zyvp5tjlsb)" height="48" id="Runnable" style="stroke:#A80036;stroke-width:1.5;" width="91" x="569.5" y="115"/><ellipse cx="584.5" cy="131" fill="#B4A7E5" rx="11" ry="11" style="stroke:#A80036;stroke-width:1.0;"/><path d="M580.4219,126.7656 L580.4219,124.6094 L587.8125,124.6094 L587.8125,126.7656 L585.3438,126.7656 L585.3438,134.8438 L587.8125,134.8438 L587.8125,137 L580.4219,137 L580.4219,134.8438 L582.8906,134.8438 L582.8906,126.7656 L580.4219,126.7656 Z " fill="#000000"/><text fill="#000000" font-family="sans-serif" font-size="12" font-style="italic" lengthAdjust="spacing" textLength="59" x="598.5" y="135.1543">Runnable</text><line style="stroke:#A80036;stroke-width:1.5;" x1="570.5" x2="659.5" y1="147" y2="147"/><line style="stroke:#A80036;stroke-width:1.5;" x1="570.5" x2="659.5" y1="155" y2="155"/><rect codeLine="9" fill="#FEFECE" filter="url(#f146zyvp5tjlsb)" height="48" id="IWorker" style="stroke:#A80036;stroke-width:1.5;" width="90" x="570" y="223"/><ellipse cx="585" cy="239" fill="#B4A7E5" rx="11" ry="11" style="stroke:#A80036;stroke-width:1.0;"/><path d="M580.9219,234.7656 L580.9219,232.6094 L588.3125,232.6094 L588.3125,234.7656 L585.8438,234.7656 L585.8438,242.8438 L588.3125,242.8438 L588.3125,245 L580.9219,245 L580.9219,242.8438 L583.3906,242.8438 L583.3906,234.7656 L580.9219,234.7656 Z " fill="#000000"/><text fill="#000000" font-family="sans-serif" font-size="12" font-style="italic" lengthAdjust="spacing" textLength="47" x="599" y="243.1543">IWorker</text><rect fill="#FFFFFF" height="15.9688" style="stroke:#000000;stroke-width:1.0;stroke-dasharray:2.0,2.0;" width="9" x="654" y="220"/><text fill="#000000" font-family="sans-serif" font-size="12" font-style="italic" lengthAdjust="spacing" textLength="7" x="655" y="232.1387">T</text><line style="stroke:#A80036;stroke-width:1.5;" x1="571" x2="659" y1="255" y2="255"/><line style="stroke:#A80036;stroke-width:1.5;" x1="571" x2="659" y1="263" y2="263"/><rect codeLine="10" fill="#FEFECE" filter="url(#f146zyvp5tjlsb)" height="48" id="Suite(Test)Worker" style="stroke:#A80036;stroke-width:1.5;" width="145" x="695.5" y="223"/><ellipse cx="710.5" cy="239" fill="#ADD1B2" rx="11" ry="11" style="stroke:#A80036;stroke-width:1.0;"/><path d="M713.4688,244.6406 Q712.8906,244.9375 712.25,245.0859 Q711.6094,245.2344 710.9063,245.2344 Q708.4063,245.2344 707.0859,243.5859 Q705.7656,241.9375 705.7656,238.8125 Q705.7656,235.6875 707.0859,234.0313 Q708.4063,232.375 710.9063,232.375 Q711.6094,232.375 712.2578,232.5313 Q712.9063,232.6875 713.4688,232.9844 L713.4688,235.7031 Q712.8438,235.125 712.25,234.8516 Q711.6563,234.5781 711.0313,234.5781 Q709.6875,234.5781 709,235.6484 Q708.3125,236.7188 708.3125,238.8125 Q708.3125,240.9063 709,241.9766 Q709.6875,243.0469 711.0313,243.0469 Q711.6563,243.0469 712.25,242.7734 Q712.8438,242.5 713.4688,241.9219 L713.4688,244.6406 Z " fill="#000000"/><text fill="#000000" font-family="sans-serif" font-size="12" lengthAdjust="spacing" textLength="113" x="724.5" y="243.1543">Suite(Test)Worker</text><line style="stroke:#A80036;stroke-width:1.5;" x1="696.5" x2="839.5" y1="255" y2="255"/><line style="stroke:#A80036;stroke-width:1.5;" x1="696.5" x2="839.5" y1="263" y2="263"/><rect codeLine="12" fill="#FEFECE" filter="url(#f146zyvp5tjlsb)" height="60.8047" id="SuiteRunnerWorker" style="stroke:#A80036;stroke-width:1.5;" width="153" x="538.5" y="331"/><ellipse cx="553.5" cy="347" fill="#ADD1B2" rx="11" ry="11" style="stroke:#A80036;stroke-width:1.0;"/><path d="M556.4688,352.6406 Q555.8906,352.9375 555.25,353.0859 Q554.6094,353.2344 553.9063,353.2344 Q551.4063,353.2344 550.0859,351.5859 Q548.7656,349.9375 548.7656,346.8125 Q548.7656,343.6875 550.0859,342.0313 Q551.4063,340.375 553.9063,340.375 Q554.6094,340.375 555.2578,340.5313 Q555.9063,340.6875 556.4688,340.9844 L556.4688,343.7031 Q555.8438,343.125 555.25,342.8516 Q554.6563,342.5781 554.0313,342.5781 Q552.6875,342.5781 552,343.6484 Q551.3125,344.7188 551.3125,346.8125 Q551.3125,348.9063 552,349.9766 Q552.6875,351.0469 554.0313,351.0469 Q554.6563,351.0469 555.25,350.7734 Q555.8438,350.5 556.4688,349.9219 L556.4688,352.6406 Z " fill="#000000"/><text fill="#000000" font-family="sans-serif" font-size="12" lengthAdjust="spacing" textLength="121" x="567.5" y="351.1543">SuiteRunnerWorker</text><line style="stroke:#A80036;stroke-width:1.5;" x1="539.5" x2="690.5" y1="363" y2="363"/><text fill="#000000" font-family="sans-serif" font-size="11" lengthAdjust="spacing" textLength="113" x="544.5" y="377.2104">List&lt;ISuite&gt; suites;</text><line style="stroke:#A80036;stroke-width:1.5;" x1="539.5" x2="690.5" y1="383.8047" y2="383.8047"/><rect codeLine="15" fill="#FEFECE" filter="url(#f146zyvp5tjlsb)" height="60.8047" id="TestMethodWorker" style="stroke:#A80036;stroke-width:1.5;" width="194" x="727" y="331"/><ellipse cx="761.8" cy="347" fill="#ADD1B2" rx="11" ry="11" style="stroke:#A80036;stroke-width:1.0;"/><path d="M764.7688,352.6406 Q764.1906,352.9375 763.55,353.0859 Q762.9094,353.2344 762.2063,353.2344 Q759.7063,353.2344 758.3859,351.5859 Q757.0656,349.9375 757.0656,346.8125 Q757.0656,343.6875 758.3859,342.0313 Q759.7063,340.375 762.2063,340.375 Q762.9094,340.375 763.5578,340.5313 Q764.2063,340.6875 764.7688,340.9844 L764.7688,343.7031 Q764.1438,343.125 763.55,342.8516 Q762.9563,342.5781 762.3313,342.5781 Q760.9875,342.5781 760.3,343.6484 Q759.6125,344.7188 759.6125,346.8125 Q759.6125,348.9063 760.3,349.9766 Q760.9875,351.0469 762.3313,351.0469 Q762.9563,351.0469 763.55,350.7734 Q764.1438,350.5 764.7688,349.9219 L764.7688,352.6406 Z " fill="#000000"/><text fill="#000000" font-family="sans-serif" font-size="12" lengthAdjust="spacing" textLength="118" x="780.2" y="351.1543">TestMethodWorker</text><line style="stroke:#A80036;stroke-width:1.5;" x1="728" x2="920" y1="363" y2="363"/><text fill="#000000" font-family="sans-serif" font-size="11" lengthAdjust="spacing" textLength="182" x="733" y="377.2104">List&lt;ITestNGMethod&gt; methods;</text><line style="stroke:#A80036;stroke-width:1.5;" x1="728" x2="920" y1="383.8047" y2="383.8047"/><path d="M296.6191,279.0173 C253.6843,297.4987 200.5608,320.3657 161.1464,337.3317 " fill="none" id="IThreadWorkFactory-backto-Suite(Runner)WorkFactory" style="stroke:#A80036;stroke-width:1.0;"/><polygon fill="none" points="294.0996,272.4809,315.2377,271.003,299.635,285.3402,294.0996,272.4809" style="stroke:#A80036;stroke-width:1.0;"/><path d="M371,291.0131 C371,306.6695 371,323.7233 371,337.1343 " fill="none" id="IThreadWorkFactory-backto-TestRunner(TestMethodWorkFactory)" style="stroke:#A80036;stroke-width:1.0;"/><polygon fill="none" points="364.0001,291.003,371,271.003,378.0001,291.0029,364.0001,291.003" style="stroke:#A80036;stroke-width:1.0;"/><path d="M460.0562,70.9767 C447.9169,85.7075 434.5449,101.9342 423.9067,114.8436 " fill="none" id="ThreadPoolExecutor-backto-GraphThreadPoolExecutor" style="stroke:#A80036;stroke-width:1.0;"/><polygon fill="none" points="454.9054,66.2201,473.0267,55.2373,465.7095,75.1235,454.9054,66.2201" style="stroke:#A80036;stroke-width:1.0;"/><path codeLine="5" d="M392.7929,175.6779 C388.0359,191.246 382.6225,208.9626 378.3811,222.8436 " fill="none" id="GraphThreadPoolExecutor-backto-IThreadWorkFactory" style="stroke:#A80036;stroke-width:1.0;"/><polygon fill="#FFFFFF" points="396.5942,163.2373,391.0155,167.8065,393.0876,174.7135,398.6663,170.1443,396.5942,163.2373" style="stroke:#A80036;stroke-width:1.0;"/><path codeLine="7" d="M530.2618,63.9858 C548.7888,80.3868 570.7774,99.8521 587.7122,114.8436 " fill="none" id="ThreadPoolExecutor-backto-Runnable" style="stroke:#A80036;stroke-width:1.0;"/><polygon fill="#FFFFFF" points="520.3792,55.2373,522.2204,62.2094,529.3643,63.1914,527.5231,56.2193,520.3792,55.2373" style="stroke:#A80036;stroke-width:1.0;"/><path d="M615,183.2911 C615,196.8171 615,211.1835 615,222.8436 " fill="none" id="Runnable-backto-IWorker" style="stroke:#A80036;stroke-width:1.0;"/><polygon fill="none" points="608.0001,183.2373,615,163.2373,622.0001,183.2373,608.0001,183.2373" style="stroke:#A80036;stroke-width:1.0;"/><path d="M665.9699,174.9788 C688.261,190.7137 713.8187,208.7544 733.7784,222.8436 " fill="none" id="Runnable-backto-Suite(Test)Worker" style="stroke:#A80036;stroke-width:1.0;"/><polygon fill="none" points="661.6388,180.4898,649.3362,163.2373,669.7124,169.0522,661.6388,180.4898" style="stroke:#A80036;stroke-width:1.0;"/><path d="M615,291.2477 C615,304.5296 615,318.7972 615,330.9818 " fill="none" id="IWorker-backto-SuiteRunnerWorker" style="stroke:#A80036;stroke-width:1.0;"/><polygon fill="none" points="608.0001,291.003,615,271.003,622.0001,291.0029,608.0001,291.003" style="stroke:#A80036;stroke-width:1.0;"/><path d="M676.5584,280.7246 C705.6111,296.641 740.0244,315.4942 768.2942,330.9818 " fill="none" id="IWorker-backto-TestMethodWorker" style="stroke:#A80036;stroke-width:1.0;"/><polygon fill="none" points="672.9902,286.7515,658.8132,271.003,679.7168,274.4733,672.9902,286.7515" style="stroke:#A80036;stroke-width:1.0;"/></g></svg>