<?xml version="1.0" encoding="UTF-8" standalone="no"?><svg xmlns="http://www.w3.org/2000/svg" xmlns:xlink="http://www.w3.org/1999/xlink" contentScriptType="application/ecmascript" contentStyleType="text/css" height="304px" preserveAspectRatio="none" style="width:336px;height:304px;" version="1.1" viewBox="0 0 336 304" width="336px" zoomAndPan="magnify"><defs><filter height="300%" id="f1ir8qggdlrv6" width="300%" x="-1" y="-1"><feGaussianBlur result="blurOut" stdDeviation="2.0"/><feColorMatrix in="blurOut" result="blurOut2" type="matrix" values="0 0 0 0 0 0 0 0 0 0 0 0 0 0 0 0 0 0 .4 0"/><feOffset dx="4.0" dy="4.0" in="blurOut2" result="blurOut3"/><feBlend in="SourceGraphic" in2="blurOut3" mode="normal"/></filter></defs><g><rect codeLine="1" fill="#FEFECE" filter="url(#f1ir8qggdlrv6)" height="163.2422" id="DynamicGraph" style="stroke:#A80036;stroke-width:1.5;" width="306" x="16" y="7"/><ellipse cx="119.75" cy="23" fill="#ADD1B2" rx="11" ry="11" style="stroke:#A80036;stroke-width:1.0;"/><path d="M122.7188,28.6406 Q122.1406,28.9375 121.5,29.0859 Q120.8594,29.2344 120.1563,29.2344 Q117.6563,29.2344 116.3359,27.5859 Q115.0156,25.9375 115.0156,22.8125 Q115.0156,19.6875 116.3359,18.0313 Q117.6563,16.375 120.1563,16.375 Q120.8594,16.375 121.5078,16.5313 Q122.1563,16.6875 122.7188,16.9844 L122.7188,19.7031 Q122.0938,19.125 121.5,18.8516 Q120.9063,18.5781 120.2813,18.5781 Q118.9375,18.5781 118.25,19.6484 Q117.5625,20.7188 117.5625,22.8125 Q117.5625,24.9063 118.25,25.9766 Q118.9375,27.0469 120.2813,27.0469 Q120.9063,27.0469 121.5,26.7734 Q122.0938,26.5 122.7188,25.9219 L122.7188,28.6406 Z " fill="#000000"/><text fill="#000000" font-family="sans-serif" font-size="12" lengthAdjust="spacing" textLength="90" x="140.25" y="27.1543">DynamicGraph</text><line style="stroke:#A80036;stroke-width:1.5;" x1="17" x2="321" y1="39" y2="39"/><text fill="#000000" font-family="sans-serif" font-size="11" lengthAdjust="spacing" textLength="156" x="22" y="53.2104">Set&lt;Node&gt; m_nodesReady</text><text fill="#000000" font-family="sans-serif" font-size="11" lengthAdjust="spacing" textLength="167" x="22" y="66.0151">Set&lt;Node&gt; m_nodesRunning</text><text fill="#000000" font-family="sans-serif" font-size="11" lengthAdjust="spacing" textLength="169" x="22" y="78.8198">Set&lt;Node&gt; m_nodesFinished</text><text fill="#000000" font-family="sans-serif" font-size="11" lengthAdjust="spacing" textLength="259" x="22" y="91.6245">ListMultiMap&lt;Node, Node&gt; m_dependedUpon</text><text fill="#000000" font-family="sans-serif" font-size="11" lengthAdjust="spacing" textLength="249" x="22" y="104.4292">ListMultiMap&lt;Node, Node&gt; m_dependingOn</text><line style="stroke:#A80036;stroke-width:1.5;" x1="17" x2="321" y1="111.0234" y2="111.0234"/><text fill="#000000" font-family="sans-serif" font-size="11" lengthAdjust="spacing" textLength="146" x="22" y="125.2339">void addNode(Node node)</text><text fill="#000000" font-family="sans-serif" font-size="11" lengthAdjust="spacing" textLength="225" x="22" y="138.0386">void addEdge(Node from, Node toNode)</text><text fill="#000000" font-family="sans-serif" font-size="11" lengthAdjust="spacing" textLength="158" x="22" y="150.8433">List&lt;Node&gt; getFreeNodes()</text><text fill="#000000" font-family="sans-serif" font-size="11" lengthAdjust="spacing" textLength="294" x="22" y="163.6479">void setNodeStatus(Node node, NodeStatus status)</text><rect codeLine="13" fill="#FEFECE" filter="url(#f1ir8qggdlrv6)" height="60.8047" id="NodeStatus" style="stroke:#A80036;stroke-width:1.5;" width="166" x="7" y="230"/><ellipse cx="49" cy="246" fill="#EB937F" rx="11" ry="11" style="stroke:#A80036;stroke-width:1.0;"/><path d="M53.1094,252 L45.3906,252 L45.3906,239.6094 L53.1094,239.6094 L53.1094,241.7656 L47.8438,241.7656 L47.8438,244.4375 L52.6094,244.4375 L52.6094,246.5938 L47.8438,246.5938 L47.8438,249.8438 L53.1094,249.8438 L53.1094,252 Z " fill="#000000"/><text fill="#000000" font-family="sans-serif" font-size="12" lengthAdjust="spacing" textLength="74" x="69" y="250.1543">NodeStatus</text><line style="stroke:#A80036;stroke-width:1.5;" x1="8" x2="172" y1="262" y2="262"/><text fill="#000000" font-family="sans-serif" font-size="11" lengthAdjust="spacing" textLength="154" x="13" y="276.2104">READY, RUNNING, FINISHED</text><line style="stroke:#A80036;stroke-width:1.5;" x1="8" x2="172" y1="282.8047" y2="282.8047"/><rect codeLine="17" fill="#FEFECE" filter="url(#f1ir8qggdlrv6)" height="60.8047" id="Node" style="stroke:#A80036;stroke-width:1.5;" width="82" x="208" y="230"/><ellipse cx="230.65" cy="246" fill="#ADD1B2" rx="11" ry="11" style="stroke:#A80036;stroke-width:1.0;"/><path d="M233.6188,251.6406 Q233.0406,251.9375 232.4,252.0859 Q231.7594,252.2344 231.0563,252.2344 Q228.5563,252.2344 227.2359,250.5859 Q225.9156,248.9375 225.9156,245.8125 Q225.9156,242.6875 227.2359,241.0313 Q228.5563,239.375 231.0563,239.375 Q231.7594,239.375 232.4078,239.5313 Q233.0563,239.6875 233.6188,239.9844 L233.6188,242.7031 Q232.9938,242.125 232.4,241.8516 Q231.8063,241.5781 231.1813,241.5781 Q229.8375,241.5781 229.15,242.6484 Q228.4625,243.7188 228.4625,245.8125 Q228.4625,247.9063 229.15,248.9766 Q229.8375,250.0469 231.1813,250.0469 Q231.8063,250.0469 232.4,249.7734 Q232.9938,249.5 233.6188,248.9219 L233.6188,251.6406 Z " fill="#000000"/><text fill="#000000" font-family="sans-serif" font-size="12" lengthAdjust="spacing" textLength="33" x="246.35" y="250.1543">Node</text><line style="stroke:#A80036;stroke-width:1.5;" x1="209" x2="289" y1="262" y2="262"/><text fill="#000000" font-family="sans-serif" font-size="11" lengthAdjust="spacing" textLength="70" x="214" y="276.2104">Object value</text><line style="stroke:#A80036;stroke-width:1.5;" x1="209" x2="289" y1="282.8047" y2="282.8047"/><path codeLine="21" d="M212.5883,182.2148 C220.6262,199.4963 228.4693,216.359 234.8053,229.9813 " fill="none" id="DynamicGraph-backto-Node" style="stroke:#A80036;stroke-width:1.0;"/><polygon fill="#FFFFFF" points="207.0085,170.2184,205.912,177.3456,212.0692,181.0991,213.1657,173.9718,207.0085,170.2184" style="stroke:#A80036;stroke-width:1.0;"/><text fill="#000000" font-family="sans-serif" font-size="13" lengthAdjust="spacing" textLength="8" x="202.0374" y="190.2264">1</text><text fill="#000000" font-family="sans-serif" font-size="13" lengthAdjust="spacing" textLength="7" x="223.9346" y="218.7675">*</text><path codeLine="22" d="M125.9566,182.2148 C118.0191,199.4963 110.2741,216.359 104.0173,229.9813 " fill="none" id="DynamicGraph-backto-NodeStatus" style="stroke:#A80036;stroke-width:1.0;"/><polygon fill="#FFFFFF" points="131.4666,170.2184,125.3274,174.0013,126.458,181.1232,132.5972,177.3403,131.4666,170.2184" style="stroke:#A80036;stroke-width:1.0;"/></g></svg>