<?xml version="1.0" encoding="UTF-8" standalone="no"?><svg xmlns="http://www.w3.org/2000/svg" xmlns:xlink="http://www.w3.org/1999/xlink" contentScriptType="application/ecmascript" contentStyleType="text/css" height="298px" preserveAspectRatio="none" style="width:175px;height:298px;" version="1.1" viewBox="0 0 175 298" width="175px" zoomAndPan="magnify"><defs><filter height="300%" id="f1cb7muui4c3m6" width="300%" x="-1" y="-1"><feGaussianBlur result="blurOut" stdDeviation="2.0"/><feColorMatrix in="blurOut" result="blurOut2" type="matrix" values="0 0 0 0 0 0 0 0 0 0 0 0 0 0 0 0 0 0 .4 0"/><feOffset dx="4.0" dy="4.0" in="blurOut2" result="blurOut3"/><feBlend in="SourceGraphic" in2="blurOut3" mode="normal"/></filter></defs><g><rect codeLine="1" fill="#FEFECE" filter="url(#f1cb7muui4c3m6)" height="60.8047" id="ParameterBag" style="stroke:#A80036;stroke-width:1.5;" width="129" x="19.5" y="7"/><ellipse cx="37.65" cy="23" fill="#ADD1B2" rx="11" ry="11" style="stroke:#A80036;stroke-width:1.0;"/><path d="M40.6188,28.6406 Q40.0406,28.9375 39.4,29.0859 Q38.7594,29.2344 38.0563,29.2344 Q35.5563,29.2344 34.2359,27.5859 Q32.9156,25.9375 32.9156,22.8125 Q32.9156,19.6875 34.2359,18.0313 Q35.5563,16.375 38.0563,16.375 Q38.7594,16.375 39.4078,16.5313 Q40.0563,16.6875 40.6188,16.9844 L40.6188,19.7031 Q39.9938,19.125 39.4,18.8516 Q38.8063,18.5781 38.1813,18.5781 Q36.8375,18.5781 36.15,19.6484 Q35.4625,20.7188 35.4625,22.8125 Q35.4625,24.9063 36.15,25.9766 Q36.8375,27.0469 38.1813,27.0469 Q38.8063,27.0469 39.4,26.7734 Q39.9938,26.5 40.6188,25.9219 L40.6188,28.6406 Z " fill="#000000"/><text fill="#000000" font-family="sans-serif" font-size="12" lengthAdjust="spacing" textLength="90" x="52.35" y="27.1543">ParameterBag</text><line style="stroke:#A80036;stroke-width:1.5;" x1="20.5" x2="147.5" y1="39" y2="39"/><text fill="#000000" font-family="sans-serif" font-size="11" lengthAdjust="spacing" textLength="117" x="25.5" y="53.2104">boolean parseResult</text><line style="stroke:#A80036;stroke-width:1.5;" x1="20.5" x2="147.5" y1="59.8047" y2="59.8047"/><rect fill="#FEFECE" filter="url(#f1cb7muui4c3m6)" height="48" id="ParameterHolder" style="stroke:#A80036;stroke-width:1.5;" width="139" x="14.5" y="128"/><ellipse cx="29.5" cy="144" fill="#ADD1B2" rx="11" ry="11" style="stroke:#A80036;stroke-width:1.0;"/><path d="M32.4688,149.6406 Q31.8906,149.9375 31.25,150.0859 Q30.6094,150.2344 29.9063,150.2344 Q27.4063,150.2344 26.0859,148.5859 Q24.7656,146.9375 24.7656,143.8125 Q24.7656,140.6875 26.0859,139.0313 Q27.4063,137.375 29.9063,137.375 Q30.6094,137.375 31.2578,137.5313 Q31.9063,137.6875 32.4688,137.9844 L32.4688,140.7031 Q31.8438,140.125 31.25,139.8516 Q30.6563,139.5781 30.0313,139.5781 Q28.6875,139.5781 28,140.6484 Q27.3125,141.7188 27.3125,143.8125 Q27.3125,145.9063 28,146.9766 Q28.6875,148.0469 30.0313,148.0469 Q30.6563,148.0469 31.25,147.7734 Q31.8438,147.5 32.4688,146.9219 L32.4688,149.6406 Z " fill="#000000"/><text fill="#000000" font-family="sans-serif" font-size="12" lengthAdjust="spacing" textLength="107" x="43.5" y="148.1543">ParameterHolder</text><line style="stroke:#A80036;stroke-width:1.5;" x1="15.5" x2="152.5" y1="160" y2="160"/><line style="stroke:#A80036;stroke-width:1.5;" x1="15.5" x2="152.5" y1="168" y2="168"/><rect fill="#FEFECE" filter="url(#f1cb7muui4c3m6)" height="48" id="DataProviderHolder" style="stroke:#A80036;stroke-width:1.5;" width="154" x="7" y="236"/><ellipse cx="22" cy="252" fill="#ADD1B2" rx="11" ry="11" style="stroke:#A80036;stroke-width:1.0;"/><path d="M24.9688,257.6406 Q24.3906,257.9375 23.75,258.0859 Q23.1094,258.2344 22.4063,258.2344 Q19.9063,258.2344 18.5859,256.5859 Q17.2656,254.9375 17.2656,251.8125 Q17.2656,248.6875 18.5859,247.0313 Q19.9063,245.375 22.4063,245.375 Q23.1094,245.375 23.7578,245.5313 Q24.4063,245.6875 24.9688,245.9844 L24.9688,248.7031 Q24.3438,248.125 23.75,247.8516 Q23.1563,247.5781 22.5313,247.5781 Q21.1875,247.5781 20.5,248.6484 Q19.8125,249.7188 19.8125,251.8125 Q19.8125,253.9063 20.5,254.9766 Q21.1875,256.0469 22.5313,256.0469 Q23.1563,256.0469 23.75,255.7734 Q24.3438,255.5 24.9688,254.9219 L24.9688,257.6406 Z " fill="#000000"/><text fill="#000000" font-family="sans-serif" font-size="12" lengthAdjust="spacing" textLength="122" x="36" y="256.1543">DataProviderHolder</text><line style="stroke:#A80036;stroke-width:1.5;" x1="8" x2="160" y1="268" y2="268"/><line style="stroke:#A80036;stroke-width:1.5;" x1="8" x2="160" y1="276" y2="276"/><path codeLine="4" d="M84,81.4994 C84,97.2099 84,114.3289 84,127.7634 " fill="none" id="ParameterBag-backto-ParameterHolder" style="stroke:#A80036;stroke-width:1.0;"/><polygon fill="#FFFFFF" points="84,68.1839,80,74.1839,84,80.1839,88,74.1839,84,68.1839" style="stroke:#A80036;stroke-width:1.0;"/><path codeLine="5" d="M84,189.6145 C84,204.9531 84,222.2402 84,235.8436 " fill="none" id="ParameterHolder-backto-DataProviderHolder" style="stroke:#A80036;stroke-width:1.0;"/><polygon fill="#FFFFFF" points="84,176.2373,80,182.2373,84,188.2373,88,182.2373,84,176.2373" style="stroke:#A80036;stroke-width:1.0;"/></g></svg>