<?xml version="1.0" encoding="UTF-8" standalone="no"?><svg xmlns="http://www.w3.org/2000/svg" xmlns:xlink="http://www.w3.org/1999/xlink" contentScriptType="application/ecmascript" contentStyleType="text/css" height="177px" preserveAspectRatio="none" style="width:499px;height:177px;" version="1.1" viewBox="0 0 499 177" width="499px" zoomAndPan="magnify"><defs><filter height="300%" id="f1rbuwvst1vlk9" width="300%" x="-1" y="-1"><feGaussianBlur result="blurOut" stdDeviation="2.0"/><feColorMatrix in="blurOut" result="blurOut2" type="matrix" values="0 0 0 0 0 0 0 0 0 0 0 0 0 0 0 0 0 0 .4 0"/><feOffset dx="4.0" dy="4.0" in="blurOut2" result="blurOut3"/><feBlend in="SourceGraphic" in2="blurOut3" mode="normal"/></filter></defs><g><rect codeLine="1" fill="#FEFECE" filter="url(#f1rbuwvst1vlk9)" height="48" id="IReporter" style="stroke:#A80036;stroke-width:1.5;" width="90" x="183" y="7"/><ellipse cx="198" cy="23" fill="#B4A7E5" rx="11" ry="11" style="stroke:#A80036;stroke-width:1.0;"/><path d="M193.9219,18.7656 L193.9219,16.6094 L201.3125,16.6094 L201.3125,18.7656 L198.8438,18.7656 L198.8438,26.8438 L201.3125,26.8438 L201.3125,29 L193.9219,29 L193.9219,26.8438 L196.3906,26.8438 L196.3906,18.7656 L193.9219,18.7656 Z " fill="#000000"/><text fill="#000000" font-family="sans-serif" font-size="12" font-style="italic" lengthAdjust="spacing" textLength="58" x="212" y="27.1543">IReporter</text><line style="stroke:#A80036;stroke-width:1.5;" x1="184" x2="272" y1="39" y2="39"/><line style="stroke:#A80036;stroke-width:1.5;" x1="184" x2="272" y1="47" y2="47"/><rect codeLine="2" fill="#FEFECE" filter="url(#f1rbuwvst1vlk9)" height="48" id="XMLReporter" style="stroke:#A80036;stroke-width:1.5;" width="110" x="7" y="115"/><ellipse cx="22" cy="131" fill="#ADD1B2" rx="11" ry="11" style="stroke:#A80036;stroke-width:1.0;"/><path d="M24.9688,136.6406 Q24.3906,136.9375 23.75,137.0859 Q23.1094,137.2344 22.4063,137.2344 Q19.9063,137.2344 18.5859,135.5859 Q17.2656,133.9375 17.2656,130.8125 Q17.2656,127.6875 18.5859,126.0313 Q19.9063,124.375 22.4063,124.375 Q23.1094,124.375 23.7578,124.5313 Q24.4063,124.6875 24.9688,124.9844 L24.9688,127.7031 Q24.3438,127.125 23.75,126.8516 Q23.1563,126.5781 22.5313,126.5781 Q21.1875,126.5781 20.5,127.6484 Q19.8125,128.7188 19.8125,130.8125 Q19.8125,132.9063 20.5,133.9766 Q21.1875,135.0469 22.5313,135.0469 Q23.1563,135.0469 23.75,134.7734 Q24.3438,134.5 24.9688,133.9219 L24.9688,136.6406 Z " fill="#000000"/><text fill="#000000" font-family="sans-serif" font-size="12" lengthAdjust="spacing" textLength="78" x="36" y="135.1543">XMLReporter</text><line style="stroke:#A80036;stroke-width:1.5;" x1="8" x2="116" y1="147" y2="147"/><line style="stroke:#A80036;stroke-width:1.5;" x1="8" x2="116" y1="155" y2="155"/><rect codeLine="3" fill="#FEFECE" filter="url(#f1rbuwvst1vlk9)" height="48" id="SuiteHTMLReporter" style="stroke:#A80036;stroke-width:1.5;" width="151" x="152.5" y="115"/><ellipse cx="167.5" cy="131" fill="#ADD1B2" rx="11" ry="11" style="stroke:#A80036;stroke-width:1.0;"/><path d="M170.4688,136.6406 Q169.8906,136.9375 169.25,137.0859 Q168.6094,137.2344 167.9063,137.2344 Q165.4063,137.2344 164.0859,135.5859 Q162.7656,133.9375 162.7656,130.8125 Q162.7656,127.6875 164.0859,126.0313 Q165.4063,124.375 167.9063,124.375 Q168.6094,124.375 169.2578,124.5313 Q169.9063,124.6875 170.4688,124.9844 L170.4688,127.7031 Q169.8438,127.125 169.25,126.8516 Q168.6563,126.5781 168.0313,126.5781 Q166.6875,126.5781 166,127.6484 Q165.3125,128.7188 165.3125,130.8125 Q165.3125,132.9063 166,133.9766 Q166.6875,135.0469 168.0313,135.0469 Q168.6563,135.0469 169.25,134.7734 Q169.8438,134.5 170.4688,133.9219 L170.4688,136.6406 Z " fill="#000000"/><text fill="#000000" font-family="sans-serif" font-size="12" lengthAdjust="spacing" textLength="119" x="181.5" y="135.1543">SuiteHTMLReporter</text><line style="stroke:#A80036;stroke-width:1.5;" x1="153.5" x2="302.5" y1="147" y2="147"/><line style="stroke:#A80036;stroke-width:1.5;" x1="153.5" x2="302.5" y1="155" y2="155"/><rect codeLine="4" fill="#FEFECE" filter="url(#f1rbuwvst1vlk9)" height="48" id="EmailableReporter" style="stroke:#A80036;stroke-width:1.5;" width="147" x="338.5" y="115"/><ellipse cx="353.5" cy="131" fill="#ADD1B2" rx="11" ry="11" style="stroke:#A80036;stroke-width:1.0;"/><path d="M356.4688,136.6406 Q355.8906,136.9375 355.25,137.0859 Q354.6094,137.2344 353.9063,137.2344 Q351.4063,137.2344 350.0859,135.5859 Q348.7656,133.9375 348.7656,130.8125 Q348.7656,127.6875 350.0859,126.0313 Q351.4063,124.375 353.9063,124.375 Q354.6094,124.375 355.2578,124.5313 Q355.9063,124.6875 356.4688,124.9844 L356.4688,127.7031 Q355.8438,127.125 355.25,126.8516 Q354.6563,126.5781 354.0313,126.5781 Q352.6875,126.5781 352,127.6484 Q351.3125,128.7188 351.3125,130.8125 Q351.3125,132.9063 352,133.9766 Q352.6875,135.0469 354.0313,135.0469 Q354.6563,135.0469 355.25,134.7734 Q355.8438,134.5 356.4688,133.9219 L356.4688,136.6406 Z " fill="#000000"/><text fill="#000000" font-family="sans-serif" font-size="12" lengthAdjust="spacing" textLength="115" x="367.5" y="135.1543">EmailableReporter</text><line style="stroke:#A80036;stroke-width:1.5;" x1="339.5" x2="484.5" y1="147" y2="147"/><line style="stroke:#A80036;stroke-width:1.5;" x1="339.5" x2="484.5" y1="155" y2="155"/><path d="M173.7692,66.2827 C149.3351,82.1796 121.105,100.5461 99.1293,114.8436 " fill="none" id="IReporter-backto-XMLReporter" style="stroke:#A80036;stroke-width:1.0;"/><polygon fill="none" points="170.1647,60.2767,190.7464,55.2373,177.7995,72.0117,170.1647,60.2767" style="stroke:#A80036;stroke-width:1.0;"/><path d="M228,75.2911 C228,88.8171 228,103.1835 228,114.8436 " fill="none" id="IReporter-backto-SuiteHTMLReporter" style="stroke:#A80036;stroke-width:1.0;"/><polygon fill="none" points="221.0001,75.2373,228,55.2373,235.0001,75.2373,221.0001,75.2373" style="stroke:#A80036;stroke-width:1.0;"/><path d="M286.9307,65.5898 C314.282,81.6438 346.1313,100.3379 370.8446,114.8436 " fill="none" id="IReporter-backto-EmailableReporter" style="stroke:#A80036;stroke-width:1.0;"/><polygon fill="none" points="282.9981,71.3983,269.2932,55.2373,290.0849,59.3245,282.9981,71.3983" style="stroke:#A80036;stroke-width:1.0;"/></g></svg>